<svg width="56" height="43" viewBox="0 0 56 43" fill="none" xmlns="http://www.w3.org/2000/svg">
<path d="M47.4064 3.56447C43.8371 1.91463 40.0096 0.699103 36.0078 0.00292039C35.9349 -0.0105157 35.8621 0.0230618 35.8245 0.0902185C35.3323 0.972195 34.787 2.12281 34.4052 3.02718C30.1009 2.37802 25.8188 2.37802 21.6028 3.02718C21.2208 2.1027 20.6558 0.972195 20.1613 0.0902185C20.1238 0.0253025 20.051 -0.00827503 19.9781 0.00292039C15.9785 0.696878 12.151 1.9124 8.57952 3.56447C8.5486 3.57789 8.5221 3.6003 8.50451 3.62938C1.24458 14.5558 -0.744217 25.2136 0.23142 35.7393C0.235835 35.7908 0.26453 35.84 0.304262 35.8713C5.09415 39.4149 9.73398 41.5662 14.2877 42.9922C14.3605 43.0146 14.4377 42.9877 14.4841 42.9272C15.5613 41.4454 16.5215 39.8829 17.3448 38.2397C17.3934 38.1435 17.347 38.0293 17.2477 37.9912C15.7246 37.4092 14.2744 36.6996 12.8794 35.8937C12.769 35.8288 12.7602 35.6698 12.8617 35.5937C13.1553 35.3721 13.4489 35.1415 13.7292 34.9087C13.7799 34.8662 13.8506 34.8572 13.9102 34.8841C23.075 39.0993 32.9969 39.0993 42.0536 34.8841C42.1132 34.855 42.1839 34.864 42.2368 34.9065C42.5172 35.1393 42.8107 35.3721 43.1065 35.5937C43.208 35.6698 43.2014 35.8288 43.0911 35.8937C41.696 36.7153 40.2458 37.4092 38.7205 37.989C38.6212 38.0271 38.5771 38.1435 38.6256 38.2397C39.4666 39.8806 40.4268 41.4431 41.4841 42.925C41.5283 42.9877 41.6077 43.0146 41.6806 42.9922C46.2563 41.5662 50.8961 39.4149 55.686 35.8713C55.728 35.84 55.7545 35.793 55.7589 35.7415C56.9265 23.5727 53.8031 13.0022 47.4792 3.63161C47.4637 3.6003 47.4373 3.57789 47.4064 3.56447ZM18.7134 29.3302C15.9542 29.3302 13.6806 26.7783 13.6806 23.6443C13.6806 20.5103 15.9101 17.9584 18.7134 17.9584C21.5387 17.9584 23.7902 20.5327 23.7461 23.6443C23.7461 26.7783 21.5166 29.3302 18.7134 29.3302ZM37.3211 29.3302C34.5619 29.3302 32.2884 26.7783 32.2884 23.6443C32.2884 20.5103 34.5178 17.9584 37.3211 17.9584C40.1465 17.9584 42.3979 20.5327 42.3538 23.6443C42.3538 26.7783 40.1465 29.3302 37.3211 29.3302Z" fill="#6967A4"/>
</svg>
