<svg width="75" height="78" viewBox="0 0 75 78" fill="none" xmlns="http://www.w3.org/2000/svg">
<ellipse cx="37.79" cy="38.9485" rx="37.2059" ry="38.6082" fill="#EEE1FB"/>
<path d="M3.37451 52.944C3.37451 52.944 11.2517 47.6989 16.8616 45.7049C23.1326 43.476 29.8837 42.8094 33.6043 42.8093C37.3249 42.8092 43.2103 42.8022 48.9517 44.7397C54.9074 46.7496 62.9039 52.944 62.9039 52.944L69.4149 58.7352" stroke="#AD7DCA" stroke-opacity="0.5"/>
<ellipse cx="37.7899" cy="25.9182" rx="13.0221" ry="13.0303" fill="#EEE1FB"/>
<path d="M50.3119 25.9182C50.3119 32.8388 44.7053 38.4485 37.7899 38.4485C30.8744 38.4485 25.2678 32.8388 25.2678 25.9182C25.2678 18.9976 30.8744 13.3879 37.7899 13.3879C44.7053 13.3879 50.3119 18.9976 50.3119 25.9182Z" stroke="#AD7DCA" stroke-opacity="0.5"/>
</svg>
