<svg width="30" height="27" viewBox="0 0 30 27" fill="none" xmlns="http://www.w3.org/2000/svg">
<path opacity="0.8" d="M24.896 9.00007L17.7064 3.08257C17.0473 2.52912 16.1941 2.22314 15.3098 2.22314C14.4256 2.22314 13.5724 2.52912 12.9133 3.08257L5.72371 9.00007C5.3431 9.31965 5.03938 9.71169 4.83276 10.1501C4.62615 10.5885 4.52138 11.0632 4.52544 11.5426V21.3751C4.52544 22.2702 4.90418 23.1286 5.57834 23.7616C6.25249 24.3945 7.16684 24.7501 8.12024 24.7501H22.4994C23.4528 24.7501 24.3672 24.3945 25.0414 23.7616C25.7155 23.1286 26.0942 22.2702 26.0942 21.3751V11.5313C26.0966 11.0538 25.991 10.5813 25.7845 10.145C25.5779 9.70862 25.2751 9.31839 24.896 9.00007ZM17.7064 22.5001H12.9133V16.8751C12.9133 16.5767 13.0396 16.2906 13.2643 16.0796C13.489 15.8686 13.7938 15.7501 14.1116 15.7501H16.5081C16.8259 15.7501 17.1307 15.8686 17.3554 16.0796C17.5801 16.2906 17.7064 16.5767 17.7064 16.8751V22.5001ZM23.6977 21.3751C23.6977 21.6734 23.5715 21.9596 23.3467 22.1706C23.122 22.3815 22.8172 22.5001 22.4994 22.5001H20.1029V16.8751C20.1029 15.98 19.7242 15.1215 19.05 14.4886C18.3759 13.8556 17.4615 13.5001 16.5081 13.5001H14.1116C13.1582 13.5001 12.2438 13.8556 11.5697 14.4886C10.8955 15.1215 10.5168 15.98 10.5168 16.8751V22.5001H8.12024C7.80244 22.5001 7.49766 22.3815 7.27294 22.1706C7.04822 21.9596 6.92198 21.6734 6.92198 21.3751V11.5313C6.92219 11.3716 6.95864 11.2137 7.02888 11.0682C7.09913 10.9228 7.20157 10.793 7.32939 10.6876L14.519 4.78132C14.7377 4.60096 15.0188 4.50149 15.3098 4.50149C15.6009 4.50149 15.882 4.60096 16.1007 4.78132L23.2903 10.6876C23.4181 10.793 23.5206 10.9228 23.5908 11.0682C23.6611 11.2137 23.6975 11.3716 23.6977 11.5313V21.3751Z" fill="#88889D"/>
</svg>
