<svg width="275" height="533" viewBox="0 0 275 533" fill="none" xmlns="http://www.w3.org/2000/svg">
<g clip-path="url(#clip0_940_1653)">
<g clip-path="url(#clip1_940_1653)">
<path d="M187.274 356.604C189.326 358.524 189.233 365.89 178.994 374.037C166.411 384.048 140.768 392.775 128.389 395.628C116.01 398.48 101.529 400.237 86.331 400.237C69.0069 400.237 59.498 412.198 58.7383 405.903C57.9923 399.721 68.694 382.423 82.5545 376.793C96.415 371.164 161.57 349.101 170.374 349.449C179.178 349.797 184.034 353.572 187.274 356.604Z" fill="#3E4949"/>
<path d="M150.444 354.92C152.551 347.261 142.517 316.847 126.516 331.294C120.516 336.711 110.335 349.361 107.66 362.108C105.173 373.958 97.6131 417.752 92.1666 448.049C91.6804 450.633 89.782 461.211 85.5011 464.436C77.6678 470.336 70.8677 482.806 68.799 487.57C68.799 487.57 84.1693 501.344 95.1569 509.793C108.371 519.954 121.321 521.323 138.161 522.432C138.161 522.432 143.912 511.857 141.48 506.96C138.417 500.792 124.419 494.214 120.316 488.032C114.842 479.783 111.018 465.948 112.463 460.048C112.546 459.71 148.503 361.98 150.444 354.92Z" fill="#933237"/>
<path d="M138.437 522.712C138.437 522.712 144.463 511.857 142.031 506.96C138.968 500.792 124.695 494.214 120.592 488.032C115.117 479.783 111.293 465.948 112.738 460.048C112.773 459.906 118.449 445.187 125.921 424.575C123.513 419.718 103.752 414.785 97.7292 414.068C95.6187 425.762 93.7533 437.694 91.8917 448.049C91.4055 450.633 89.5071 460.93 85.2262 464.155C77.3929 470.055 70.5928 482.805 68.524 487.57C68.524 487.57 84.1695 501.624 95.1572 510.073C108.371 520.235 121.597 521.604 138.437 522.712Z" fill="#E499C2"/>
<path d="M142.031 506.96C139.513 501.889 129.419 496.541 123.628 491.364C114.702 490.267 103.231 486.363 99.6266 479.782C96.5686 474.197 90.859 465.872 87.1954 461.756C86.6307 462.294 85.5077 463.455 84.9513 463.874C77.118 469.775 70.0427 483.087 67.974 487.851C67.974 487.851 84.1698 501.905 95.1575 510.355C108.371 520.516 121.597 521.604 138.437 522.712C138.437 522.712 144.463 511.857 142.031 506.96Z" fill="url(#paint0_linear_940_1653)"/>
<mask id="mask0_940_1653" style="mask-type:luminance" maskUnits="userSpaceOnUse" x="67" y="439" width="76" height="84">
<path d="M93.9098 447.882C93.9098 447.882 92.7282 458.178 84.951 464.155C77.1738 470.132 70.0424 483.087 67.9736 487.851C67.9736 487.851 84.1695 501.905 95.1571 510.355C108.371 520.516 121.596 521.604 138.437 522.712C138.437 522.712 144.463 511.857 142.031 506.961C138.967 500.792 124.694 494.214 120.592 488.032C115.117 479.783 112.308 466.244 113.311 460.25C115.823 445.25 106.844 428.545 93.9098 447.882Z" fill="white"/>
</mask>
<g mask="url(#mask0_940_1653)">
<path d="M70.6475 476.105C70.6475 476.105 80.636 485.314 91.3246 496.983C102.013 508.651 127.097 514.548 135.234 515.007C143.372 515.467 152.62 518.155 152.62 518.155L142.592 535.806L86.1362 517.197L58.1794 485.745L70.6475 476.105Z" fill="#7770B1"/>
</g>
<path d="M85.7267 225.036C81.5169 232.549 76.3899 248.294 80.5364 260.595C86.3426 277.819 119.503 363.53 121.947 370.782C124.392 378.034 154.667 378.024 149.753 343.589C144.839 309.154 130.764 241.884 128.884 234.258C127.005 226.632 96.9527 204.999 85.7267 225.036Z" fill="#933237"/>
<path d="M180.536 499.13C176.791 495.307 159.808 494.711 153.5 491.289C147.523 488.045 130.169 478.33 129.204 470.182C125.037 434.989 123.289 358.327 122.219 350.447C121.148 342.567 100.035 318.785 91.0293 338.557C87.6524 345.971 83.2775 361.72 85.8198 374.495C88.7041 388.987 102.927 450.319 109.021 477.093C109.028 478.703 108.938 486.625 106.608 494.723C103.997 503.798 106.02 518.001 107.084 523.032C107.084 523.032 128.958 523.674 142.053 523.674C155.148 523.674 177.403 519.165 185.225 515.271C185.225 515.271 184.282 502.952 180.536 499.13Z" fill="#B15647"/>
<path d="M180.536 499.13C176.791 495.307 159.808 494.43 153.5 491.008C147.523 487.764 130.169 478.33 129.204 470.182C127.669 457.217 126.737 438.624 125.772 419.916C114.363 418.572 103.259 422.516 96.962 425.655C101.344 444.821 106.194 464.674 109.021 477.093C109.028 478.703 108.938 486.625 106.608 494.723C103.997 503.797 106.02 518.001 107.084 523.032C107.084 523.032 128.958 523.954 142.053 523.954C155.148 523.954 177.403 519.165 185.225 515.271C185.225 515.271 184.282 502.952 180.536 499.13Z" fill="url(#paint1_linear_940_1653)"/>
<path d="M157.171 492.186C150.667 492.736 135.015 495.061 124.877 491.675C116.713 488.949 108.619 481.782 108.619 481.782C108.619 481.782 107.271 488.891 106.058 494.724C104.134 503.975 105.744 518.282 106.809 523.313C106.809 523.313 128.958 524.236 142.053 524.236C155.148 524.236 177.678 519.446 185.5 515.552C185.5 515.552 184.557 502.952 180.812 499.13C177.652 495.905 164.877 494.577 157.171 492.186Z" fill="url(#paint2_linear_940_1653)"/>
<mask id="mask1_940_1653" style="mask-type:luminance" maskUnits="userSpaceOnUse" x="85" y="330" width="101" height="195">
<path d="M180.812 499.13C177.066 495.307 159.808 494.15 153.5 490.727C147.523 487.484 130.169 478.33 129.204 470.182C125.037 434.989 123.289 358.327 122.219 350.447C121.148 342.567 100.035 318.785 91.0293 338.557C87.6524 345.971 83.2775 361.72 85.8198 374.495C88.7041 388.987 102.927 450.319 109.021 477.093C109.028 478.703 108.938 486.625 106.608 494.723C103.997 503.798 105.567 517.465 106.809 523.313C106.809 523.313 128.958 524.235 142.053 524.235C155.148 524.235 177.678 519.446 185.5 515.552C185.5 515.552 184.557 502.952 180.812 499.13Z" fill="white"/>
</mask>
<g mask="url(#mask1_940_1653)">
<path d="M104.931 510.191C104.931 510.191 115.194 510.963 124.287 513.621C133.38 516.279 151.345 516.233 157.395 513.694C163.444 511.155 177.635 506.59 185.068 507.491C192.501 508.392 197.796 523.4 197.796 523.4L166.833 533.689L111.201 532.084L94.4688 522.451L104.931 510.191Z" fill="#7770B1"/>
</g>
<path d="M73.9309 226.149C68.8044 233.044 61.7259 247.98 64.2792 260.724C67.8545 278.57 89.878 367.937 91.3835 375.451C92.8889 382.964 122.911 386.948 122.4 352.154C121.89 317.36 116.455 248.798 115.558 240.988C114.66 233.178 87.6009 207.761 73.9309 226.149Z" fill="#B15647"/>
<path d="M103.007 109.104C103.007 109.104 108.894 106.618 113.343 109.755C117.793 112.891 117.664 118.173 116.027 119.3C116.027 119.3 121.564 117.323 125.658 122.534C129.608 127.56 126.376 130.804 126.376 130.804C126.376 130.804 131.355 133.42 129.946 138.923C128.537 144.425 115.457 146.177 111.167 142.688C111.167 142.688 108.063 151.674 100.638 150.983C93.2123 150.291 90.8642 141.205 90.8642 141.205C90.8642 141.205 87.3585 143.145 82.4706 139.208C77.5827 135.272 75.4804 123.722 81.5262 121.184C85.4563 119.535 103.007 109.104 103.007 109.104Z" fill="#E499C2"/>
<path d="M102.857 136.896C102.857 136.896 108.499 134.813 113.848 139.069C119.196 143.324 155.71 179.696 161.998 186.907C168.287 194.119 175.405 204.331 172.904 211.223C170.402 218.115 163.495 216.762 156.223 212.618C148.952 208.474 123.065 190.147 113.981 179.238C104.898 168.328 93.5241 147.986 102.857 136.896Z" fill="#FADBC2"/>
<path d="M201.376 161.053C204.438 158.494 205.977 160.203 211.247 157.232C215.144 155.035 219.228 139.499 215.498 135.096C211.767 130.692 195.308 139.125 191.432 148.994C187.557 158.862 198.388 163.549 201.376 161.053Z" fill="#B15647"/>
<mask id="mask2_940_1653" style="mask-type:luminance" maskUnits="userSpaceOnUse" x="190" y="133" width="27" height="29">
<path d="M201.376 161.053C204.438 158.494 205.977 160.203 211.247 157.232C215.144 155.035 219.228 139.499 215.498 135.096C211.767 130.692 195.308 139.125 191.432 148.994C187.557 158.862 198.388 163.549 201.376 161.053Z" fill="white"/>
</mask>
<g mask="url(#mask2_940_1653)">
<path d="M201.714 145.549C195.142 147.43 190.253 160.13 196.063 157.084C204.276 152.778 212.339 151.605 212.339 151.605L227.837 137.32C227.837 137.32 205.456 144.478 201.714 145.549Z" fill="#933237"/>
</g>
<path d="M102.857 136.896C102.857 136.896 108.499 134.813 113.848 139.069C119.196 143.324 155.71 179.696 161.998 186.907C168.287 194.119 175.405 204.331 172.904 211.223C170.402 218.115 163.495 216.762 156.223 212.618C148.952 208.474 123.065 190.147 113.981 179.238C104.898 168.328 93.5241 147.986 102.857 136.896Z" fill="#FADBC2"/>
<path d="M191.354 149.016C191.354 149.016 172.2 173.312 164.366 184.264C155.138 197.165 149.882 208.935 157.913 213.531C166.308 218.335 169.889 217.78 173.848 211.746C177.268 206.534 200.705 164.821 202.506 160.65C202.506 160.65 200.194 160.687 197.604 158.811C194.122 156.288 191.131 150.317 191.354 149.016Z" fill="#FADBC2"/>
<path d="M78.6294 136.285C81.9142 145.04 95.254 140.311 92.3567 131.423C91.5383 128.912 90.8476 126.27 90.6726 124.112C90.5716 122.865 90.4943 121.617 90.4409 120.367C90.2813 116.632 87.2781 113.632 83.5047 113.452L82.8046 113.418C77.9522 113.187 74.2311 117.625 75.3587 122.302C76.365 126.475 77.4432 131.107 78.0139 134.063C78.1718 134.879 78.3793 135.618 78.6294 136.285Z" fill="#B15647"/>
<path d="M76.5514 206.72C76.5514 206.72 71.3661 201.283 68.4583 196.217C65.5506 191.151 61.2782 171.955 59.1652 163.903C57.8997 159.081 45.5961 148.722 48.7796 134.944C50.1745 128.907 58.2866 125.735 66.2999 127.648C79.446 130.787 87.3233 136.414 90.5071 137.046C93.6908 137.678 99.166 137.56 104.422 136.568C108.476 135.803 112.69 143.38 114.108 150.674C116.127 161.055 123.485 165.189 124.185 172.051C124.885 178.912 122.429 198.203 124.368 209.846C125.864 218.827 83.1437 212.621 76.5514 206.72Z" fill="url(#paint3_linear_940_1653)"/>
<path d="M115.685 214.353C115.552 214.353 115.423 214.303 115.323 214.214C115.223 214.124 115.158 214 115.14 213.865C115.11 213.634 112.142 190.647 112.142 179.3C112.142 168.028 105.154 159.517 101.796 155.427C98.4194 151.315 90.8742 138.223 90.5547 137.668C90.5168 137.604 90.4917 137.534 90.4808 137.46C90.4699 137.386 90.4735 137.311 90.4913 137.239C90.5091 137.167 90.5408 137.099 90.5846 137.039C90.6284 136.98 90.6834 136.93 90.7463 136.892C90.8092 136.854 90.8789 136.83 90.9512 136.82C91.0236 136.81 91.0971 136.815 91.1676 136.834C91.2381 136.853 91.3041 136.887 91.3618 136.932C91.4195 136.978 91.4678 137.035 91.5038 137.099C91.5816 137.234 99.3217 150.665 102.64 154.706C106.081 158.897 113.243 167.619 113.243 179.3C113.243 190.574 116.202 213.488 116.232 213.718C116.242 213.797 116.236 213.878 116.213 213.954C116.19 214.031 116.151 214.102 116.1 214.162C116.048 214.222 115.984 214.27 115.913 214.303C115.841 214.336 115.764 214.353 115.685 214.353Z" fill="#E3B194"/>
<path d="M100.418 137.05C100.418 137.05 94.7307 132.557 92.2745 131.493C92.2745 131.493 92.3251 134.629 91.4935 137.046C91.4935 137.046 97.9546 143.48 100.679 149.016C100.679 149.016 101.684 143.417 100.418 137.05Z" fill="url(#paint4_linear_940_1653)"/>
<path d="M91.4935 137.046C91.4935 137.046 82.1214 133.097 76.8741 127.742C76.8741 127.742 70.0306 129.06 67.6746 129.595C67.6746 129.595 83.9604 142.946 89.6774 151.02C89.6777 151.021 89.9622 139.499 91.4935 137.046Z" fill="url(#paint5_linear_940_1653)"/>
<path d="M89.6777 151.582C89.5906 151.582 89.5047 151.561 89.4272 151.521C89.3496 151.48 89.2826 151.422 89.2316 151.35C83.6236 143.429 67.4924 130.166 67.3301 130.033C67.2209 129.938 67.1522 129.803 67.1387 129.658C67.1252 129.512 67.1678 129.367 67.2575 129.253C67.3473 129.139 67.4771 129.065 67.6194 129.047C67.7616 129.029 67.9051 129.069 68.0194 129.157C68.652 129.676 82.8344 141.338 89.159 149.402C89.2498 146.118 89.5899 139.103 90.8515 137.082C90.8944 137.013 90.9515 136.955 91.0189 136.911C91.0862 136.867 91.1622 136.838 91.2414 136.827C91.3207 136.816 91.4013 136.823 91.4778 136.847C91.5542 136.871 91.6246 136.912 91.6839 136.967C91.9333 137.196 97.3129 142.165 100.345 147.251C100.543 145.149 100.702 141.303 99.8794 137.162C99.8651 137.089 99.8648 137.015 99.8786 136.943C99.8925 136.87 99.9201 136.801 99.9601 136.74C100 136.678 100.051 136.625 100.111 136.584C100.171 136.543 100.239 136.514 100.31 136.5C100.38 136.485 100.453 136.485 100.524 136.499C100.595 136.513 100.663 136.541 100.723 136.582C100.783 136.623 100.835 136.675 100.875 136.736C100.916 136.797 100.944 136.866 100.958 136.938C102.23 143.338 101.263 148.885 101.221 149.118C101.2 149.234 101.144 149.34 101.061 149.422C100.978 149.503 100.872 149.556 100.757 149.573C100.643 149.59 100.527 149.569 100.424 149.515C100.322 149.46 100.239 149.374 100.188 149.269C97.9917 144.807 93.1209 139.893 91.4908 138.317C90.5378 140.997 90.2552 148.226 90.2283 151.026C90.227 151.174 90.1685 151.316 90.0653 151.42C89.9621 151.524 89.8228 151.583 89.6777 151.582ZM124.185 172.612C124.049 172.612 123.917 172.56 123.817 172.467C123.716 172.374 123.652 172.247 123.638 172.109C123.324 169.03 121.59 166.503 119.583 163.577C117.276 160.214 114.661 156.403 113.568 150.783C113.542 150.638 113.573 150.488 113.654 150.366C113.735 150.244 113.86 150.159 114.002 150.131C114.144 150.102 114.291 150.131 114.412 150.212C114.533 150.294 114.617 150.42 114.648 150.564C115.696 155.952 118.24 159.66 120.484 162.932C122.492 165.859 124.389 168.624 124.732 171.992C124.74 172.071 124.732 172.15 124.708 172.225C124.684 172.299 124.645 172.368 124.594 172.427C124.542 172.485 124.479 172.532 124.408 172.564C124.338 172.596 124.262 172.612 124.185 172.612Z" fill="#E3B194"/>
<path d="M124.368 209.846C124.368 209.846 127.796 230.347 133.097 242.472C138.398 254.598 153.329 284.251 159.398 301.645C165.468 319.04 183.302 349.924 187.715 357.157C187.715 357.157 184.926 350.411 157.906 369.428C139.006 382.73 115.589 384.995 103.322 383.304C91.056 381.612 58.8944 393.945 58.8944 406.646C58.8944 406.646 53.0728 388.102 48.8252 378.828C43.7945 367.845 42.1542 347.624 45.5413 328.111C48.9284 308.598 54.7222 292.09 56.9255 278.511C58.4714 268.984 57.3168 253.574 60.3539 241.166C63.391 228.758 73.5842 207.136 75.935 206.052C75.9344 206.052 92.0521 200.097 124.368 209.846Z" fill="url(#paint6_linear_940_1653)"/>
<path d="M216.585 139.716C216.585 139.716 215.535 134.504 216.562 131.514C217.59 128.523 219.316 127.561 220.019 133.095C220.721 138.63 222.446 141.901 220.725 144.555C219.005 147.209 216.113 146.126 215.729 145.855C215.345 145.583 217.162 142.005 216.585 139.716Z" fill="#B15647"/>
<path d="M218.08 135.792C217.771 133.109 217.265 131.683 216.69 131.164C216.646 131.277 216.603 131.393 216.562 131.514C215.534 134.504 216.584 139.716 216.584 139.716C217.162 142.005 215.344 145.583 215.729 145.854C216.042 146.076 218.023 146.836 219.676 145.671C219.515 143.122 218.562 139.994 218.08 135.792Z" fill="#933237"/>
<path d="M213.742 144.488C213.742 144.488 212.692 138.634 213.812 135.256C214.932 131.878 216.768 130.775 217.448 136.995C218.127 143.215 219.913 146.877 218.064 149.884C216.216 152.892 213.171 151.708 212.768 151.406C212.365 151.104 214.327 147.057 213.742 144.488Z" fill="#B15647"/>
<path d="M213.431 137.005C212.997 140.334 213.742 144.488 213.742 144.488C214.327 147.057 212.365 151.104 212.768 151.406C213.085 151.644 215.042 152.427 216.762 151.28C218.064 149.884 215.458 144.768 214.357 139.598C214.075 138.276 213.431 137.005 213.431 137.005Z" fill="#933237"/>
<path d="M210.622 148.139C210.622 148.139 209.025 143.572 209.916 140.359C210.806 137.147 212.61 136.017 213.79 141.784C214.971 147.55 217.154 150.032 215.485 152.938C213.817 155.845 210.593 154.906 210.155 154.647C209.717 154.388 211.422 150.505 210.622 148.139Z" fill="#B15647"/>
<path d="M211.209 144.447C210.854 143.277 209.747 141.162 209.747 141.162C209.156 143.998 210.622 148.139 210.622 148.139C211.422 150.505 209.717 154.388 210.155 154.647C210.473 154.835 212.257 155.38 213.85 154.555C214.982 153.54 212.562 148.902 211.209 144.447Z" fill="#933237"/>
<path d="M208.22 152.523C208.22 152.523 206.794 148.968 207.339 145.931C207.885 142.894 209.469 141.69 211.086 146.887C212.703 152.084 214.424 153.636 213.192 156.494C212.49 158.122 209.042 158.718 207.869 158.736C207.395 158.743 209.179 154.626 208.22 152.523Z" fill="#B15647"/>
<path d="M79.2739 84.8213C79.2739 84.8213 84.7975 81.2894 90.1493 82.4158C93.5185 83.1249 97.8654 86.6388 96.7881 89.3201C95.7105 92.0017 79.2739 84.8213 79.2739 84.8213Z" fill="#E498C1"/>
<path d="M90.9415 126.465C90.6851 124.491 90.2805 122.232 94.9601 122.044C100.854 121.807 105.74 121.274 105.74 114.172C105.74 107.07 103.558 101.827 102.894 99.4081C102.231 96.9894 100.647 90.1837 95.5498 86.456C90.4528 82.7284 76.4344 85.8278 74.9807 86.5037C69.9643 88.8368 59.656 104.733 69.4153 116.431C79.1746 128.13 91.6985 132.291 90.9415 126.465Z" fill="#B15647"/>
<path d="M84.3921 98.6592C84.3921 98.6592 85.9432 95.0419 88.5995 94.7484C90.9533 94.4884 92.8143 97.5381 92.8143 97.5381C92.8143 97.5381 93.9029 100.924 91.6239 101.083C89.3449 101.241 86.1474 100.359 84.3921 98.6592Z" fill="white"/>
<mask id="mask3_940_1653" style="mask-type:luminance" maskUnits="userSpaceOnUse" x="85" y="95" width="10" height="7">
<path d="M86.0715 101.623C86.0715 101.623 85.3742 97.7493 87.4152 95.9772C89.2238 94.4069 92.4383 95.8472 92.4383 95.8472C92.4383 95.8472 95.1969 98.0094 93.3948 99.4531C91.5926 100.897 88.4584 102.012 86.0715 101.623Z" fill="white"/>
</mask>
<g mask="url(#mask3_940_1653)">
<path d="M91.9481 100.344C92.8954 99.6857 92.7657 97.8032 91.6584 96.1394C90.5511 94.4755 88.8854 93.6604 87.9381 94.3187C86.9907 94.9771 87.1205 96.8596 88.2278 98.5234C89.3351 100.187 91.0008 101.002 91.9481 100.344Z" fill="#1E1E1E"/>
</g>
<path d="M101.694 95.5898C99.3277 93.175 98.3525 97.2309 98.3525 97.2309C98.3525 97.2309 100.1 100.535 101.892 100.033C103.683 99.5309 101.694 95.5898 101.694 95.5898Z" fill="white"/>
<mask id="mask4_940_1653" style="mask-type:luminance" maskUnits="userSpaceOnUse" x="98" y="95" width="6" height="5">
<path d="M101.052 95.2882C97.9277 94.0826 98.6268 98.1816 98.6268 98.1816C98.6268 98.1816 101.533 100.456 102.982 99.248C104.431 98.0404 101.052 95.2882 101.052 95.2882Z" fill="white"/>
</mask>
<g mask="url(#mask4_940_1653)">
<path d="M101.863 99.7962C102.536 99.4899 102.544 97.9982 101.88 96.4644C101.216 94.9306 100.131 93.9355 99.4583 94.2418C98.7851 94.5481 98.7777 96.0398 99.4418 97.5736C100.106 99.1074 101.19 100.103 101.863 99.7962Z" fill="#1E1E1E"/>
</g>
<path d="M101.576 106.646C101.504 106.646 101.432 106.626 101.37 106.589C101.307 106.553 101.255 106.5 101.219 106.436C101.183 106.372 101.163 106.299 101.163 106.225C101.163 106.152 101.182 106.079 101.218 106.015C102.184 104.294 103.218 102.246 103.46 101.471C103.266 101.468 103.072 101.47 102.879 101.477C101.855 101.503 100.309 101.542 99.2672 100.708C98.2166 99.867 97.7697 97.2281 97.7064 95.2238C97.6745 94.2109 97.6979 91.7658 98.6065 90.9365C98.6468 90.8993 98.694 90.8705 98.7452 90.8519C98.7965 90.8333 98.8509 90.8253 98.9052 90.8282C98.9595 90.8311 99.0128 90.845 99.0618 90.869C99.1109 90.893 99.1548 90.9266 99.1911 90.968C99.2274 91.0094 99.2553 91.0577 99.2732 91.1101C99.2911 91.1625 99.2987 91.2181 99.2955 91.2735C99.2923 91.3289 99.2784 91.3832 99.2546 91.4331C99.2308 91.483 99.1976 91.5277 99.1568 91.5644C98.7988 91.8913 98.4667 93.1413 98.5316 95.1966C98.6029 97.4494 99.1381 99.5336 99.7768 100.045C100.585 100.692 101.953 100.658 102.858 100.634C103.558 100.617 103.943 100.606 104.18 100.842C104.282 100.943 104.338 101.079 104.338 101.223C104.338 102.085 102.498 105.429 101.934 106.433C101.898 106.498 101.846 106.552 101.783 106.589C101.72 106.626 101.649 106.646 101.576 106.646ZM91.9762 91.2892C92.2189 91.4777 92.0365 91.8719 91.739 91.8037C90.8738 91.6057 89.6144 91.4552 88.1224 91.6877C86.4697 91.9455 84.7188 93.0444 83.5317 93.929C83.2648 94.1281 82.9335 93.7858 83.1341 93.5178C84.161 92.1477 85.8764 90.3468 87.9609 90.0455C89.5712 89.8129 90.9338 90.4799 91.9762 91.2892ZM84.1167 99.0804C84.046 99.0803 83.9764 99.0617 83.9147 99.0263C83.8531 98.9909 83.8014 98.9399 83.7646 98.8783C83.7278 98.8166 83.7071 98.7463 83.7046 98.6742C83.7021 98.602 83.7178 98.5304 83.7502 98.4662C83.8289 98.3104 85.7111 94.6439 88.5552 94.3297C91.1364 94.0441 93.0832 97.1817 93.1649 97.3154C93.2228 97.4102 93.2415 97.5246 93.2167 97.6335C93.192 97.7423 93.1259 97.8366 93.033 97.8957C92.9401 97.9548 92.828 97.9739 92.7213 97.9486C92.6147 97.9234 92.5223 97.8559 92.4643 97.7611C92.447 97.7327 90.7109 94.9408 88.6441 95.1671C86.2427 95.4325 84.5014 98.8181 84.4841 98.8524C84.4492 98.9211 84.3965 98.9788 84.3317 99.019C84.2669 99.0592 84.1925 99.0804 84.1167 99.0804Z" fill="#1E1E1E"/>
<path d="M98.3525 97.6521C98.2891 97.6522 98.2265 97.6373 98.1696 97.6087C98.1126 97.58 98.063 97.5384 98.0244 97.4869C97.9859 97.4355 97.9595 97.3757 97.9473 97.3121C97.9351 97.2486 97.9374 97.183 97.9541 97.1205C98.0168 96.8855 98.6051 94.8164 99.954 94.5445C100.717 94.3907 101.505 94.845 102.296 95.8947C102.359 95.9836 102.386 96.0939 102.37 96.2024C102.355 96.3108 102.299 96.4088 102.213 96.4757C102.128 96.5425 102.021 96.5729 101.914 96.5604C101.808 96.5479 101.71 96.4934 101.642 96.4087C101.24 95.8762 100.65 95.2643 100.115 95.371C99.3952 95.5154 98.8759 96.8768 98.7507 97.3424C98.7267 97.4314 98.6747 97.5098 98.6028 97.5658C98.5309 97.6217 98.443 97.6521 98.3525 97.6521Z" fill="#1E1E1E"/>
<path d="M95.5645 109.001C95.5645 109.001 97.8465 107.683 99.5809 108.069C101.763 108.555 102.899 110.864 103.144 111.364C103.144 111.364 101.257 113.713 98.6029 112.659C96.6965 111.902 95.9368 110.086 95.5645 109.001Z" fill="#942224"/>
<path d="M102.188 111.957C100.474 111.957 97.3938 111.471 94.4967 108.514C94.4573 108.475 94.4259 108.429 94.4042 108.377C94.3826 108.326 94.3712 108.271 94.3707 108.215C94.3703 108.159 94.3807 108.103 94.4015 108.052C94.4222 108 94.4529 107.953 94.4916 107.913C94.5304 107.874 94.5765 107.842 94.6272 107.821C94.6779 107.8 94.7323 107.789 94.7871 107.79C94.8419 107.79 94.896 107.802 94.9464 107.824C94.9968 107.846 95.0423 107.878 95.0804 107.918C98.9771 111.895 103.32 111.026 103.364 111.017C103.471 110.994 103.583 111.015 103.674 111.076C103.766 111.137 103.83 111.233 103.853 111.342C103.875 111.451 103.855 111.565 103.795 111.659C103.735 111.752 103.642 111.818 103.535 111.841C103.474 111.855 102.975 111.957 102.188 111.957Z" fill="#1E1E1E"/>
<path d="M76.2327 107.238C76.2327 107.238 80.8996 102.45 77.1019 96.9689C77.1019 96.9689 82.1582 94.8669 83.6866 91.4982C85.4265 87.663 84.7328 83.9227 82.8971 83.0594C81.6255 82.4613 74.6733 81.9359 67.8272 86.6655C60.566 91.6818 59.2644 98.074 61.5043 101.774C61.5043 101.774 52.8936 99.874 49.0401 106.24C44.246 114.159 47.8409 119.141 47.8409 119.141C47.8409 119.141 41.171 115.242 37.2762 119.595C32.5465 124.881 37.1568 129.305 37.1568 129.305C37.1568 129.305 30.1737 130.797 30.8666 138.893C31.5595 146.99 44.1255 154.551 51.4889 148.157C51.4889 148.157 55.6663 152.625 62.6034 148.382C69.2609 144.31 70.9315 137.231 66.5639 131.886C66.5639 131.886 74.2319 133.979 77.9759 129.17C82.4513 123.42 79.8487 116.096 75.2803 115.393L76.2327 107.238Z" fill="url(#paint7_linear_940_1653)"/>
<path d="M78.2899 107.999C77.532 106.791 75.1168 104.38 72.2779 105.176C69.4389 105.972 69.0818 111.702 70.5443 114.623C72.0068 117.545 77.9517 117.247 79.1732 115.476C80.3944 113.705 79.4038 109.774 78.2899 107.999Z" fill="#B15647"/>
<path d="M77.884 112.858C77.7552 112.858 77.6286 112.797 77.548 112.682C76.2982 110.899 72.5283 108.944 72.4903 108.924C72.4416 108.899 72.3981 108.865 72.3624 108.823C72.3267 108.781 72.2994 108.733 72.2822 108.68C72.265 108.627 72.2582 108.571 72.2622 108.516C72.2662 108.461 72.2809 108.407 72.3054 108.357C72.3299 108.307 72.3638 108.263 72.4052 108.227C72.4465 108.191 72.4944 108.163 72.5462 108.146C72.598 108.129 72.6525 108.122 72.7068 108.127C72.7611 108.131 72.8139 108.147 72.8624 108.172C73.0247 108.255 76.8516 110.24 78.2194 112.192C78.2636 112.255 78.2899 112.329 78.2954 112.406C78.301 112.483 78.2856 112.561 78.2509 112.629C78.2163 112.698 78.1637 112.756 78.099 112.796C78.0342 112.837 77.9599 112.858 77.884 112.858Z" fill="#1E1E1E"/>
<path d="M74.9007 114.349C74.8388 114.349 74.7777 114.335 74.7218 114.308C74.666 114.281 74.6169 114.241 74.5782 114.192C74.5395 114.142 74.5122 114.085 74.4982 114.023C74.4842 113.962 74.484 113.898 74.4975 113.836C74.8473 112.236 76.0669 110.746 76.1186 110.683C76.1891 110.598 76.29 110.544 76.3991 110.535C76.5082 110.525 76.6166 110.56 76.7003 110.632C76.784 110.704 76.8363 110.807 76.8457 110.919C76.855 111.03 76.8206 111.141 76.7501 111.226C76.7388 111.24 75.6084 112.624 75.3035 114.02C75.2829 114.113 75.2319 114.197 75.1587 114.256C75.0855 114.316 74.9945 114.349 74.9007 114.349Z" fill="#1E1E1E"/>
<mask id="mask5_940_1653" style="mask-type:luminance" maskUnits="userSpaceOnUse" x="65" y="84" width="41" height="46">
<path d="M90.9415 126.465C90.685 124.491 90.2805 122.232 94.9601 122.044C100.854 121.807 105.74 121.274 105.74 114.172C105.74 107.07 103.558 101.827 102.894 99.4081C102.231 96.9894 100.647 90.1836 95.5498 86.456C90.4528 82.7283 79.8495 83.8657 74.9806 86.5037C70.1117 89.1418 59.656 104.733 69.4153 116.431C79.1745 128.13 91.6985 132.291 90.9415 126.465Z" fill="white"/>
</mask>
<g mask="url(#mask5_940_1653)">
<path d="M98.6142 91.9455C98.4188 92.1407 98.0946 91.9438 98.1577 91.6725C98.3175 90.9831 98.6389 90.2558 99.2834 90.0118C100.624 89.5043 100.03 91.2701 100.03 91.2701C100.03 91.2701 99.2264 91.3339 98.6142 91.9455Z" fill="#1E1E1E"/>
</g>
<path d="M163.303 132.092C163.303 132.092 165.822 132.392 168.908 131.391C172.015 130.383 179.299 131.407 181.372 130.527C183.445 129.646 184.355 128.222 181.313 127.746C178.272 127.27 174.412 126.387 169.95 126.374C167.267 126.365 164.233 126.304 162.224 126.394C160.215 126.483 158.839 131.086 163.303 132.092Z" fill="#B15647"/>
<path d="M181.188 130.595C175.943 128.465 173.901 127.419 170.716 127.21C166.828 126.956 160.69 128.803 162.089 129.119C162.089 129.119 165.822 132.393 168.908 131.391C171.93 130.411 178.9 131.352 181.188 130.595Z" fill="#933237"/>
<path d="M163.918 133.477C163.918 133.477 166.404 133.208 169.818 132.659C173.256 132.106 180.648 135.116 182.97 134.541C185.292 133.967 184.647 132.414 181.572 131.253C175.841 129.091 173.788 128.045 170.508 127.823C166.681 127.564 164.545 127.74 162.344 128.241C160.261 128.716 159.309 131.84 163.918 133.477ZM146.035 165.004C149.409 156.769 150.915 150.594 152.72 144.895C154.369 139.688 148.493 133.256 141.31 142.894C134.126 152.533 131.194 157.194 131.96 160.131C132.726 163.067 143.233 171.84 146.035 165.004Z" fill="#B15647"/>
<path d="M149.988 145.567C149.988 145.567 155.599 145.515 158.707 143.471C161.816 141.427 166.003 137.549 166.895 135.426C167.786 133.302 165.997 127.714 164.306 126.815C161.583 125.368 159.201 127.896 152.801 130.939C146.756 133.813 146.296 135.607 142.036 141.969C139.035 146.45 149.988 145.567 149.988 145.567Z" fill="#B15647"/>
<path d="M180.122 132.508C175.045 129.907 172.635 129.338 169.645 128.952C166.156 128.501 159.422 130.987 162.102 131.939C162.102 131.939 166.404 133.209 169.818 132.659C172.785 132.182 178.696 134.357 181.752 134.592C181.87 134.138 181.255 133.089 180.122 132.508Z" fill="#933237"/>
<path d="M163.145 134.417C163.145 134.417 165.42 134.277 168.556 133.905C171.715 133.53 178.209 136.908 180.357 136.454C182.504 136 182.029 134.419 179.322 133.105C174.275 130.656 172.487 129.792 169.526 129.406C166.869 129.06 164.289 129.428 162.256 129.815C160.332 130.182 159.079 132.549 163.145 134.417Z" fill="#B15647"/>
<path d="M178.395 133.416C175.376 132.761 171.293 131.592 168.616 131.809C165.938 132.026 159.856 132.708 161.662 133.538C161.662 133.538 165.42 134.277 168.557 133.905C171.652 133.537 177.948 136.773 180.22 136.475C181.405 135.539 181.006 133.983 178.395 133.416Z" fill="#933237"/>
<path d="M161.652 137.628C161.652 137.628 164.089 138.04 167.132 137.177C170.195 136.309 176.913 137.713 178.966 136.925C181.019 136.138 180.374 134.391 177.436 133.78C174.498 133.169 170.96 132.009 168.355 132.211C165.749 132.413 162.798 131.887 160.84 131.887C158.883 131.887 157.353 136.424 161.652 137.628Z" fill="#B15647"/>
<path d="M151.789 143.856C149.732 143.802 150.194 148.483 150.715 151.545C151.365 149.382 151.955 147.344 152.572 145.369C154.456 145.132 156.971 144.612 158.707 143.47C159.966 142.643 161.402 141.514 162.724 140.323L162.725 140.322C162.725 140.322 154.842 143.937 151.789 143.856Z" fill="#933237"/>
<path d="M69.1247 133.319C66.0463 130.177 56.5886 124.86 50.873 131.1C43.3743 139.287 47.071 154.498 53.502 163.036C59.3561 170.808 70.9298 184.94 77.8207 191.973C83.1035 197.364 99.0385 211.09 103.714 214.491C108.389 217.891 114.506 223.772 121.495 219.777C129.099 215.432 124.625 199.576 119.878 193.404C115.131 187.232 111.177 181.835 106.743 177.31C102.309 172.785 85.796 152.727 82.6593 149.285C78.2549 144.451 73.9939 138.288 69.1247 133.319Z" fill="#FADBC2"/>
<path d="M135.029 151.376C135.029 151.376 117.487 177.14 112.294 189.62C107.1 202.1 102.594 215.547 110.944 219.506C118.175 222.934 122.043 221.336 124.879 215.772C127.715 210.207 146.138 165.948 147.445 161.589C147.445 161.589 145.154 161.903 142.366 160.352C138.617 158.265 134.958 152.694 135.029 151.376Z" fill="#FADBC2"/>
<path d="M114.043 186.378C113.965 186.378 113.887 186.361 113.815 186.327C113.743 186.294 113.68 186.245 113.628 186.185C113.193 185.674 70.1515 135.078 67.4066 132.548C67.2983 132.448 67.2333 132.308 67.2259 132.159C67.2186 132.011 67.2694 131.865 67.3673 131.754C67.4651 131.644 67.602 131.578 67.7478 131.57C67.8936 131.563 68.0363 131.614 68.1446 131.714C70.7926 134.156 108.428 178.36 113.865 184.75C117.23 176.617 130.793 156.705 131.39 155.83C131.431 155.768 131.483 155.716 131.544 155.675C131.605 155.634 131.674 155.606 131.745 155.593C131.817 155.579 131.891 155.58 131.962 155.596C132.033 155.611 132.1 155.641 132.16 155.684C132.22 155.726 132.271 155.781 132.31 155.843C132.349 155.906 132.376 155.976 132.388 156.049C132.4 156.123 132.398 156.198 132.382 156.27C132.366 156.343 132.336 156.411 132.293 156.472C132.142 156.693 117.165 178.68 114.561 186.008C114.522 186.116 114.452 186.21 114.359 186.276C114.267 186.342 114.156 186.378 114.043 186.378ZM90.0789 204.548C89.9457 204.548 89.812 204.499 89.7063 204.399C74.9274 190.517 61.1932 173.699 61.0565 173.531C60.9631 173.416 60.9183 173.268 60.9316 173.12C60.945 172.972 61.0156 172.835 61.1279 172.74C61.2401 172.644 61.3848 172.599 61.5302 172.612C61.6755 172.626 61.8096 172.698 61.9029 172.813C62.0394 172.98 75.7281 189.742 90.4518 203.573C90.5335 203.649 90.5906 203.749 90.6156 203.859C90.6407 203.97 90.6325 204.085 90.5922 204.19C90.5519 204.296 90.4813 204.386 90.3897 204.45C90.2982 204.514 90.1898 204.548 90.0789 204.548ZM133.259 197.091C133.168 197.091 133.078 197.068 132.998 197.024C132.918 196.98 132.849 196.916 132.799 196.838C132.749 196.76 132.719 196.671 132.711 196.578C132.703 196.486 132.718 196.392 132.754 196.307C134.749 191.59 144.036 168.957 144.129 168.729C144.186 168.591 144.293 168.482 144.428 168.426C144.563 168.369 144.715 168.37 144.849 168.427C144.984 168.485 145.091 168.595 145.146 168.733C145.202 168.87 145.201 169.025 145.145 169.162C145.051 169.39 135.763 192.029 133.765 196.752C133.722 196.853 133.651 196.939 133.562 196.999C133.472 197.059 133.367 197.091 133.259 197.091Z" fill="#E3B194"/>
</g>
<g clip-path="url(#clip2_940_1653)">
<path d="M197.988 163.042L240.449 108.442C240.879 107.89 241.088 107.194 241.037 106.492C240.985 105.79 240.676 105.134 240.171 104.653L232.171 97.0337C230.993 95.9123 229.125 96.0526 228.122 97.338L182.37 155.98C181.165 157.525 181.86 159.817 183.711 160.404L195.002 163.981C195.534 164.15 196.105 164.15 196.638 163.983C197.171 163.815 197.642 163.487 197.988 163.042Z" fill="url(#paint8_linear_940_1653)"/>
<path d="M182.909 159.997L182.923 160.001L182.898 159.983L182.909 159.997Z" fill="url(#paint9_linear_940_1653)"/>
<path d="M182.369 155.98L228.122 97.3381C228.958 96.266 230.396 95.9938 231.534 96.5829L230.627 95.7177C229.667 94.8025 228.143 94.9164 227.326 95.9643L181.218 155.061C180.56 155.905 180.673 157.375 181.392 158.388C181.918 159.13 182.739 159.862 182.739 159.862C181.386 158.562 181.677 156.868 182.369 155.98Z" fill="url(#paint10_linear_940_1653)"/>
<path d="M240.366 104.638L231.04 95.8017C230.809 95.5792 230.187 95.3078 229.821 95.2225L240.884 105.757C240.884 105.471 240.776 104.975 240.366 104.638Z" fill="url(#paint11_linear_940_1653)"/>
</g>
<g clip-path="url(#clip3_940_1653)">
<path d="M229.349 82.7388L231.459 83.5868C231.623 83.6526 231.798 83.6813 231.974 83.671C232.15 83.6607 232.321 83.6116 232.476 83.5272C232.631 83.4428 232.766 83.325 232.873 83.182C232.979 83.039 233.053 82.8742 233.091 82.6989L244.043 31.5848C244.112 31.2639 244.053 30.9282 243.879 30.6517C243.705 30.3751 243.431 30.1803 243.116 30.1101L238.981 29.1879C238.821 29.1523 238.656 29.15 238.495 29.181C238.335 29.2121 238.182 29.2759 238.046 29.3686C237.91 29.4614 237.794 29.5811 237.705 29.7207C237.615 29.8604 237.555 30.0169 237.526 30.1811L228.599 81.3697C228.55 81.6512 228.598 81.9413 228.735 82.1909C228.871 82.4405 229.089 82.6341 229.349 82.7388Z" fill="url(#paint12_linear_940_1653)"/>
<path d="M231.087 75.5633L235.18 76.9112C235.416 76.9888 235.672 76.9733 235.897 76.8677C236.122 76.7621 236.3 76.5741 236.396 76.3409L241.176 64.6985C241.233 64.5605 241.259 64.4114 241.252 64.262C241.245 64.1126 241.206 63.9666 241.137 63.8345C241.068 63.7025 240.971 63.5878 240.853 63.4987C240.736 63.4096 240.6 63.3483 240.456 63.3192L235.178 62.2556C234.941 62.2077 234.694 62.2504 234.485 62.3757C234.276 62.5009 234.12 62.7 234.045 62.9351L230.45 74.2933C230.41 74.4193 230.395 74.5522 230.405 74.6843C230.416 74.8164 230.452 74.9451 230.511 75.063C230.57 75.181 230.651 75.2859 230.75 75.3717C230.849 75.4576 230.964 75.5227 231.087 75.5633Z" fill="url(#paint13_linear_940_1653)"/>
<path d="M208.392 106.111L211.812 102.669C211.983 102.496 212.107 102.281 212.171 102.044C212.235 101.807 212.238 101.557 212.178 101.319L202.302 62.2236C202.017 61.0956 200.587 60.7918 199.884 61.7094L193.785 69.6731C193.641 69.8618 193.546 70.0851 193.51 70.3218C193.474 70.5584 193.498 70.8006 193.579 71.0251L206.135 105.6C206.482 106.556 207.681 106.828 208.392 106.111Z" fill="url(#paint14_linear_940_1653)"/>
<path d="M204.855 77.6778L212.424 72.2129C212.636 72.06 212.801 71.8493 212.9 71.6049C212.999 71.3605 213.029 71.0925 212.986 70.8317L208.003 40.9289C207.838 39.936 206.732 39.4384 205.902 39.9834L195.98 46.4959C195.736 46.6559 195.548 46.8902 195.443 47.1655C195.337 47.4407 195.32 47.743 195.392 48.0291L202.728 76.8839C202.969 77.8353 204.069 78.2452 204.855 77.6778Z" fill="url(#paint15_linear_940_1653)"/>
<path d="M137.948 86.5152C137.665 86.5151 137.388 86.4258 137.157 86.2595C136.925 86.0931 136.749 85.8579 136.653 85.5858C136.635 85.5403 136.013 83.9903 133.732 82.8888C131.605 81.8613 130.687 80.1069 129.877 78.5589C129.395 77.6373 128.939 76.7666 128.264 76.1089C127.057 74.9324 125.137 75.0753 125.118 75.0767C124.364 75.1385 123.697 74.5679 123.632 73.7988C123.567 73.0297 124.118 72.3513 124.872 72.2803C125 72.2676 128.04 72.0068 130.166 74.0791C131.159 75.0475 131.768 76.2106 132.305 77.2366C133.003 78.5696 133.605 79.7208 134.91 80.3512C138.217 81.9484 139.148 84.366 139.243 84.6364C139.318 84.8484 139.342 85.0755 139.312 85.2987C139.283 85.5218 139.201 85.7345 139.074 85.9187C138.947 86.1029 138.779 86.2533 138.583 86.3571C138.387 86.4609 138.169 86.5152 137.948 86.5152Z" fill="url(#paint16_linear_940_1653)"/>
<path d="M220.667 78.3809C220.338 78.3812 220.019 78.2618 219.768 78.0442C219.67 77.9588 217.361 75.9124 217.763 72.5108C217.942 70.9931 218.507 69.6209 219.052 68.2938C219.771 66.5459 220.392 65.0363 220.074 63.4911C219.294 59.6964 220.8 56.9154 220.864 56.7989C221.044 56.4746 221.342 56.2363 221.694 56.1364C222.045 56.0365 222.422 56.0832 222.74 56.2662C223.057 56.4492 223.291 56.7536 223.389 57.1123C223.487 57.471 223.441 57.8547 223.262 58.179C223.256 58.1899 222.209 60.1948 222.768 62.9152C223.262 65.3163 222.374 67.4753 221.591 69.3799C221.096 70.5823 220.63 71.7181 220.496 72.8469C220.275 74.7215 221.51 75.8675 221.563 75.9155C222.142 76.4178 222.207 77.299 221.714 77.8898C221.585 78.0443 221.425 78.1682 221.244 78.2531C221.063 78.3379 220.866 78.3815 220.667 78.3809Z" fill="url(#paint17_linear_940_1653)"/>
<path d="M148.444 74.5191C151.277 74.5191 153.574 72.1762 153.574 69.2862C153.574 66.3961 151.277 64.0533 148.444 64.0533C145.611 64.0533 143.314 66.3961 143.314 69.2862C143.314 72.1762 145.611 74.5191 148.444 74.5191Z" fill="url(#paint18_linear_940_1653)"/>
<path d="M185.686 113.968C185.474 113.968 185.264 113.918 185.073 113.822C184.883 113.725 184.717 113.585 184.588 113.412C182.702 110.873 180.444 109.165 178.207 108.108C177.51 109.003 176.615 109.792 175.54 110.438C172.666 112.166 168.992 112.55 166.994 111.33C165.935 110.683 165.355 109.61 165.404 108.384C165.476 106.551 166.805 105.087 169.048 104.369C171.239 103.667 174.06 103.712 176.963 104.614C177.112 104.111 177.192 103.553 177.172 102.937C176.949 96.2131 171.753 93.8991 171.532 93.8039C170.835 93.5034 170.503 92.6826 170.794 91.9694C170.933 91.6268 171.2 91.3544 171.535 91.2119C171.871 91.0694 172.248 91.0685 172.585 91.2093C172.873 91.33 179.639 94.2635 179.923 102.843C179.957 103.79 179.824 104.735 179.53 105.635C182.147 106.911 184.698 108.911 186.783 111.716C186.937 111.925 187.032 112.173 187.056 112.433C187.08 112.693 187.032 112.955 186.918 113.189C186.804 113.423 186.629 113.62 186.411 113.757C186.194 113.895 185.943 113.968 185.686 113.968ZM172.331 106.705C171.399 106.705 170.563 106.827 169.872 107.048C169.478 107.174 168.188 107.652 168.154 108.498C168.148 108.651 168.163 108.771 168.408 108.92C169.402 109.527 172.002 109.306 174.143 108.019C174.584 107.755 174.997 107.445 175.376 107.095C174.297 106.827 173.266 106.705 172.331 106.705Z" fill="url(#paint19_linear_940_1653)"/>
<path d="M168.364 81.202L165.241 83.3684C164.988 83.544 164.684 83.6285 164.379 83.6085C164.073 83.5885 163.783 83.4652 163.554 83.258L148.187 69.3617C147.935 69.1343 147.774 68.821 147.733 68.4808C147.693 68.1405 147.775 67.7969 147.966 67.5146L153.336 59.5619C153.885 58.749 155.063 58.7524 155.608 59.5689L168.728 79.2516C168.933 79.5595 169.01 79.938 168.942 80.3037C168.874 80.6695 168.666 80.9926 168.364 81.202Z" fill="url(#paint20_linear_940_1653)"/>
<path d="M218.248 40.0104C217.902 40.01 217.568 39.8766 217.314 39.6368C217.06 39.3969 216.904 39.0682 216.877 38.7162C216.864 38.5427 216.563 34.4144 217.558 29.8604C218.933 23.565 222.132 19.5342 226.809 18.2046C228.262 17.7916 229.532 17.6287 230.612 17.7157C233.078 15.2422 237.133 11.9591 242.226 10.6855C242.578 10.6038 242.948 10.6665 243.255 10.8601C243.562 11.0537 243.783 11.3627 243.869 11.7204C243.954 12.0782 243.899 12.4561 243.715 12.7726C243.53 13.0892 243.231 13.3191 242.882 13.4128C239.478 14.2639 236.156 16.3626 233.433 18.8625C233.498 18.9234 233.561 18.9866 233.622 19.0523C234.771 20.2842 235.028 22.22 234.328 24.3639C233.427 27.121 230.895 30.1907 227.798 30.7233C225.789 31.0693 224.81 29.8812 224.583 28.7592C224.154 26.6436 225.88 23.4645 227.901 20.8149C227.785 20.8444 227.668 20.8761 227.549 20.9101C223.874 21.9549 221.421 25.1521 220.258 30.4125C219.341 34.5629 219.619 38.4604 219.622 38.4994C219.65 38.8706 219.532 39.2378 219.295 39.5205C219.057 39.8032 218.72 39.9782 218.356 40.007C218.32 40.0092 218.284 40.0104 218.248 40.0104ZM231.467 20.8475C230.198 22.2585 229.136 23.7208 228.359 25.1083C227.521 26.6049 227.298 27.5388 227.269 27.9648C227.291 27.962 227.315 27.9583 227.341 27.9538C229.272 27.6217 231.082 25.416 231.716 23.4757C232.079 22.3657 232.046 21.4357 231.628 20.9873C231.579 20.9353 231.525 20.8884 231.467 20.8475Z" fill="url(#paint21_linear_940_1653)"/>
<path d="M162.092 25.079L150.44 34.347C149.668 34.9616 149.754 36.18 150.606 36.6745L158.879 41.4755C159.673 41.9363 160.679 41.4946 160.897 40.5894L164.276 26.5204C164.586 25.2267 163.122 24.2599 162.092 25.079Z" fill="url(#paint22_linear_940_1653)"/>
<path d="M116.771 37.3012L107.024 39.4572C105.772 39.7341 105.537 41.452 106.667 42.0675L114.873 46.54C115.669 46.9738 116.652 46.5217 116.86 45.626L118.402 38.9978C118.636 37.9923 117.761 37.0825 116.771 37.3012Z" fill="url(#paint23_linear_940_1653)"/>
<path d="M173.166 63.9898C172.876 63.9901 172.593 63.8967 172.358 63.723C172.123 63.5493 171.947 63.3042 171.857 63.0226C171.767 62.7411 171.766 62.4377 171.855 62.1557C171.944 61.8738 172.118 61.6277 172.352 61.4528C177.395 57.6873 175.794 55.1877 175.269 54.3661C174.58 53.2901 172.704 52.2079 171.332 52.9618L170.583 53.3732C168.502 54.5177 166.212 54.4722 164.301 53.2482C162.403 52.0324 161.238 49.8424 161.334 47.6694C161.43 45.5056 162.689 43.6857 164.881 42.5426L165.616 42.1388C166.98 41.3899 167.491 39.6493 166.757 38.2585C166.539 37.846 165.892 36.8461 164.59 36.4681C163.449 36.1371 162.156 36.3889 160.746 37.2173C160.429 37.4023 160.054 37.4517 159.702 37.3547C159.35 37.2577 159.05 37.0222 158.868 36.6999C158.686 36.3776 158.637 35.9948 158.732 35.6356C158.826 35.2764 159.056 34.9701 159.372 34.7839C161.961 33.2631 164.048 33.3917 165.343 33.7674C166.971 34.2397 168.37 35.3913 169.181 36.927C170.635 39.6807 169.621 43.1278 166.922 44.6109L166.173 45.0223C166.164 45.0276 166.154 45.0327 166.145 45.0375C164.847 45.7111 164.134 46.665 164.084 47.7957C164.033 48.9579 164.708 50.1934 165.765 50.8702C166.381 51.2644 167.655 51.7929 169.277 50.901L170.026 50.4894C171.31 49.784 172.861 49.7178 174.395 50.3029C175.707 50.8033 176.865 51.7246 177.573 52.831C180.664 57.6598 176.647 61.7249 173.978 63.7183C173.743 63.895 173.458 63.9901 173.166 63.9898Z" fill="url(#paint24_linear_940_1653)"/>
<path d="M156.777 114.839L155.15 120.198C154.896 121.033 153.965 121.431 153.204 121.03L130.758 109.22C130.595 109.135 130.451 109.017 130.333 108.873C130.216 108.73 130.127 108.564 130.073 108.385C130.02 108.206 130.001 108.018 130.02 107.832C130.038 107.646 130.093 107.465 130.18 107.301L134.665 98.9026C134.759 98.7261 134.89 98.5723 135.047 98.4516C135.205 98.331 135.386 98.2462 135.578 98.203C135.771 98.1599 135.97 98.1594 136.163 98.2015C136.355 98.2437 136.537 98.3275 136.695 98.4474L156.283 113.297C156.512 113.47 156.682 113.712 156.771 113.988C156.859 114.264 156.861 114.562 156.777 114.839Z" fill="url(#paint25_linear_940_1653)"/>
<path d="M151.744 106.369L152.308 110.478C152.464 111.616 151.288 112.453 150.295 111.91L128.001 99.7233C127.165 99.2662 127.022 98.1031 127.723 97.4497L132.106 93.3605C132.336 93.1463 132.63 93.0178 132.94 92.9959C133.25 92.974 133.559 93.0599 133.815 93.2397L151.161 105.407C151.318 105.517 151.452 105.66 151.552 105.826C151.652 105.991 151.718 106.176 151.744 106.369Z" fill="url(#paint26_linear_940_1653)"/>
<path d="M185.945 27.2757L184.542 29.266C183.876 30.21 182.438 29.9669 182.107 28.8543L176.69 10.6621C176.635 10.4747 176.618 10.2774 176.641 10.083C176.665 9.88851 176.728 9.70122 176.826 9.53312C176.925 9.36503 177.057 9.21984 177.214 9.10691C177.371 8.99398 177.549 8.9158 177.738 8.87739L181.243 8.16277C181.601 8.08978 181.973 8.16484 182.276 8.37142C182.58 8.57801 182.791 8.89919 182.862 9.26433L186.177 26.1809C186.214 26.3699 186.212 26.5646 186.172 26.753C186.132 26.9413 186.055 27.1193 185.945 27.2757Z" fill="url(#paint27_linear_940_1653)"/>
</g>
<g clip-path="url(#clip4_940_1653)">
<path d="M216.788 139.692C216.788 139.692 215.714 134.462 216.765 131.461C217.817 128.46 219.584 127.494 220.303 133.048C221.021 138.602 222.786 141.885 221.026 144.548C219.266 147.211 216.306 146.125 215.913 145.852C215.519 145.579 217.379 141.989 216.788 139.692Z" fill="#B15647"/>
<path d="M218.318 135.755C218.003 133.062 217.485 131.631 216.896 131.11C216.851 131.224 216.808 131.34 216.765 131.461C215.713 134.462 216.788 139.692 216.788 139.692C217.379 141.989 215.519 145.579 215.912 145.852C216.233 146.074 218.26 146.837 219.952 145.667C219.787 143.11 218.812 139.971 218.318 135.755Z" fill="#933237"/>
<path d="M213.879 144.48C213.879 144.48 212.804 138.607 213.95 135.217C215.097 131.827 216.976 130.72 217.671 136.962C218.367 143.204 220.194 146.878 218.303 149.896C216.411 152.914 213.295 151.725 212.882 151.423C212.469 151.12 214.477 147.059 213.879 144.48Z" fill="#B15647"/>
<path d="M213.561 136.972C213.116 140.312 213.879 144.48 213.879 144.48C214.477 147.059 212.469 151.12 212.882 151.423C213.207 151.661 215.209 152.447 216.969 151.296C218.303 149.896 215.635 144.761 214.509 139.574C214.22 138.247 213.561 136.972 213.561 136.972Z" fill="#933237"/>
<path d="M210.686 148.144C210.686 148.144 209.052 143.562 209.963 140.338C210.875 137.114 212.72 135.98 213.928 141.767C215.137 147.554 217.371 150.044 215.663 152.96C213.956 155.877 210.657 154.935 210.208 154.675C209.76 154.415 211.505 150.518 210.686 148.144Z" fill="#B15647"/>
<path d="M211.287 144.439C210.923 143.265 209.79 141.143 209.79 141.143C209.186 143.989 210.686 148.144 210.686 148.144C211.505 150.518 209.76 154.415 210.208 154.675C210.534 154.864 212.36 155.41 213.99 154.582C215.148 153.564 212.671 148.91 211.287 144.439Z" fill="#933237"/>
<path d="M208.228 152.544C208.228 152.544 206.768 148.976 207.327 145.928C207.885 142.881 209.506 141.673 211.161 146.888C212.816 152.103 214.578 153.66 213.316 156.528C212.598 158.162 209.07 158.76 207.869 158.778C207.384 158.785 209.209 154.654 208.228 152.544Z" fill="#B15647"/>
</g>
</g>
<defs>
<linearGradient id="paint0_linear_940_1653" x1="93.2797" y1="529.263" x2="115.327" y2="478.714" gradientUnits="userSpaceOnUse">
<stop offset="0.013" stop-color="#A599CA"/>
<stop offset="1" stop-color="#7770B1"/>
</linearGradient>
<linearGradient id="paint1_linear_940_1653" x1="96.9618" y1="471.8" x2="185.225" y2="471.8" gradientUnits="userSpaceOnUse">
<stop offset="0.013" stop-color="#EAB2D2"/>
<stop offset="1" stop-color="#E499C2"/>
</linearGradient>
<linearGradient id="paint2_linear_940_1653" x1="135.686" y1="492.587" x2="166.25" y2="557.866" gradientUnits="userSpaceOnUse">
<stop offset="0.013" stop-color="#A49ACB"/>
<stop offset="1" stop-color="#7770B1"/>
</linearGradient>
<linearGradient id="paint3_linear_940_1653" x1="117.353" y1="157.7" x2="47.2314" y2="188.029" gradientUnits="userSpaceOnUse">
<stop offset="0.013" stop-color="#FADBC2"/>
<stop offset="1" stop-color="#F3CAAD"/>
</linearGradient>
<linearGradient id="paint4_linear_940_1653" x1="96.4486" y1="138.477" x2="93.1586" y2="129.311" gradientUnits="userSpaceOnUse">
<stop offset="0.013" stop-color="#FADBC2"/>
<stop offset="1" stop-color="#F3CAAD"/>
</linearGradient>
<linearGradient id="paint5_linear_940_1653" x1="91.7302" y1="145.144" x2="74.1333" y2="128.754" gradientUnits="userSpaceOnUse">
<stop offset="0.013" stop-color="#FADBC2"/>
<stop offset="1" stop-color="#F3CAAD"/>
</linearGradient>
<linearGradient id="paint6_linear_940_1653" x1="384.785" y1="244.265" x2="131.854" y2="291.7" gradientUnits="userSpaceOnUse">
<stop stop-color="#7670B0"/>
<stop offset="1" stop-color="#1E1E1E"/>
</linearGradient>
<linearGradient id="paint7_linear_940_1653" x1="33.1137" y1="125.562" x2="85.2629" y2="112.39" gradientUnits="userSpaceOnUse">
<stop offset="0.013" stop-color="#EAB2D2"/>
<stop offset="1" stop-color="#E499C2"/>
</linearGradient>
<linearGradient id="paint8_linear_940_1653" x1="233.571" y1="84.0532" x2="243.343" y2="144.264" gradientUnits="userSpaceOnUse">
<stop offset="0.013" stop-color="#A49ACB" stop-opacity="0.35"/>
<stop offset="0.908" stop-color="#7670B0"/>
</linearGradient>
<linearGradient id="paint9_linear_940_1653" x1="182.919" y1="159.987" x2="182.906" y2="159.994" gradientUnits="userSpaceOnUse">
<stop offset="0.013" stop-color="#A49ACB" stop-opacity="0.35"/>
<stop offset="0.908" stop-color="#7670B0"/>
</linearGradient>
<linearGradient id="paint10_linear_940_1653" x1="255.202" y1="148.174" x2="188.645" y2="121.023" gradientUnits="userSpaceOnUse">
<stop offset="0.013" stop-color="#A49ACB" stop-opacity="0.35"/>
<stop offset="0.908" stop-color="#7670B0"/>
</linearGradient>
<linearGradient id="paint11_linear_940_1653" x1="238.687" y1="98.7979" x2="243.429" y2="96.4708" gradientUnits="userSpaceOnUse">
<stop offset="0.013" stop-color="#A49ACB" stop-opacity="0.35"/>
<stop offset="0.908" stop-color="#7670B0"/>
</linearGradient>
<linearGradient id="paint12_linear_940_1653" x1="234.126" y1="59.034" x2="256.252" y2="12.159" gradientUnits="userSpaceOnUse">
<stop offset="0.013" stop-color="#A49ACB" stop-opacity="0.35"/>
<stop offset="0.854" stop-color="#A599CA"/>
</linearGradient>
<linearGradient id="paint13_linear_940_1653" x1="230.402" y1="69.5984" x2="241.253" y2="69.5984" gradientUnits="userSpaceOnUse">
<stop offset="0.013" stop-color="#BF78A9" stop-opacity="0.35"/>
<stop offset="1" stop-color="#DB9DC6"/>
</linearGradient>
<linearGradient id="paint14_linear_940_1653" x1="193.493" y1="83.8429" x2="212.221" y2="83.8429" gradientUnits="userSpaceOnUse">
<stop offset="0.013" stop-color="#EAB2D2"/>
<stop offset="1" stop-color="#E499C2"/>
</linearGradient>
<linearGradient id="paint15_linear_940_1653" x1="197.009" y1="45.5909" x2="248.926" y2="124.859" gradientUnits="userSpaceOnUse">
<stop offset="0.013" stop-color="#FDEDE6"/>
<stop offset="1" stop-color="#E499C2"/>
</linearGradient>
<linearGradient id="paint16_linear_940_1653" x1="124.076" y1="79.9482" x2="138.74" y2="78.7361" gradientUnits="userSpaceOnUse">
<stop offset="0.013" stop-color="#FDEDE6"/>
<stop offset="1" stop-color="#E499C2"/>
</linearGradient>
<linearGradient id="paint17_linear_940_1653" x1="218.676" y1="66.7757" x2="223.582" y2="67.5743" gradientUnits="userSpaceOnUse">
<stop offset="0.013" stop-color="#FDEDE6"/>
<stop offset="1" stop-color="#E499C2"/>
</linearGradient>
<linearGradient id="paint18_linear_940_1653" x1="143.313" y1="69.2862" x2="153.575" y2="69.2862" gradientUnits="userSpaceOnUse">
<stop offset="0.013" stop-color="#A49ACB" stop-opacity="0.35"/>
<stop offset="0.854" stop-color="#A599CA"/>
</linearGradient>
<linearGradient id="paint19_linear_940_1653" x1="165.401" y1="102.536" x2="187.062" y2="102.536" gradientUnits="userSpaceOnUse">
<stop offset="0.013" stop-color="#BF78A9" stop-opacity="0.35"/>
<stop offset="1" stop-color="#DB9DC6"/>
</linearGradient>
<linearGradient id="paint20_linear_940_1653" x1="157.182" y1="70.2097" x2="188.134" y2="102.587" gradientUnits="userSpaceOnUse">
<stop offset="0.013" stop-color="#FDEDE6"/>
<stop offset="1" stop-color="#E499C2"/>
</linearGradient>
<linearGradient id="paint21_linear_940_1653" x1="215.353" y1="27.3962" x2="245.433" y2="23.3965" gradientUnits="userSpaceOnUse">
<stop offset="0.013" stop-color="#FDEDE6"/>
<stop offset="1" stop-color="#E499C2"/>
</linearGradient>
<linearGradient id="paint22_linear_940_1653" x1="157.775" y1="39.7499" x2="159.552" y2="62.6192" gradientUnits="userSpaceOnUse">
<stop offset="0.013" stop-color="#EAB2D2"/>
<stop offset="1" stop-color="#E499C2"/>
</linearGradient>
<linearGradient id="paint23_linear_940_1653" x1="110.568" y1="37.0544" x2="116.501" y2="46.3061" gradientUnits="userSpaceOnUse">
<stop offset="0.013" stop-color="#A49ACB" stop-opacity="0.35"/>
<stop offset="0.854" stop-color="#A599CA"/>
</linearGradient>
<linearGradient id="paint24_linear_940_1653" x1="157.97" y1="48.1143" x2="179.113" y2="49.3539" gradientUnits="userSpaceOnUse">
<stop offset="0.013" stop-color="#A49ACB" stop-opacity="0.35"/>
<stop offset="0.854" stop-color="#A599CA"/>
</linearGradient>
<linearGradient id="paint25_linear_940_1653" x1="137.633" y1="113.657" x2="160.947" y2="101.249" gradientUnits="userSpaceOnUse">
<stop offset="0.088" stop-color="#EAB2D2"/>
<stop offset="0.827" stop-color="#E499C2"/>
</linearGradient>
<linearGradient id="paint26_linear_940_1653" x1="128.08" y1="104.527" x2="151.047" y2="101.376" gradientUnits="userSpaceOnUse">
<stop offset="0.013" stop-color="#A49ACB" stop-opacity="0.35"/>
<stop offset="0.854" stop-color="#A599CA"/>
</linearGradient>
<linearGradient id="paint27_linear_940_1653" x1="180.808" y1="19.814" x2="170.476" y2="43.3255" gradientUnits="userSpaceOnUse">
<stop offset="0.013" stop-color="#FDEDE6"/>
<stop offset="1" stop-color="#E499C2"/>
</linearGradient>
<clipPath id="clip0_940_1653">
<rect width="275" height="533" fill="white"/>
</clipPath>
<clipPath id="clip1_940_1653">
<rect width="197.018" height="453.611" fill="white" transform="translate(30.8185 82.1942)"/>
</clipPath>
<clipPath id="clip2_940_1653">
<rect width="60.2612" height="69.0095" fill="white" transform="translate(180.783 95.0984)"/>
</clipPath>
<clipPath id="clip3_940_1653">
<rect width="138.133" height="113.052" fill="white" transform="translate(105.939 8.13525)"/>
</clipPath>
<clipPath id="clip4_940_1653">
<rect width="14.5837" height="29.7358" fill="white" transform="translate(207.199 129.042)"/>
</clipPath>
</defs>
</svg>
