<svg width="687" height="624" viewBox="0 0 687 624" fill="none" xmlns="http://www.w3.org/2000/svg">
<g clip-path="url(#clip0_940_1451)">
<path d="M156.2 581.313V348.338H165.213V581.313H156.2Z" fill="#E087B7"/>
<path d="M250.905 526.87H112.73C111.866 526.87 111.167 527.569 111.167 528.431V533.892C111.167 534.754 111.866 535.453 112.73 535.453H250.905C251.768 535.453 252.468 534.754 252.468 533.892V528.431C252.468 527.569 251.768 526.87 250.905 526.87Z" fill="url(#paint0_linear_940_1451)"/>
<path d="M250.905 393.778H112.73C111.866 393.778 111.167 394.477 111.167 395.339V400.801C111.167 401.663 111.866 402.362 112.73 402.362H250.905C251.768 402.362 252.468 401.663 252.468 400.801V395.339C252.468 394.477 251.768 393.778 250.905 393.778Z" fill="url(#paint1_linear_940_1451)"/>
<path d="M273.549 335.746H90.5612C89.6977 335.746 88.9977 336.445 88.9977 337.307V348.456C88.9977 349.318 89.6977 350.017 90.5612 350.017H273.549C274.412 350.017 275.112 349.318 275.112 348.456V337.307C275.112 336.445 274.412 335.746 273.549 335.746Z" fill="#E087B7"/>
<path d="M248.158 581.938V348.963H257.171V581.938H248.158ZM106.938 581.684V348.708H115.952V581.684H106.938Z" fill="#EAB2D2"/>
</g>
<g clip-path="url(#clip1_940_1451)">
<path d="M383.159 350.099H545.588V581.938H383.159V350.099Z" fill="#7770B1"/>
<path d="M540.295 350.099H643.906V581.938H540.295V350.099Z" fill="#A49ACB"/>
<path opacity="0.8" d="M383.159 350.099H490.788V581.938H383.159V350.099Z" fill="url(#paint2_linear_940_1451)"/>
<path opacity="0.8" d="M490.788 350.099H643.906V581.938H490.788V350.099Z" fill="url(#paint3_linear_940_1451)"/>
</g>
<g clip-path="url(#clip2_940_1451)">
<path d="M366.03 235.028C366.03 235.028 346.589 225.15 338.777 225.731C330.965 226.313 333.401 247.985 333.401 247.985C333.401 247.985 355.589 255.029 360.952 253.359C366.315 251.689 366.03 235.028 366.03 235.028Z" fill="#ED998E"/>
<path d="M319.013 233.498C319.013 233.498 319.972 230.494 321.492 229.071C323.011 227.649 334.963 225.381 339.829 225.776C344.696 226.171 340.225 230.658 340.225 230.658L319.013 233.498Z" fill="#ED998E"/>
<path d="M315.276 237.625C315.276 237.625 315.286 233.83 317.644 231.947C319.394 230.55 332.527 228.325 337.949 228.877C343.37 229.428 338.516 234.139 338.516 234.139L315.276 237.625Z" fill="#ED998E"/>
<path d="M312.974 243.632C312.974 243.632 311.712 239.273 314.164 237.337C316.059 235.839 329.734 233.129 335.365 233.6C340.995 234.07 335.839 239.225 335.839 239.225L312.974 243.632Z" fill="#ED998E"/>
<path d="M311.4 251.482C311.134 249.548 311.639 243.129 314.091 241.193C315.986 239.695 329.661 236.985 335.292 237.455C340.922 237.926 336.9 248.036 336.9 248.036C336.9 248.036 331.752 246.534 326.413 246.377C324.754 246.328 321.616 246.33 318.892 247.524C318.401 247.74 317.274 250.851 314.909 252.243C313.698 252.956 311.556 252.628 311.399 251.482H311.4Z" fill="#ED998E"/>
<path d="M360.924 252.815C357.781 255.488 341.99 254.607 339.708 254.314C337.425 254.022 334.893 253.815 330.05 253.748C323.982 253.665 321.413 253.396 322.231 250.689C322.907 248.449 331.198 246.489 333.182 246.367C335.166 246.245 339.526 243.878 339.526 243.878L360.924 252.815Z" fill="#ED998E"/>
<path d="M312.921 242.662C313.241 241.951 313.86 241.374 314.091 241.192C315.678 239.938 324.004 237.802 329.976 237.418C330.501 237.384 330.456 236.686 329.922 236.584C327.289 236.083 323.094 236.707 318.992 237.76C315.92 238.549 314.025 239.111 312.623 240.034C312.53 241.031 312.657 242.001 312.921 242.662ZM315.751 234.883C315.429 235.684 315.429 236.138 315.343 236.744C319.248 235.744 327.914 234.462 332.452 233.93C332.974 233.868 332.875 233.157 332.335 233.097C329.031 232.732 322.997 233.484 315.751 234.883ZM320.18 231.163C323.203 230.361 329.072 229.545 333.408 228.794C333.85 228.718 333.698 228.101 333.239 228.108C329.497 228.162 324.531 229.039 323.285 229.155C322.648 229.215 321.737 229.325 320.903 229.712C320.589 230.168 320.307 230.558 320.18 231.163Z" fill="#E58076"/>
<path d="M460.896 157.411C460.896 157.411 457.918 157.479 450.633 169.505C443.348 181.53 428.389 204.126 421.212 222.134C421.212 222.134 385.762 220.795 363.044 227.169C357.709 228.665 359.274 256.482 359.274 256.482C359.274 256.482 425.698 257.144 443.266 257.144C460.835 257.144 468.416 263.226 476.791 240.574C485.165 217.923 478.935 156.719 460.896 157.411Z" fill="url(#paint4_linear_940_1451)"/>
<path d="M440.888 231.175C440.762 231.175 440.638 231.144 440.527 231.086C440.38 231.01 425.849 223.503 421.452 222.939C421.245 222.912 421.057 222.805 420.93 222.64C420.802 222.475 420.746 222.266 420.772 222.059C420.785 221.957 420.818 221.858 420.87 221.768C420.921 221.679 420.99 221.6 421.071 221.537C421.153 221.474 421.246 221.428 421.346 221.401C421.446 221.374 421.55 221.367 421.652 221.38C426.324 221.979 440.643 229.376 441.251 229.69C441.408 229.771 441.532 229.903 441.605 230.063C441.678 230.223 441.695 230.404 441.653 230.575C441.612 230.746 441.513 230.898 441.375 231.007C441.236 231.116 441.065 231.174 440.888 231.174L440.888 231.175ZM443.65 225.81C443.504 225.81 443.355 225.769 443.223 225.684C438.905 222.886 430.983 221.49 430.904 221.476C430.698 221.44 430.515 221.325 430.395 221.154C430.275 220.984 430.227 220.773 430.263 220.567C430.298 220.362 430.414 220.179 430.585 220.059C430.755 219.939 430.966 219.891 431.172 219.927C431.51 219.985 439.49 221.391 444.079 224.365C444.222 224.457 444.33 224.593 444.389 224.752C444.448 224.911 444.454 225.085 444.405 225.248C444.357 225.41 444.258 225.553 444.121 225.654C443.985 225.756 443.82 225.81 443.65 225.81Z" fill="#E3B194"/>
<path d="M465.041 123.358L492.901 153.02L510.808 134.957L481.686 105.302L465.041 123.358Z" fill="#ED998E"/>
<path d="M478.917 138.131C483.915 130.63 487.217 119.576 488.93 112.679L481.686 105.302L465.041 123.357L478.917 138.131Z" fill="#E58076"/>
<path d="M563.576 243.43C563.576 243.43 579.755 301.864 579.755 316.268C579.755 330.672 579.833 351.573 559.131 351.854C541.551 352.092 462.826 351.755 443.746 351.731C443.746 351.731 437.616 373.394 427.212 392.659C416.807 411.924 400.068 439.316 399.131 450.271C398.194 461.225 361.596 438.935 361.596 438.935L389.122 346.254L408.862 285.82L509.193 271.58L546.552 271.195L563.576 243.431V243.43Z" fill="url(#paint5_linear_940_1451)"/>
<path d="M443.71 351.144C443.59 351.144 443.471 351.117 443.363 351.064C443.255 351.011 443.161 350.935 443.087 350.84C443.014 350.745 442.963 350.634 442.939 350.517C442.914 350.399 442.917 350.278 442.948 350.162C444.111 345.661 443.45 337.562 443.443 337.481C443.431 337.276 443.5 337.074 443.634 336.919C443.769 336.764 443.959 336.668 444.163 336.651C444.368 336.633 444.571 336.697 444.73 336.827C444.888 336.958 444.989 337.145 445.011 337.349C445.04 337.692 445.701 345.794 444.471 350.555C444.427 350.723 444.329 350.872 444.191 350.979C444.054 351.086 443.885 351.144 443.71 351.144H443.71Z" fill="#616759"/>
<path d="M360.669 448.613C359.174 452.14 322.509 495.877 322.509 495.877C322.509 495.877 316.454 517.401 327.373 522.525C338.293 527.648 348.689 529.948 360.484 518.163C372.279 506.377 392.829 485.185 399.853 475.081C401.241 473.083 400.322 456.782 400.322 456.782C400.322 456.782 362.163 445.087 360.669 448.613H360.669Z" fill="#7770B1"/>
<path d="M429.5 389.103C429.5 389.103 421.393 391.231 408.595 387.114C391.458 381.6 385.348 374.561 382.987 366.908C380.627 359.255 362.163 434.318 360.669 437.845C359.175 441.371 333.076 478.902 327.658 486.462C322.24 494.022 316.454 506.633 327.374 511.757C338.293 516.88 348.69 519.18 360.484 507.394C372.279 495.608 392.829 474.417 399.853 464.313C401.242 462.315 399.259 451.092 400.008 446.013C400.757 440.935 425.181 397.75 429.5 389.103Z" fill="url(#paint6_linear_940_1451)"/>
<path d="M484.235 252.31C484.235 252.31 476.425 256.878 472.606 265.66C472.606 265.66 430.35 248.25 413.204 249.232C396.058 250.213 378.517 251.8 370.95 276.2C363.383 300.601 354.184 338.005 350.631 349.464C347.077 360.923 345.568 383.428 345.568 383.428L384.399 384.661C384.399 384.661 401.772 362.185 408.61 343.981C419.158 315.9 420.793 296.52 420.793 296.52C420.793 296.52 457.517 288.259 472.852 286.504C495.648 283.894 519.387 280.41 530.908 284.272C542.429 288.135 565.172 300.337 565.172 300.337L556.561 241.42L484.235 252.309V252.31Z" fill="url(#paint7_linear_940_1451)"/>
<path d="M496.214 276.85C496.103 276.85 495.993 276.827 495.892 276.782C495.791 276.737 495.7 276.671 495.626 276.588C495.552 276.506 495.497 276.408 495.463 276.303C495.43 276.197 495.419 276.086 495.431 275.976C495.832 272.446 497.709 268.39 501.011 263.923C503.445 260.628 505.731 258.381 505.827 258.287C505.976 258.141 506.177 258.06 506.385 258.062C506.594 258.064 506.793 258.149 506.939 258.298C507.085 258.447 507.166 258.648 507.164 258.856C507.162 259.065 507.077 259.264 506.928 259.41C506.837 259.498 497.881 268.351 496.994 276.153C496.972 276.345 496.881 276.522 496.737 276.651C496.593 276.779 496.407 276.85 496.214 276.851V276.85ZM401.48 360.225C401.353 360.225 401.227 360.194 401.115 360.135C401.002 360.076 400.906 359.991 400.833 359.886C400.761 359.782 400.715 359.661 400.699 359.535C400.684 359.409 400.699 359.281 400.744 359.162C401.077 358.277 401.923 356.202 403.093 353.33C406.541 344.872 412.312 330.716 414.342 324.023C416.994 315.278 419.079 303.812 420.058 296.65C420.819 291.08 420.571 283.503 420.568 283.427C420.561 283.219 420.637 283.016 420.779 282.864C420.922 282.711 421.119 282.622 421.327 282.615C421.536 282.608 421.738 282.684 421.89 282.827C422.043 282.969 422.132 283.165 422.14 283.373C422.151 283.688 422.396 291.158 421.616 296.863C420.629 304.082 418.526 315.645 415.848 324.478C413.796 331.242 408.008 345.44 404.55 353.923C403.428 356.676 402.541 358.85 402.216 359.715C402.16 359.865 402.059 359.994 401.927 360.085C401.796 360.176 401.64 360.225 401.479 360.225H401.48ZM488.643 274.401C488.514 274.401 488.384 274.37 488.264 274.303C488.162 274.248 478.041 268.685 472.272 266.348C472.081 266.267 471.93 266.116 471.851 265.925C471.772 265.734 471.771 265.52 471.848 265.328C471.926 265.137 472.076 264.983 472.266 264.902C472.456 264.82 472.67 264.816 472.863 264.891C478.718 267.263 488.921 272.871 489.023 272.927C489.176 273.011 489.296 273.144 489.366 273.304C489.435 273.464 489.449 273.643 489.405 273.812C489.362 273.981 489.263 274.13 489.125 274.237C488.987 274.344 488.817 274.402 488.643 274.401Z" fill="#616759"/>
<path d="M488.715 274.473C488.591 274.473 488.468 274.444 488.357 274.387C488.246 274.331 488.15 274.248 488.078 274.148C488.005 274.047 487.957 273.93 487.938 273.807C487.919 273.684 487.929 273.558 487.969 273.44C490.978 264.376 498.441 256.877 498.757 256.563C498.906 256.42 499.105 256.341 499.311 256.343C499.517 256.345 499.714 256.428 499.86 256.574C500.006 256.72 500.088 256.917 500.089 257.123C500.091 257.329 500.011 257.528 499.868 257.676C499.793 257.75 492.351 265.233 489.462 273.935C489.41 274.091 489.31 274.228 489.176 274.324C489.041 274.421 488.88 274.473 488.715 274.473L488.715 274.473ZM564.569 304.433C564.548 304.433 564.527 304.432 564.506 304.43C557.7 303.89 552.438 301.217 548.864 296.487C540.708 285.689 544.128 268.109 544.278 267.366C544.324 267.166 544.446 266.993 544.618 266.882C544.79 266.771 544.999 266.731 545.199 266.772C545.4 266.812 545.577 266.929 545.693 267.098C545.809 267.266 545.854 267.474 545.82 267.675C545.785 267.851 542.393 285.315 550.123 295.544C553.414 299.897 558.295 302.36 564.63 302.863C564.833 302.879 565.021 302.973 565.156 303.125C565.291 303.277 565.362 303.474 565.354 303.677C565.346 303.88 565.26 304.072 565.113 304.212C564.967 304.353 564.772 304.432 564.569 304.433Z" fill="#616759"/>
<path d="M343.828 390.483C341.32 406.846 319.709 447.207 319.709 447.207C319.709 447.207 313.801 463.684 327.873 470.15C339.054 475.287 351.304 480.987 364.629 463.906C377.954 446.825 392.005 420.141 392.3 414.32C392.638 407.659 392.567 406.627 391.671 403.313C391.529 402.787 346.336 374.121 343.828 390.483L343.828 390.483Z" fill="#7770B1"/>
<path d="M401.48 359.439C401.48 359.439 398.98 344.816 386.858 336.166C371.839 325.448 357.04 326.547 354.899 331.783C354.899 331.783 346.336 363.114 343.828 379.477C341.32 395.839 328.089 426.899 324.402 435.833C320.715 444.766 314.359 451.582 327.873 459.143C337.942 464.777 351.089 469.382 363.371 454.471C377.144 437.749 391.981 409.134 391.671 403.314C391.361 397.494 387.448 391.138 386.552 387.824C386.409 387.299 399.413 366.834 401.48 359.439Z" fill="#A49ACB"/>
<path d="M420.837 297.543C420.644 297.543 420.458 297.472 420.314 297.343C420.17 297.215 420.078 297.039 420.056 296.847C420.034 296.656 420.083 296.463 420.194 296.305C420.304 296.148 420.469 296.036 420.657 295.992C420.989 295.914 454.008 288.146 467.199 286.489C481.391 284.707 514.106 281.73 524.97 282.218C525.178 282.227 525.375 282.319 525.515 282.473C525.656 282.627 525.73 282.83 525.721 283.038C525.701 283.472 525.33 283.802 524.9 283.788C514.116 283.304 481.541 286.272 467.396 288.049C454.287 289.695 421.349 297.444 421.018 297.522C420.959 297.536 420.898 297.543 420.837 297.543H420.837Z" fill="#616759"/>
<path d="M391.48 408.623C391.371 408.623 391.264 408.601 391.164 408.557C391.064 408.513 390.974 408.449 390.901 408.369C390.827 408.289 390.771 408.194 390.735 408.091C390.7 407.988 390.687 407.879 390.696 407.77C391.189 401.985 388.695 395.661 387.045 391.476C386.475 390.031 386.025 388.891 385.792 388.029C385.667 387.567 385.663 387.549 388.783 382.224C392.724 375.499 399.32 364.245 400.722 359.228C400.75 359.128 400.797 359.035 400.861 358.954C400.925 358.873 401.004 358.805 401.094 358.754C401.184 358.704 401.283 358.671 401.385 358.659C401.488 358.646 401.592 358.654 401.691 358.682C401.791 358.71 401.884 358.757 401.965 358.821C402.047 358.884 402.114 358.963 402.165 359.053C402.216 359.143 402.248 359.242 402.261 359.345C402.273 359.447 402.265 359.551 402.237 359.65C400.78 364.864 394.12 376.228 390.141 383.018C388.881 385.168 387.684 387.21 387.376 387.848C387.607 388.615 388.028 389.682 388.508 390.9C390.212 395.221 392.788 401.752 392.263 407.904C392.246 408.1 392.157 408.283 392.012 408.416C391.867 408.549 391.677 408.623 391.48 408.623Z" fill="#7670B0"/>
<path d="M500.782 126.427L478.646 141.834C477.207 142.835 476.865 144.819 477.886 146.244L479.619 148.661C479.619 148.661 463.178 156.278 457.612 159.352C455.984 160.251 462.414 174.997 463.332 182.365C463.84 186.442 462.748 197.865 461.858 204.484C460.243 216.501 464.224 228.978 475.608 232.641C475.608 232.641 476.839 248.539 482.231 252.419C487.624 256.299 507.769 261.812 524.37 260.163C543.777 258.235 553.109 247.257 553.109 247.257C553.109 247.257 570.084 155.587 562.975 148.483C552.375 137.891 530.207 140.179 513.452 138.03L505.079 127.097C504.587 126.454 503.865 126.025 503.065 125.901C502.264 125.776 501.447 125.965 500.782 126.427Z" fill="url(#paint8_linear_940_1451)"/>
<path d="M510.36 235.715C510.186 235.715 510.018 235.657 509.881 235.552C502.147 229.608 488.097 225.121 487.956 225.076C487.76 225.011 487.597 224.871 487.504 224.687C487.41 224.503 487.392 224.29 487.454 224.093C487.517 223.896 487.654 223.732 487.837 223.635C488.02 223.539 488.233 223.518 488.431 223.578C489.018 223.763 502.884 228.192 510.84 234.306C510.97 234.406 511.066 234.544 511.113 234.701C511.161 234.859 511.158 235.027 511.105 235.182C511.052 235.338 510.952 235.473 510.818 235.568C510.684 235.664 510.524 235.715 510.36 235.715V235.715ZM476.79 241.36C476.615 241.36 476.445 241.301 476.306 241.194C476.168 241.086 476.07 240.935 476.028 240.765C475.974 240.551 474.809 235.869 474.801 233.188C472.437 232.285 463.636 228.259 461.707 217.783C459.79 207.37 460.913 197.517 461.516 192.223C461.587 191.603 461.649 191.051 461.699 190.574C462.431 183.437 460.622 171.851 456.86 159.582C456.799 159.382 456.819 159.167 456.917 158.983C457.015 158.799 457.182 158.661 457.382 158.6C457.581 158.539 457.797 158.559 457.981 158.657C458.165 158.755 458.303 158.922 458.364 159.121C462.185 171.581 464.017 183.399 463.263 190.734C463.214 191.216 463.151 191.774 463.079 192.4C462.485 197.613 461.38 207.316 463.255 217.499C465.266 228.42 475.74 231.858 475.845 231.891C476.015 231.945 476.162 232.055 476.261 232.204C476.361 232.352 476.407 232.53 476.392 232.708C476.2 234.945 477.54 240.329 477.554 240.383C477.583 240.499 477.585 240.62 477.561 240.737C477.536 240.854 477.485 240.964 477.411 241.058C477.337 241.152 477.243 241.228 477.136 241.281C477.028 241.333 476.91 241.36 476.79 241.36L476.79 241.36Z" fill="#E3B194"/>
<path d="M585.145 339.683C585.145 339.683 581.68 345.998 580.025 350.056C578.369 354.115 580.922 360.891 583.321 364.074C585.72 367.256 590.448 367.105 591.598 362.882C592.748 358.66 590.314 355.082 590.897 353.841C591.479 352.601 602.751 352.019 602.751 352.019L622.601 346.762L608.713 330.011L585.145 339.684L585.145 339.683Z" fill="#ED998E"/>
<path d="M623.938 357.641C623.938 357.641 627.492 359.411 629.037 355.169C630.581 350.926 630.311 347.714 630.386 345.654C630.461 343.594 627.655 340.846 624.463 338.462C621.271 336.078 612.185 329.007 608.494 327.674C604.802 326.341 600.696 327.599 600.696 327.599L623.938 357.641Z" fill="#ED998E"/>
<path d="M623.723 344.221C621.909 341.599 619.281 338.363 616.172 341.642L623.939 357.641C623.939 357.641 624.769 358.053 625.8 358.002C625.829 357.849 625.854 357.694 625.87 357.536C626.743 349.104 625.854 347.304 623.723 344.221Z" fill="#E58076"/>
<path d="M610.418 345.294C610.418 345.294 612.444 359.093 615.378 362.057C618.311 365.021 624.295 362.718 624.82 358.007C625.344 353.297 622.455 345.7 620.878 342.534C618.645 338.049 612.46 340.342 610.418 345.294Z" fill="#ED998E"/>
<path d="M608.695 341.644C607.408 341.686 607.644 342.534 610.418 345.294C610.418 345.294 612.444 359.093 615.377 362.057C616.065 362.751 616.92 363.153 617.833 363.306C618.792 363.617 619.279 363.26 619.281 362.773C619.301 357.692 616.183 346.066 613.759 343.236C612.396 341.647 609.248 341.626 608.695 341.644Z" fill="#E58076"/>
<path d="M600.696 348.125C600.696 348.125 605.582 362.109 608.705 364.698C611.828 367.288 616.945 366.91 616.953 362.174C616.96 357.439 614.515 347.799 612.906 344.701C611.297 341.602 604.199 341.047 600.696 348.126V348.125Z" fill="#ED998E"/>
<path d="M611.108 364.726C610.372 360.223 605.673 349.588 603.236 347.053C601.603 345.354 597.708 345.635 597.247 345.354C596.766 345.971 597.33 345.215 600.696 348.125C604.179 351.136 605.582 362.109 608.705 364.698C609.113 365.035 609.558 365.326 610.03 365.564C611.33 366.278 611.269 365.707 611.108 364.726Z" fill="#E58076"/>
<path d="M590.724 352.201C590.724 352.201 596.586 360.524 600.921 366.735C603.167 369.953 609.393 367.612 608.718 363.513C608.043 359.415 604.234 351.383 602.196 348.904C600.157 346.426 595.709 346.33 590.724 352.201V352.201Z" fill="#ED998E"/>
<path d="M590.897 353.841C590.897 353.841 592.956 354.405 600.429 366.418C601.64 367.49 602.556 367.462 601.958 366.278C599.02 360.463 596.795 354.048 593.785 351.323C592.52 350.177 590.725 352.201 590.897 353.841Z" fill="#E58076"/>
<path d="M560.434 146.335C560.434 146.335 567.649 148.692 574.462 165.307C581.276 181.921 593.519 233.227 596.263 239.918C599.007 246.609 611.315 287.004 616.953 298.595C622.591 310.187 642.714 339.485 620.783 335.691C598.852 331.896 583.485 342.474 583.485 342.474C583.485 342.474 569.114 337.619 567.128 327.116C565.141 316.612 559.112 274.762 553.176 260.146C547.24 245.529 542.855 224.59 540.397 215.775C537.939 206.961 539.602 181.724 543.563 171.176C547.927 159.556 560.434 146.335 560.434 146.335H560.434Z" fill="url(#paint9_linear_940_1451)"/>
<path d="M549.691 251.205C549.52 251.204 549.354 251.149 549.218 251.046C549.081 250.943 548.982 250.799 548.935 250.635C548.54 249.256 539.263 216.821 538.896 211.952C538.544 207.283 538.196 185.863 541.11 176.943C541.177 176.747 541.318 176.585 541.503 176.492C541.688 176.4 541.902 176.384 542.099 176.448C542.296 176.512 542.46 176.651 542.554 176.835C542.649 177.019 542.668 177.233 542.606 177.43C539.763 186.132 540.118 207.228 540.465 211.833C540.82 216.545 550.351 249.866 550.448 250.202C550.481 250.319 550.487 250.442 550.465 250.562C550.443 250.682 550.393 250.794 550.319 250.892C550.246 250.989 550.151 251.068 550.042 251.122C549.933 251.176 549.813 251.204 549.691 251.204L549.691 251.205Z" fill="#E3B194"/>
<path d="M483.373 69.7984C483.373 69.7984 499.067 69.0942 504.362 70.3316C509.658 71.569 514.564 89.0157 515.602 100.118C524.935 199.963 501.295 199.963 501.295 199.963C501.295 199.963 507.238 178.047 500.578 164.735C493.917 151.423 490.809 128.555 496.212 115.104C501.616 101.653 489.733 80.024 489.733 80.024L483.373 69.7987L483.373 69.7984Z" fill="url(#paint10_linear_940_1451)"/>
<path d="M453.943 107.622C453.943 107.622 441.331 109.92 440.18 99.2505C439.029 88.5806 450.218 74.2668 459.242 74.2668C459.242 74.2668 473.229 67.8528 481.988 68.7296C490.746 69.6064 498.764 77.8514 502.666 86.0665C506.567 94.2817 510.359 110.79 500.921 118.038C492.025 124.869 487.77 117.726 486.511 112.632C485.252 107.538 453.943 107.622 453.943 107.622Z" fill="#8E84BE"/>
<path d="M444.583 92.4852C444.583 92.4852 447.813 104.784 450.248 109.219C452.682 113.654 451.743 115.003 450.973 118.325C450.351 121.008 448.949 125.349 448.391 127.046C448.362 127.134 448.353 127.226 448.364 127.317C448.375 127.409 448.406 127.496 448.454 127.574C448.503 127.652 448.568 127.718 448.646 127.768C448.723 127.818 448.81 127.851 448.901 127.863L455.138 128.74C455.138 128.74 460.658 138.897 464.989 139.486C469.32 140.075 477.152 134.905 483.167 125.215C489.182 115.525 491.656 111.705 485.712 97.8989C479.769 84.0931 471.536 73.1519 460.756 77.9654C449.975 82.7789 444.583 92.4849 444.583 92.4849L444.583 92.4852Z" fill="#ED998E"/>
<path d="M455.64 115.103C455.64 115.103 453.451 111.993 454.269 110.445C454.994 109.075 456.596 108.111 461.583 107.727C461.583 107.727 462.145 111.628 460.117 113.151C458.089 114.674 455.64 115.103 455.64 115.103Z" fill="white"/>
<mask id="mask0_940_1451" style="mask-type:luminance" maskUnits="userSpaceOnUse" x="454" y="107" width="9" height="9">
<path d="M455.64 115.104C455.64 115.104 453.451 111.993 454.269 110.445C454.994 109.076 457.576 107.706 462.563 107.323C462.563 107.323 461.887 111.847 459.859 113.37C457.831 114.893 455.641 115.104 455.641 115.104L455.64 115.104Z" fill="white"/>
</mask>
<g mask="url(#mask0_940_1451)">
<path d="M459.464 115.333C460.462 114.469 460.198 112.532 458.875 111.007C457.552 109.483 455.67 108.948 454.672 109.813C453.674 110.678 453.938 112.615 455.261 114.139C456.585 115.664 458.466 116.198 459.464 115.333Z" fill="#1E1E1E"/>
</g>
<path d="M455.645 115.17C455.481 115.17 455.324 115.106 455.207 114.992C455.133 114.92 453.397 113.205 453.441 111.292C453.46 110.421 453.83 109.659 454.539 109.027C456.081 107.653 459.372 106.695 462.548 106.695C462.913 106.698 463.193 106.971 463.193 107.324C463.193 107.407 463.176 107.488 463.145 107.565C463.113 107.641 463.067 107.71 463.008 107.768C462.95 107.827 462.88 107.873 462.804 107.905C462.728 107.936 462.646 107.952 462.563 107.952C462.56 107.954 462.552 107.952 462.547 107.952C459.323 107.952 456.501 108.964 455.377 109.966C454.933 110.361 454.711 110.803 454.699 111.317C454.666 112.682 456.072 114.079 456.087 114.093C456.176 114.18 456.237 114.292 456.262 114.415C456.287 114.537 456.276 114.664 456.228 114.78C456.181 114.895 456.1 114.994 455.996 115.064C455.893 115.134 455.77 115.171 455.645 115.171V115.17ZM451.173 105.07C451.042 105.07 450.913 105.037 450.798 104.975C450.683 104.913 450.586 104.822 450.514 104.713C450.443 104.603 450.4 104.478 450.389 104.347C450.379 104.217 450.401 104.086 450.454 103.967C452.746 98.7799 461.132 99.8774 461.488 99.9261C461.693 99.9559 461.879 100.066 462.004 100.232C462.128 100.397 462.182 100.606 462.154 100.811C462.126 101.017 462.017 101.203 461.852 101.329C461.687 101.455 461.479 101.51 461.273 101.483C461.197 101.473 453.706 100.498 451.893 104.601C451.832 104.741 451.731 104.859 451.603 104.943C451.475 105.026 451.325 105.07 451.173 105.07Z" fill="#1E1E1E"/>
<path d="M460.234 87.2869C460.234 87.2869 446.537 98.6019 447.906 103.37L442.769 91.2793L459.473 74.8669L475.316 73.5814L490.55 91.1042L489.4 103.282C489.4 103.282 485.308 106.214 477.145 105.515C467.198 104.662 459.374 95.78 460.234 87.2869Z" fill="#8E84BE"/>
<path d="M480.627 108.228C480.627 108.228 480.33 98.6367 486.513 98.6367C492.695 98.6367 495.314 106.092 492.851 111.575C490.388 117.059 484.935 118.536 482.347 115.647C479.759 112.758 480.627 108.228 480.627 108.228Z" fill="#ED998E"/>
<path d="M483.525 111.842C483.427 111.842 483.332 111.82 483.245 111.777C483.158 111.733 483.082 111.671 483.023 111.593C482.964 111.516 482.924 111.426 482.906 111.33C482.888 111.235 482.892 111.137 482.919 111.043C484.019 107.135 487.554 103.67 487.704 103.524C487.824 103.41 487.984 103.348 488.15 103.351C488.316 103.354 488.473 103.423 488.589 103.541C488.704 103.66 488.768 103.82 488.767 103.985C488.765 104.151 488.699 104.309 488.581 104.426C488.547 104.459 485.138 107.806 484.13 111.384C484.093 111.516 484.013 111.632 483.904 111.715C483.795 111.797 483.662 111.842 483.525 111.842Z" fill="#1E1E1E"/>
<path d="M488.405 112.752C488.274 112.752 488.142 112.711 488.029 112.627L484.016 109.629C483.885 109.528 483.799 109.38 483.776 109.217C483.753 109.053 483.796 108.887 483.895 108.754C483.994 108.622 484.141 108.534 484.305 108.509C484.468 108.484 484.635 108.525 484.769 108.622L488.782 111.62C488.888 111.699 488.966 111.809 489.006 111.935C489.045 112.061 489.044 112.196 489.002 112.322C488.961 112.447 488.88 112.556 488.773 112.633C488.666 112.711 488.537 112.752 488.405 112.752Z" fill="#1E1E1E"/>
<path d="M467.061 122.972L464.92 123.347L459.91 127.035L458.252 129.596L459.708 131.117L463.126 129.977L465.413 126.722L467.061 122.972Z" fill="#DE0A23"/>
<path d="M461.795 126.141C461.795 126.141 460.466 129.69 460.762 130.951L459.194 131.34L458.331 129.898L459.011 127.904L461.795 126.14L461.795 126.141Z" fill="#1E1E1E"/>
<path d="M467.8 122.1C467.8 122.1 461.949 123.376 459.147 126.19C456.248 129.103 457.23 131.448 459.194 131.34C459.194 131.34 458.119 129.876 459.849 128.39C461.578 126.905 467.8 122.1 467.8 122.1Z" fill="#E06961"/>
<path d="M467.8 122.1C467.8 122.1 465.807 128.296 463.889 130.675C461.971 133.054 460.393 132.683 459.195 131.34L458.713 130.612C458.713 130.612 460.403 131.6 461.919 130.072C463.434 128.544 466.201 124.058 466.224 123.042L467.8 122.1L467.8 122.1Z" fill="#E06961"/>
</g>
<g clip-path="url(#clip3_940_1451)">
<path d="M130.407 270.367H237.948V338.245H130.407V270.367Z" fill="#1E1E1E"/>
<path d="M125.814 146.393C125.814 146.393 126.306 140.447 135.077 135.924C143.849 131.401 163.069 117.594 170.086 113.297C177.102 108.999 243.773 120.634 250.238 123.152C260.803 127.267 264.449 121.925 281.303 153.011C298.157 184.097 272.284 258.692 272.284 258.692L224.821 256.062C224.821 256.062 218.381 266.183 210.533 276.325C202.686 286.466 191.921 308.883 170.571 307.215C149.222 305.547 131.591 277.831 120.087 278.865C120.087 278.865 115.405 270.604 117.124 259.608C118.843 248.611 128.902 231.024 127.189 213.27C125.476 195.517 125.813 146.393 125.813 146.393L125.814 146.393Z" fill="#838E78"/>
<path d="M239.924 125.715L235.243 143.671L226.07 152.603L207.122 123.809L211.956 111.644L239.924 125.715Z" fill="#AA4D41"/>
<path d="M223.032 153.863C223.032 153.863 223.551 157.683 229.513 154.541C235.475 151.398 240.834 141.93 245.908 137.525C250.982 133.119 261.249 123.114 255.306 119.108C249.364 115.102 238.76 129.947 238.76 129.947C238.76 129.947 233.514 132.624 224.703 148.908C221.716 154.428 223.032 153.863 223.032 153.863V153.863ZM175.214 97.9055C175.214 97.9055 189.371 90.0172 204.541 90.9684C219.711 91.9196 219.647 121.259 210.838 123.081C202.03 124.904 175.214 97.9055 175.214 97.9055Z" fill="#61675A"/>
<path d="M254.701 96.2655C255.642 94.8538 257.918 93.9535 259.94 96.2655C262.231 98.8863 264.06 104.445 264.757 111.751C265.454 119.056 258.076 115.19 257.631 112.307C257.185 109.423 253.29 98.3821 254.701 96.2655H254.701Z" fill="#AA4D41"/>
<path d="M250.65 95.3652C251.591 93.7272 253.866 92.6823 255.888 95.3652C258.18 98.4062 260.008 104.857 260.705 113.334C261.402 121.812 254.224 119.722 253.778 116.375C253.333 113.029 249.238 97.8218 250.649 95.3655L250.65 95.3652Z" fill="#AA4D41"/>
<path d="M244.574 147.614C244.574 147.614 242.244 136.703 242.088 132.818C241.931 128.933 247.324 120.361 254.29 119.756C261.255 119.15 263.236 123.89 260.188 130.217C257.141 136.544 260.882 139.234 260.882 139.234L244.574 147.614Z" fill="#E58076"/>
<path d="M252.439 121.894C252.439 121.894 254.99 116.403 257.76 114.9C257.76 114.9 257.719 107.587 256.713 104.748C255.707 101.908 257.106 99.8788 259.09 99.8151C261.073 99.7514 262.93 104.307 264.005 107.676C265.081 111.045 266.103 113.759 266.897 115.594C267.69 117.428 267.456 121.601 264.468 124.841C261.48 128.082 260.651 131.026 260.651 131.026L262.27 138.713L251.398 146.4L252.439 121.893V121.894Z" fill="#E58076"/>
<path d="M258.629 114.26C253.734 118.843 254.733 124.132 252.808 126.776C250.884 129.421 242.597 134.69 242.241 133.387C239.924 124.925 263.016 110.151 258.629 114.26Z" fill="#AA4D41"/>
<path d="M262.111 132.875L264.514 140.414C264.514 140.414 277.358 148.058 284.404 155.099C291.449 162.141 298.649 176.942 302.224 192.402C305.798 207.861 316.667 228.374 293.466 239.289C270.266 250.204 258.724 215.819 255.846 211.603C252.969 207.388 247.902 188.892 246.017 181.506C244.131 174.12 238.001 167.517 240.052 158.328C242.103 149.139 243.247 148.014 243.247 148.014L241.791 139.453C241.791 139.453 245.288 143.77 249.607 143.205C253.927 142.641 261.421 136.102 262.111 132.875L262.111 132.875Z" fill="url(#paint11_linear_940_1451)"/>
<path d="M255.847 212.384C255.72 212.384 255.594 212.353 255.482 212.294C255.369 212.235 255.273 212.149 255.201 212.044C251.735 206.965 245.523 182.728 245.26 181.699C244.656 179.335 243.612 177.068 242.506 174.667C240.221 169.706 237.858 164.577 239.29 158.159C240.859 151.125 241.931 148.673 242.426 147.839L241.021 139.584C240.992 139.414 241.021 139.239 241.102 139.087C241.183 138.935 241.312 138.813 241.47 138.742C241.627 138.671 241.803 138.654 241.971 138.694C242.139 138.734 242.29 138.828 242.398 138.963C242.43 139.002 245.676 142.931 249.507 142.432C253.547 141.904 260.729 135.607 261.348 132.713C261.384 132.544 261.475 132.392 261.606 132.281C261.737 132.169 261.902 132.104 262.074 132.096C262.245 132.088 262.415 132.137 262.557 132.235C262.698 132.333 262.803 132.475 262.856 132.639L265.144 139.818C266.678 140.426 272.638 143.048 278.876 149.282C278.949 149.355 279.007 149.441 279.047 149.536C279.086 149.631 279.107 149.732 279.107 149.835C279.107 149.938 279.087 150.04 279.048 150.135C279.009 150.23 278.951 150.316 278.879 150.389C278.806 150.461 278.719 150.519 278.624 150.558C278.529 150.597 278.428 150.618 278.325 150.617C278.222 150.617 278.12 150.597 278.025 150.557C277.93 150.517 277.844 150.459 277.772 150.386C270.931 143.549 264.321 141.173 264.255 141.15C264.141 141.11 264.038 141.044 263.954 140.957C263.87 140.871 263.807 140.766 263.77 140.651L261.977 135.024C260.95 136.627 259.263 138.338 257.725 139.636C254.829 142.078 251.833 143.702 249.71 143.98C246.927 144.343 244.507 142.929 242.961 141.676L244.017 147.884C244.065 148.164 244.031 148.383 243.814 148.557C243.655 148.785 242.593 150.53 240.814 158.499C239.497 164.403 241.748 169.289 243.925 174.015C245.012 176.373 246.135 178.811 246.774 181.314C248.976 189.941 253.841 207.281 256.491 211.164C256.571 211.282 256.618 211.419 256.626 211.56C256.634 211.702 256.603 211.843 256.537 211.969C256.471 212.094 256.371 212.199 256.25 212.273C256.128 212.346 255.989 212.385 255.847 212.385V212.384Z" fill="#616759"/>
<path d="M199.411 293.878C199.411 293.878 216.559 256.653 224.36 245.163C232.161 233.673 247.296 211.973 253.155 207.44C259.015 202.907 269.251 200.659 281.998 207.014C294.745 213.369 295.892 224.194 294.025 241.479C292.157 258.763 277.603 290.75 274.229 297.43C270.855 304.11 221.821 309.113 221.821 309.113L199.411 293.878Z" fill="url(#paint12_linear_940_1451)"/>
<path d="M191.201 281.155C191.06 281.155 190.922 281.117 190.801 281.044C190.68 280.972 190.581 280.869 190.514 280.745C190.448 280.621 190.416 280.482 190.421 280.341C190.427 280.201 190.471 280.064 190.548 279.947C199.431 266.401 218.87 245.489 219.066 245.28C219.135 245.203 219.219 245.141 219.313 245.097C219.406 245.054 219.508 245.029 219.611 245.024C219.714 245.02 219.817 245.036 219.914 245.072C220.011 245.108 220.1 245.163 220.176 245.233C220.252 245.303 220.313 245.388 220.355 245.482C220.398 245.576 220.421 245.678 220.424 245.781C220.427 245.885 220.41 245.988 220.373 246.084C220.336 246.18 220.28 246.269 220.208 246.343C220.014 246.552 200.664 267.367 191.854 280.802C191.783 280.911 191.686 281 191.572 281.062C191.458 281.123 191.33 281.155 191.201 281.155L191.201 281.155Z" fill="#616759"/>
<path d="M246.955 73.4769C246.955 73.4769 253.654 82.9333 254.769 95.8266C255.883 108.72 256.759 124.622 250.278 128.498C243.798 132.374 236.561 132.477 224.863 127.69C213.165 122.904 208.273 115.645 206.721 100.943C205.17 86.2403 221.629 69.5275 221.629 69.5275L246.955 73.4769Z" fill="#E58076"/>
<path d="M242.824 74.7334C242.824 74.7334 242.554 81.0786 237.795 82.273C233.036 83.4674 231.598 80.7471 231.598 80.7471C231.598 80.7471 228.813 85.2959 224.054 87.3891C217.732 90.1704 216.151 86.7607 216.151 86.7607C216.151 86.7607 217.193 94.9824 216.51 98.9678C215.828 102.953 215.127 108.644 210.763 106.328C206.398 104.012 206.452 114.496 206.452 114.496C206.452 114.496 198.234 106.313 196.573 102.199C194.911 98.0846 195.743 85.8466 196.753 81.2853C197.552 77.6717 205.408 66.0188 212.03 63.4033C218.651 60.7875 225.915 59.746 237.919 64.2605C247.257 67.7723 253.541 70.9163 254.997 78.0554C256.452 85.1948 253.653 86.6886 248.992 82.0301C244.331 77.3717 242.824 74.7328 242.824 74.7328L242.824 74.7334Z" fill="url(#paint13_linear_940_1451)"/>
<path d="M212.976 107.852C212.976 107.852 211.408 97.6622 205.21 97.6622C199.012 97.6622 198.436 105.528 200.749 109.564C203.063 113.6 211.628 118.668 212.976 107.852V107.852Z" fill="#E58076"/>
<path d="M210.229 108.278C210.012 108.278 209.801 108.165 209.685 107.963C208.404 105.719 203.702 102.385 203.655 102.352C203.588 102.305 203.531 102.245 203.487 102.175C203.443 102.106 203.413 102.029 203.399 101.948C203.385 101.867 203.388 101.784 203.406 101.704C203.424 101.624 203.457 101.549 203.505 101.482C203.552 101.415 203.612 101.358 203.681 101.314C203.751 101.27 203.828 101.24 203.909 101.226C203.99 101.213 204.073 101.215 204.153 101.233C204.233 101.251 204.308 101.284 204.375 101.332C204.578 101.475 209.352 104.86 210.771 107.344C210.825 107.439 210.853 107.546 210.853 107.655C210.852 107.765 210.823 107.872 210.769 107.967C210.714 108.061 210.635 108.14 210.54 108.194C210.445 108.249 210.338 108.278 210.229 108.278Z" fill="#1E1E1E"/>
<path d="M205.768 111.303C205.638 111.303 205.511 111.263 205.405 111.188C205.299 111.112 205.219 111.006 205.176 110.883C205.134 110.76 205.131 110.627 205.168 110.502C205.205 110.377 205.28 110.267 205.382 110.187C206.339 109.438 207.575 106.538 207.971 105.484C207.998 105.406 208.041 105.334 208.097 105.272C208.153 105.21 208.22 105.161 208.296 105.125C208.371 105.09 208.452 105.071 208.535 105.067C208.618 105.064 208.701 105.077 208.779 105.106C208.857 105.136 208.928 105.18 208.989 105.237C209.049 105.294 209.098 105.362 209.131 105.438C209.165 105.514 209.183 105.596 209.185 105.679C209.186 105.762 209.171 105.845 209.14 105.922C208.982 106.343 207.557 110.071 206.153 111.17C206.039 111.259 205.903 111.303 205.768 111.303Z" fill="#1E1E1E"/>
<path d="M248.144 100.257C248.144 100.257 247.594 96.7918 251.217 96.1103C253.46 95.6883 254.923 98.4055 254.923 98.4055C254.923 98.4055 254.172 101.985 251.205 101.842C248.238 101.699 248.144 100.257 248.144 100.257Z" fill="white"/>
<mask id="mask1_940_1451" style="mask-type:luminance" maskUnits="userSpaceOnUse" x="247" y="96" width="8" height="6">
<path d="M247.594 100.267C247.594 100.267 248.1 96.5752 250.919 96.1459C253.356 95.775 254.929 98.4267 254.929 98.4267C254.929 98.4267 254.429 101.984 251.219 101.842C248.008 101.7 247.594 100.267 247.594 100.267Z" fill="white"/>
</mask>
<g mask="url(#mask1_940_1451)">
<path d="M254.644 100.731C254.813 98.279 253.581 96.1972 251.893 96.0815C250.205 95.9657 248.7 97.8598 248.532 100.312C248.364 102.764 249.596 104.846 251.283 104.962C252.971 105.077 254.476 103.183 254.644 100.731Z" fill="#1E1E1E"/>
</g>
<path d="M244.925 120.942C243.325 120.942 240.592 120.6 236.497 119.028C236.344 118.968 236.22 118.85 236.154 118.699C236.088 118.548 236.083 118.377 236.142 118.223C236.202 118.069 236.319 117.945 236.47 117.878C236.62 117.81 236.791 117.805 236.945 117.862C243.519 120.386 246.289 119.566 246.316 119.557C246.642 119.454 246.994 119.632 247.101 119.957C247.207 120.283 247.036 120.632 246.711 120.742C246.659 120.76 246.093 120.941 244.925 120.941V120.942ZM245.082 112.74C244.916 112.741 244.757 112.677 244.639 112.561C244.521 112.445 244.454 112.286 244.452 112.121C244.451 111.955 244.515 111.796 244.632 111.678C244.748 111.56 244.906 111.493 245.072 111.491C246.345 111.47 248.36 111.192 248.854 110.639C248.922 110.563 248.918 110.522 248.915 110.492C248.721 108.507 246.783 94.3018 246.764 94.1585C246.743 93.9954 246.788 93.8308 246.888 93.7005C246.988 93.5701 247.136 93.4845 247.299 93.4623C247.462 93.44 247.627 93.483 247.759 93.5817C247.89 93.6804 247.977 93.827 248.002 93.9896C248.081 94.5756 249.963 108.361 250.159 110.371C250.198 110.773 250.069 111.154 249.785 111.471C248.756 112.624 245.695 112.73 245.092 112.74H245.082V112.74Z" fill="#1E1E1E"/>
<path d="M248.016 98.7936C247.932 98.7936 247.85 98.7711 247.778 98.7286C247.706 98.686 247.646 98.625 247.606 98.5517C247.566 98.4784 247.546 98.3957 247.548 98.3121C247.55 98.2284 247.575 98.147 247.62 98.0762C247.797 97.7952 249.401 95.3299 251.217 95.3299C253.711 95.3299 255.239 97.419 255.303 97.508C255.34 97.5579 255.367 97.6146 255.382 97.6749C255.397 97.7352 255.399 97.7979 255.39 97.8592C255.38 97.9205 255.359 97.9793 255.326 98.0322C255.293 98.0851 255.251 98.131 255.2 98.1672C255.15 98.2034 255.093 98.2292 255.032 98.2431C254.971 98.257 254.909 98.2587 254.848 98.2482C254.786 98.2377 254.728 98.2151 254.675 98.1818C254.623 98.1484 254.578 98.105 254.542 98.054C254.53 98.0372 253.223 96.2664 251.217 96.2664C250.113 96.2664 248.818 97.9329 248.413 98.5751C248.371 98.6421 248.312 98.6973 248.243 98.7355C248.173 98.7737 248.095 98.7937 248.016 98.7936ZM240.651 94.2641C240.095 92.2517 234.25 90.8553 231.084 91.5858C227.919 92.3164 225.567 93.7352 224.256 94.4323C222.945 95.1295 225.701 96.5599 231.395 95.8718C235.221 95.4095 241.047 95.6964 240.651 94.2641ZM246.973 94.757C246.973 94.757 246.281 92.3519 247.9 91.1076C249.519 89.8632 252.325 89.541 253.819 89.8666C253.819 89.8666 254.221 90.7498 254.36 91.7279C254.499 92.706 248.971 91.9907 246.973 94.757Z" fill="#1E1E1E"/>
<path d="M239.013 101.399C239.013 101.399 238.116 97.2579 233.617 97.3113C231.136 97.341 227.154 101.399 227.154 101.399C227.154 101.399 231.766 103.946 235.382 103.418C238.998 102.889 239.013 101.399 239.013 101.399Z" fill="white"/>
<mask id="mask2_940_1451" style="mask-type:luminance" maskUnits="userSpaceOnUse" x="227" y="97" width="13" height="7">
<path d="M239.013 101.399C239.013 101.399 238.116 97.2579 233.617 97.3113C231.136 97.341 227.154 101.399 227.154 101.399C227.154 101.399 231.766 103.946 235.382 103.418C238.998 102.889 239.013 101.399 239.013 101.399Z" fill="white"/>
</mask>
<g mask="url(#mask2_940_1451)">
<path d="M238.553 102.016C238.724 99.5243 237.19 97.3897 235.127 97.2482C233.064 97.1067 231.252 99.0119 231.081 101.504C230.91 103.995 232.444 106.13 234.507 106.272C236.571 106.413 238.382 104.508 238.553 102.016Z" fill="#1E1E1E"/>
</g>
<path d="M227.154 101.867C227.06 101.867 226.969 101.839 226.892 101.787C226.815 101.735 226.754 101.661 226.719 101.575C226.684 101.489 226.676 101.394 226.695 101.302C226.714 101.211 226.76 101.128 226.827 101.063C226.995 100.9 230.968 97.0672 233.577 96.8449C236.905 96.5617 239.56 100.008 239.672 100.154C239.747 100.253 239.78 100.378 239.763 100.501C239.746 100.624 239.681 100.735 239.582 100.811C239.484 100.886 239.359 100.919 239.236 100.902C239.113 100.885 239.001 100.82 238.926 100.721C238.902 100.689 236.461 97.5398 233.656 97.778C231.767 97.9391 228.557 100.689 227.48 101.735C227.392 101.82 227.275 101.867 227.153 101.867H227.154ZM221.543 208.719C221.295 208.719 221.056 208.621 220.881 208.445C220.705 208.269 220.606 208.031 220.606 207.783V149.905C220.606 149.657 220.705 149.419 220.881 149.243C221.056 149.067 221.295 148.969 221.543 148.969C221.792 148.969 222.03 149.067 222.206 149.243C222.382 149.419 222.48 149.657 222.48 149.905V207.783C222.48 208.031 222.382 208.269 222.206 208.445C222.03 208.621 221.792 208.719 221.543 208.719Z" fill="#1E1E1E"/>
<path d="M222.539 206.08H220.547C219.685 206.08 218.985 206.778 218.985 207.641V215.567C218.985 216.429 219.685 217.128 220.547 217.128H222.539C223.401 217.128 224.101 216.429 224.101 215.567V207.641C224.101 206.778 223.401 206.08 222.539 206.08Z" fill="#1E1E1E"/>
<path d="M268.775 315.702C268.775 315.702 267.741 322.052 259.87 325.261C251.999 328.469 216.357 332.601 217.261 323.679C218.164 314.757 253.165 297.958 253.165 297.958L262.504 297.941L268.775 315.702L268.775 315.702Z" fill="#1E1E1E"/>
<path d="M274.073 294.924L243.49 366.193L212.145 362.686L232.203 288.445L274.073 294.924Z" fill="#E58076"/>
<path d="M245.557 332.083C239.314 330.802 224.882 334.455 219.364 335.965L212.145 362.686L243.49 366.193L255.941 337.177C254.224 335.291 251.131 333.226 245.557 332.083V332.083Z" fill="#8E84BE"/>
<path d="M221.544 297.063C221.433 297.063 221.323 297.039 221.222 296.993C221.121 296.948 221.03 296.881 220.957 296.797C220.883 296.714 220.829 296.616 220.796 296.51C220.764 296.403 220.755 296.291 220.769 296.181C222.785 280.705 229.129 263.335 234.096 251.489C239.472 238.667 244.442 229.367 244.491 229.275C244.539 229.184 244.605 229.104 244.684 229.039C244.764 228.975 244.855 228.926 244.953 228.896C245.051 228.867 245.154 228.856 245.256 228.867C245.359 228.877 245.458 228.907 245.548 228.955C245.638 229.004 245.718 229.069 245.783 229.149C245.848 229.228 245.897 229.319 245.927 229.417C245.956 229.515 245.966 229.618 245.956 229.72C245.946 229.822 245.916 229.921 245.868 230.012C245.818 230.104 240.878 239.35 235.53 252.107C230.603 263.861 224.31 281.083 222.317 296.383C222.293 296.571 222.201 296.743 222.059 296.868C221.916 296.993 221.733 297.062 221.544 297.063H221.544Z" fill="#616759"/>
<path d="M266.572 320.446C266.572 320.446 270.733 318.488 275.064 305.46C277.916 296.88 279.539 292.861 277.205 287.799C274.872 282.736 271.799 275.868 256.857 280.841C241.914 285.814 224.352 291.17 219.755 296.82C215.157 302.471 215.087 317.022 216.312 322.586C217.537 328.151 221.216 323.725 228.093 319.528C234.97 315.331 254.296 304.258 259.917 305.154C265.537 306.05 267.804 311.841 266.572 320.446Z" fill="#7770B1"/>
<path d="M239.637 241.671C239.451 241.671 239.272 241.605 239.131 241.484C238.99 241.364 238.896 241.198 238.867 241.015C238.173 236.731 238.222 232.035 238.225 231.837C238.23 231.406 238.598 231.067 239.015 231.067C239.222 231.069 239.42 231.154 239.564 231.302C239.709 231.45 239.789 231.649 239.786 231.856C239.786 231.904 239.737 236.618 240.409 240.766C240.427 240.877 240.42 240.991 240.39 241.1C240.359 241.209 240.306 241.31 240.232 241.396C240.159 241.482 240.068 241.552 239.965 241.599C239.862 241.646 239.75 241.671 239.637 241.671L239.637 241.671Z" fill="#616759"/>
<path d="M214.319 354.403C214.319 354.403 204.675 368.108 198.325 373.94C191.975 379.772 192.376 396.633 193.275 407.779C194.174 418.926 192.379 459.968 208.52 463.212C224.661 466.455 236.83 459.225 239.198 447.881C241.566 436.538 242.552 394.965 241.536 385.999C240.521 377.033 243.878 365.289 243.878 365.289L218.323 368.914L214.319 354.403V354.403Z" fill="#F6DCC6"/>
<path d="M241.033 429.654C241.993 413.176 242.225 392.083 241.537 385.999C240.521 377.033 243.879 365.289 243.879 365.289L218.324 368.914L214.319 354.403C214.319 354.403 208.977 361.994 203.627 368.282C203.113 375.044 201.692 396.936 203.555 411.687C205.782 429.321 213.363 439.044 225.669 439.433C232.921 439.663 237.933 435.579 241.032 429.654L241.033 429.654Z" fill="#F3CAAD"/>
<path d="M237.994 417.001C236.946 419.443 226.066 419.312 218.669 417.332C211.271 415.352 213.124 383.313 214.453 375.435C215.781 367.556 218.12 356.712 221.055 354.208C223.99 351.704 234.22 350.195 241.816 355.242C249.412 360.288 244.768 362.822 241.562 374.827C238.356 386.832 240.616 410.889 237.994 417.001Z" fill="#F6DCC6"/>
<path d="M240.036 418.094C239.881 418.094 239.724 418.061 239.574 417.991C239.38 417.901 220.115 408.931 215.164 408.364C214.818 408.324 213.766 408.203 213.449 407.3C213.34 406.989 213.254 406.37 213.907 405.713C215.936 403.671 229.178 399.42 236.327 400.215C231.59 396.597 220.025 389.569 214.06 389.235C212.571 389.151 210.996 388.91 210.601 387.75C210.5 387.454 210.359 386.686 211.221 385.942C212.676 384.686 216.766 383.715 221.168 383.58C224.116 383.489 228.139 383.727 232.413 385.044C231.207 384.347 229.988 383.674 228.755 383.026C221.667 379.304 215.768 377.254 212.146 377.254C211.856 377.254 211.578 377.139 211.373 376.934C211.167 376.729 211.052 376.451 211.052 376.161C211.052 375.872 211.167 375.594 211.373 375.389C211.578 375.184 211.856 375.069 212.146 375.069C217.627 375.069 225.83 378.994 230.231 381.334C233.754 383.207 241.219 387.574 241.811 389.121C241.992 389.593 241.874 390.109 241.51 390.435C240.885 390.995 240.271 391.011 236.26 388.954C227.054 384.231 217.116 385.757 213.744 387.021C213.877 387.033 214.022 387.044 214.182 387.053C218.889 387.317 226.037 391.121 229.879 393.366C233.209 395.311 239.692 399.459 240.394 401.235C240.594 401.74 240.505 402.259 240.157 402.623C239.529 403.28 238.539 403.013 237.658 402.711C232.713 401.016 220.858 404.519 216.779 406.451C223.387 408.044 239.752 415.663 240.499 416.011C240.725 416.116 240.908 416.295 241.018 416.518C241.129 416.741 241.159 416.996 241.105 417.239C241.051 417.482 240.916 417.699 240.721 417.854C240.527 418.01 240.285 418.095 240.036 418.094Z" fill="#8E84BE"/>
<path d="M210.402 457.561C197.78 453.977 196.715 420.241 196.715 410.564C196.715 402.53 195.53 385.509 197.286 375.071C192.026 381.72 192.428 397.281 193.275 407.779C194.174 418.926 192.379 459.968 208.52 463.212C221.209 465.762 231.44 461.836 236.387 454.531C230.93 456.638 219.607 460.174 210.402 457.561Z" fill="url(#paint14_linear_940_1451)"/>
<path d="M127.262 418.906L164.493 486.941L142.388 509.426L96.3197 447.833L127.262 418.906Z" fill="#E58076"/>
<path d="M142.387 509.426L164.493 486.941L147.176 455.296C144.904 458.214 140.136 463.336 131.915 467.918C124.632 471.977 119.529 473.769 116.307 474.556L142.387 509.426Z" fill="url(#paint15_linear_940_1451)"/>
<path d="M124.224 275.76C124.224 275.76 103.383 292.064 89.0576 309.106C74.7322 326.149 52.5432 353.342 47.9806 361.166C43.418 368.99 39.4111 375.704 50.8403 391.748C62.2695 407.791 70.343 423.315 73.803 429.12C77.263 434.925 106.26 443.172 118.837 441.585C131.414 439.999 137.688 431.88 137.688 431.88C137.688 431.88 130.157 405.131 127.024 398.099C123.892 391.067 116.266 382.208 116.266 382.208C116.266 382.208 142.33 347.963 155.479 341.741C168.628 335.519 180.163 292.05 180.163 292.05L124.224 275.76V275.76Z" fill="url(#paint16_linear_940_1451)"/>
<path d="M109.426 379.334C109.369 379.334 109.311 379.328 109.254 379.315C107.678 378.96 93.787 375.741 91.3528 371.919C90.71 370.91 90.992 370.205 91.2173 369.874C91.697 369.169 92.8934 368.421 97.927 368.901C100.544 369.15 102.964 369.615 103.066 369.635C103.27 369.674 103.449 369.793 103.565 369.964C103.681 370.136 103.724 370.346 103.684 370.55C103.645 370.753 103.526 370.932 103.355 371.048C103.183 371.164 102.973 371.207 102.769 371.167C97.8939 370.225 93.0102 370.026 92.5104 370.749C92.5173 370.749 92.5282 370.859 92.67 371.081C94.4402 373.86 105.489 376.868 109.596 377.792C109.784 377.834 109.95 377.944 110.062 378.1C110.174 378.257 110.224 378.449 110.203 378.64C110.181 378.831 110.09 379.007 109.947 379.136C109.804 379.264 109.618 379.335 109.426 379.334L109.426 379.334Z" fill="#616759"/>
<path d="M116.941 383.876C116.803 383.876 116.667 383.816 116.574 383.7C112.809 378.98 110.843 374.197 110.824 374.15C110.777 374.034 110.778 373.906 110.826 373.791C110.875 373.677 110.966 373.586 111.082 373.539C111.197 373.493 111.326 373.494 111.44 373.542C111.555 373.59 111.645 373.682 111.692 373.797C111.711 373.844 113.63 378.507 117.307 383.117C117.362 383.185 117.396 383.268 117.406 383.356C117.416 383.444 117.401 383.532 117.363 383.611C117.324 383.691 117.264 383.758 117.19 383.805C117.115 383.852 117.029 383.876 116.941 383.876Z" fill="#1E1E1E"/>
<path d="M138.852 430.861C140.851 430.662 144.161 441.292 145.896 445.955C147.631 450.618 146.321 450.236 141.444 452.263C136.567 454.289 118.916 463.642 114.734 465.723C110.551 467.804 104.91 466.207 98.5612 463.808C84.3258 458.429 82.4938 460.616 80.4163 453.952C78.3385 447.288 73.75 434.262 72.5162 431.08C71.282 427.898 74.4981 429.51 80.7643 432.76C87.0305 436.009 106.95 439.602 114.847 438.408C122.744 437.214 137.719 430.974 138.852 430.861L138.852 430.861Z" fill="url(#paint17_linear_940_1451)"/>
<path d="M158.353 475.823C158.353 475.823 171.27 489.097 174.902 492.192C178.534 495.287 186.809 505.723 186.809 505.723C186.809 505.723 180.682 521.247 157.955 547.216C143.966 563.2 116.83 581.938 116.83 581.938C116.83 581.938 108.539 579.578 98.9328 566.363C94.8778 560.785 100.029 549.243 108.064 538.255C116.099 527.267 138.84 494.894 138.84 494.894C138.84 494.894 152.704 492.386 155.219 489.873C158.494 486.599 158.354 475.823 158.354 475.823H158.353Z" fill="#F6DCC6"/>
<path d="M158.353 475.823C158.353 475.823 158.493 486.6 155.218 489.873C152.703 492.386 138.84 494.894 138.84 494.894C138.84 494.894 116.099 527.267 108.063 538.255C105.68 541.515 103.553 544.823 101.842 548.01C103.6 551.355 112.624 551.595 117.568 548.881C124.077 545.31 137.212 535.512 149.726 521.226C158.694 510.988 169.614 496.532 172.583 490.066C167.524 485.248 158.353 475.823 158.353 475.823H158.353Z" fill="#F3CAAD"/>
<path d="M109.741 535.512C109.741 535.512 127.64 513.158 126.588 507.693C124.294 495.777 121.966 492.182 125.945 489.661C129.925 487.14 134.565 484.795 137.462 484.178C140.358 483.56 143.35 489.148 143.838 493.119C144.326 497.09 124.329 529.243 109.741 535.512L109.741 535.512Z" fill="#F6DCC6"/>
<path d="M179.937 497.457C176.797 505.586 165.498 522.698 150.565 538.403C132.915 556.965 118.543 572.182 104.711 573.291C111.637 580.454 116.83 581.938 116.83 581.938C116.83 581.938 143.966 563.2 157.955 547.216C180.682 521.246 186.809 505.723 186.809 505.723C186.809 505.723 183.359 501.373 179.937 497.457Z" fill="url(#paint18_linear_940_1451)"/>
<path d="M118.301 533.158C116.474 533.158 115.642 532.061 115.333 531.486C113.899 528.824 115.754 523.946 118.223 521.967C120.143 520.428 124.71 518.893 128.379 517.659L128.621 517.578C123.804 517.091 121.829 516.329 121.411 514.942C121.231 514.348 121.285 513.437 122.559 512.471C124.135 511.275 127.771 510.132 131.62 508.923C134.018 508.169 137.437 507.095 138.848 506.331C133.526 504.614 124.667 509.246 124.578 509.293C124.451 509.361 124.312 509.402 124.169 509.416C124.026 509.429 123.882 509.414 123.745 509.372C123.608 509.33 123.48 509.261 123.37 509.17C123.259 509.078 123.167 508.966 123.1 508.839C123.033 508.713 122.991 508.574 122.978 508.431C122.964 508.288 122.979 508.144 123.021 508.007C123.063 507.87 123.132 507.742 123.224 507.631C123.315 507.521 123.428 507.429 123.555 507.362C123.956 507.149 133.458 502.177 139.663 504.299C140.132 504.459 141.556 504.946 141.539 506.228C141.518 507.951 139.121 508.857 132.275 511.008C128.937 512.057 125.154 513.245 123.88 514.211C123.81 514.264 123.742 514.32 123.677 514.379C124.324 514.755 126.321 515.3 132.265 515.675L132.67 515.701C133.793 515.773 134.1 516.336 134.16 516.796C134.297 517.84 133.2 518.26 132.233 518.63C131.429 518.939 130.339 519.305 129.076 519.73C125.756 520.846 121.208 522.375 119.591 523.672C117.573 525.29 116.495 529.034 117.258 530.449C117.374 530.666 117.73 531.327 119.527 530.747C119.664 530.702 119.808 530.684 119.952 530.695C120.096 530.705 120.237 530.745 120.366 530.81C120.494 530.875 120.609 530.965 120.703 531.075C120.796 531.185 120.868 531.312 120.912 531.449C120.956 531.586 120.973 531.731 120.961 531.875C120.949 532.019 120.909 532.159 120.842 532.287C120.776 532.415 120.685 532.529 120.574 532.621C120.463 532.714 120.335 532.784 120.198 532.827C119.47 533.062 118.842 533.158 118.301 533.158Z" fill="#8E84BE"/>
<path d="M138.464 149.898C128.026 136.816 125.734 141.624 125.032 152.79C124.329 163.957 121.515 182.621 123.043 192.382C124.571 202.143 126.275 228.181 126.275 238.994C126.275 258.34 136.04 274.2 137.313 283.301C138.586 292.402 139.19 306.348 151.2 316.22C163.401 326.249 173.633 327.075 173.633 327.075L193.849 321.217C193.849 321.217 204.248 318.866 201.003 305.643C197.76 292.419 195.955 285.247 194.143 274.592C192.331 263.937 180.165 203.419 178.856 195.72C177.546 188.02 148.687 162.709 138.465 149.898L138.464 149.898Z" fill="url(#paint19_linear_940_1451)"/>
<path d="M175.037 322.891C174.842 322.89 174.654 322.817 174.51 322.686C174.367 322.554 174.277 322.374 174.26 322.18C174.236 321.933 173.606 316.075 167.01 314.256C159.62 312.218 149.044 298.988 148.597 298.426C148.468 298.264 148.409 298.057 148.433 297.852C148.457 297.646 148.561 297.458 148.723 297.33C148.885 297.201 149.092 297.142 149.298 297.166C149.504 297.189 149.692 297.293 149.82 297.456C149.927 297.589 160.525 310.848 167.425 312.752C175.088 314.865 175.809 321.97 175.815 322.041C175.825 322.149 175.812 322.258 175.777 322.361C175.743 322.463 175.687 322.558 175.613 322.638C175.54 322.718 175.451 322.782 175.352 322.825C175.252 322.869 175.145 322.891 175.036 322.891L175.037 322.891Z" fill="#616759"/>
<path d="M200.223 320.695C200.223 320.695 202.304 313.936 193.389 313.936C184.474 313.936 171.045 318.383 166.585 322.545C162.125 326.707 165.481 328.201 165.481 328.201L200.223 320.695Z" fill="#868F7A"/>
<path d="M137.312 288.633C137.12 288.632 136.935 288.562 136.792 288.433C136.649 288.305 136.558 288.129 136.537 287.938C135.978 282.921 134.287 277.213 132.33 270.603C128.866 258.909 124.94 245.653 125.494 230.536C125.498 230.434 125.522 230.333 125.565 230.24C125.607 230.147 125.668 230.063 125.743 229.993C125.818 229.923 125.906 229.869 126.002 229.833C126.099 229.797 126.201 229.781 126.303 229.785C126.406 229.788 126.507 229.812 126.6 229.855C126.693 229.898 126.777 229.958 126.847 230.033C126.917 230.108 126.971 230.197 127.007 230.293C127.042 230.389 127.059 230.491 127.055 230.593C126.51 245.455 130.398 258.58 133.827 270.16C135.806 276.84 137.515 282.61 138.089 287.765C138.101 287.875 138.09 287.985 138.057 288.09C138.023 288.194 137.968 288.291 137.895 288.373C137.822 288.454 137.732 288.52 137.631 288.565C137.531 288.609 137.422 288.633 137.312 288.633ZM198.32 293.94C198.149 293.94 197.983 293.884 197.848 293.781C197.712 293.677 197.614 293.533 197.568 293.368C194.12 280.954 179.39 203.522 178.085 195.851C178.056 195.649 178.106 195.444 178.226 195.279C178.346 195.113 178.526 195.002 178.727 194.968C178.929 194.934 179.135 194.979 179.303 195.096C179.471 195.212 179.587 195.389 179.625 195.589C180.929 203.252 195.635 280.572 199.073 292.951C199.105 293.067 199.11 293.189 199.087 293.307C199.065 293.425 199.015 293.536 198.942 293.632C198.869 293.728 198.775 293.806 198.667 293.859C198.559 293.912 198.44 293.94 198.32 293.94ZM167.747 181.515C167.617 181.515 167.488 181.483 167.374 181.421C167.259 181.358 167.162 181.268 167.091 181.159C155.699 163.596 131.645 150.723 131.403 150.595C131.225 150.496 131.094 150.33 131.037 150.135C130.979 149.94 131.001 149.73 131.096 149.55C131.191 149.37 131.353 149.234 131.547 149.172C131.741 149.11 131.951 149.125 132.134 149.216C132.379 149.346 156.786 162.403 168.401 180.31C168.478 180.428 168.521 180.564 168.526 180.704C168.532 180.844 168.499 180.984 168.432 181.107C168.365 181.23 168.266 181.333 168.146 181.405C168.025 181.477 167.887 181.515 167.747 181.515L167.747 181.515Z" fill="#616759"/>
<path d="M180.163 319.385C184.888 318.041 195.045 316.112 200.996 320.823C206.947 325.535 211.544 327.43 209.941 333.94C208.338 340.449 205.175 343.268 203.114 345.115C201.054 346.962 166.451 347.456 163.391 345.997C160.331 344.539 155.143 336.595 161.331 330.411C167.519 324.226 174.429 321.014 180.163 319.385L180.163 319.385Z" fill="#E58076"/>
<path d="M196.186 332.498C194.185 332.827 189.545 334.08 190.187 337.129C190.636 339.262 191.605 343.296 192.229 346.506C196.815 346.31 201.036 345.936 202.714 345.556C207.298 342.478 204.354 336.036 203.904 334.368C203.273 332.028 197.753 332.24 196.186 332.498Z" fill="#AA4D41"/>
<path d="M161.768 335.47C162.835 334.661 166.58 333.294 168.226 335.827C169.871 338.359 173.382 348.428 175.341 352.945C176.435 355.469 170.036 357.18 167.635 354.426C164.844 351.226 162.208 346.62 160.202 343.262C158.197 339.905 160.406 336.503 161.768 335.47ZM195.81 331.245C197.28 330.956 200.844 330.683 201.436 333.303C202.029 335.923 202.219 346.482 200.434 351.029C199.294 353.932 192.769 354.194 192.53 351.873C192.202 348.679 190.785 339.84 190.183 336.427C189.581 333.015 193.933 331.613 195.81 331.245Z" fill="#E58076"/>
<path d="M171.978 334.008C171.593 333.416 171.534 333.387 169.949 335.419C168.166 337.703 166.576 339.744 167.54 342.135C172.389 354.165 175.505 354.116 175.465 353.543C175.125 348.632 173.623 336.541 171.978 334.009V334.008ZM190.95 333.658C190.061 332.77 189.927 334.972 190.183 336.427C190.785 339.839 192.093 348.376 192.321 351.579C192.408 352.805 193.696 353.14 194.961 353.432C194.802 347.582 195.094 337.795 190.95 333.658Z" fill="#AA4D41"/>
<path d="M171.742 332.339C172.993 331.477 176.254 330.168 178 333.243C179.747 336.317 183.099 348.238 184.898 353.699C185.724 356.206 179.023 358.255 176.429 354.866C173.414 350.927 171.447 345.006 169.332 340.943C167.217 336.88 170.145 333.44 171.742 332.339Z" fill="#E58076"/>
<path d="M183.625 329.914C184.997 329.263 188.431 328.242 189.663 331.556C190.896 334.87 193.566 347.619 193.783 353.364C193.897 356.392 185.611 358.486 184.592 354.342C183.573 350.198 180.822 342.086 179.383 337.738C177.945 333.39 181.872 330.746 183.624 329.914H183.625Z" fill="#E58076"/>
<path d="M183.942 351.256C181.62 342.617 180.163 339.271 179.345 334.263C177.848 335.56 178.153 336.514 177.967 337.887C177.647 340.238 181.1 354.846 184.764 354.846C184.896 354.434 184.079 351.763 183.942 351.256Z" fill="#AA4D41"/>
<path d="M224.806 155.781C224.806 155.781 206.398 144.332 200.536 136.708C194.675 129.084 171.788 116.572 160.38 119.703C160.38 119.703 158.347 112.539 165.275 105.615C171.269 99.624 178.955 93.4268 188.933 95.1379C196.263 96.3951 212.232 114.208 216.418 121.674C231.101 147.861 224.806 155.781 224.806 155.781V155.781Z" fill="url(#paint20_linear_940_1451)"/>
<path d="M220.11 145.986C220.01 145.986 219.908 145.966 219.81 145.926C219.553 145.819 213.49 143.266 210.746 139.167C208.175 135.327 201.017 126.985 198.858 124.827C198.785 124.755 198.727 124.669 198.688 124.574C198.648 124.479 198.627 124.377 198.627 124.274C198.627 124.172 198.647 124.07 198.686 123.975C198.726 123.88 198.783 123.794 198.856 123.721C198.929 123.648 199.015 123.591 199.11 123.551C199.205 123.512 199.307 123.492 199.41 123.492C199.513 123.492 199.614 123.513 199.709 123.553C199.804 123.592 199.89 123.65 199.963 123.723C202.214 125.973 209.376 134.315 212.043 138.298C214.523 142.002 220.352 144.46 220.41 144.484C220.577 144.554 220.714 144.679 220.799 144.838C220.883 144.997 220.91 145.181 220.875 145.358C220.84 145.535 220.744 145.694 220.604 145.809C220.465 145.923 220.29 145.986 220.11 145.986ZM224.805 156.562C224.673 156.562 224.539 156.528 224.416 156.457C223.747 156.071 207.951 146.894 199.934 137.205C193.975 130.003 171.53 117.452 160.586 120.455C160.487 120.483 160.384 120.49 160.282 120.477C160.18 120.465 160.082 120.432 159.993 120.381C159.904 120.33 159.826 120.263 159.763 120.182C159.7 120.101 159.653 120.008 159.626 119.909C159.599 119.811 159.592 119.707 159.604 119.606C159.617 119.504 159.65 119.406 159.701 119.317C159.751 119.228 159.819 119.149 159.9 119.086C159.981 119.024 160.074 118.977 160.173 118.95C171.852 115.744 194.809 128.561 201.138 136.21C208.973 145.68 225.035 155.012 225.197 155.105C225.345 155.191 225.462 155.323 225.528 155.482C225.593 155.641 225.605 155.817 225.56 155.983C225.516 156.149 225.417 156.296 225.281 156.4C225.144 156.505 224.977 156.561 224.805 156.561L224.805 156.562Z" fill="#616759"/>
<path d="M230.363 173.99C230.114 173.99 229.876 173.891 229.7 173.716C229.524 173.54 229.426 173.302 229.426 173.053V147.614C229.426 147.365 229.524 147.127 229.7 146.952C229.876 146.776 230.114 146.677 230.363 146.677C230.611 146.677 230.849 146.776 231.025 146.952C231.201 147.127 231.3 147.365 231.3 147.614V173.053C231.3 173.302 231.201 173.54 231.025 173.716C230.849 173.891 230.611 173.99 230.363 173.99Z" fill="#1E1E1E"/>
<path d="M231.623 172.239H229.631C228.769 172.239 228.07 172.938 228.07 173.8V181.726C228.07 182.588 228.769 183.287 229.631 183.287H231.623C232.486 183.287 233.185 182.588 233.185 181.726V173.8C233.185 172.938 232.486 172.239 231.623 172.239Z" fill="#1E1E1E"/>
</g>
<g clip-path="url(#clip4_940_1451)">
<path d="M411.357 249.764H280.751C279.879 249.764 279.172 250.472 279.172 251.345V255.221C279.172 256.094 279.879 256.802 280.751 256.802H411.357C412.229 256.802 412.936 256.094 412.936 255.221V251.345C412.936 250.472 412.229 249.764 411.357 249.764Z" fill="#A49ACB"/>
<path d="M407.097 255.073H282.487L282.142 166.243C282.133 163.932 283.796 162.256 286.101 162.256H409.162C412.165 162.256 414.822 165.043 414.693 168.05L411.102 251.334C411.009 253.504 409.326 255.073 407.097 255.073Z" fill="#A49ACB"/>
<path d="M406.964 256.669H282.355L282.145 167.839C282.14 165.528 283.806 163.852 286.111 163.852H409.172C412.174 163.852 414.827 166.639 414.693 169.646L410.975 252.93C410.878 255.1 409.194 256.669 406.964 256.669Z" fill="url(#paint21_linear_940_1451)"/>
</g>
<g clip-path="url(#clip5_940_1451)">
<path d="M440.967 581.938H247.594C245.647 581.938 244.069 580.54 244.069 578.816V575.719C244.069 574.22 245.272 572.932 246.935 572.652L343.621 556.342C344.058 556.268 344.503 556.268 344.94 556.342L441.626 572.652C443.289 572.932 444.492 574.22 444.492 575.719V578.816C444.492 580.54 442.913 581.938 440.967 581.938Z" fill="#E087B7"/>
<path d="M336.43 266.036V579.768C336.43 580.63 337.129 581.329 337.992 581.329H350.569C351.432 581.329 352.131 580.63 352.131 579.768V266.036C352.131 265.174 351.432 264.475 350.569 264.475H337.992C337.129 264.475 336.43 265.174 336.43 266.036Z" fill="#E087B7"/>
<path d="M504.944 255.866H183.618C182.755 255.866 182.055 256.565 182.055 257.427V269.991C182.055 270.853 182.755 271.552 183.618 271.552H504.944C505.807 271.552 506.506 270.853 506.506 269.991V257.427C506.506 256.565 505.807 255.866 504.944 255.866Z" fill="url(#paint22_linear_940_1451)"/>
</g>
<g clip-path="url(#clip6_940_1451)">
<path d="M465.062 123.32L492.919 152.962L510.823 134.911L481.705 105.277L465.062 123.32Z" fill="#ED998E"/>
<path d="M478.936 138.084C483.933 130.587 487.235 119.542 488.948 112.649L481.705 105.277L465.062 123.32L478.936 138.084Z" fill="#E58076"/>
<path d="M563.584 243.311C563.584 243.311 579.761 301.705 579.761 316.099C579.761 330.494 579.839 351.38 559.14 351.661C541.562 351.899 462.847 351.562 443.77 351.538C443.77 351.538 437.641 373.186 427.238 392.438C416.835 411.691 400.097 439.063 399.16 450.011C398.224 460.958 361.631 438.683 361.631 438.683L389.153 346.065L408.89 285.672L509.209 271.442L546.563 271.057L563.584 243.311V243.311Z" fill="url(#paint23_linear_940_1451)"/>
<path d="M443.733 350.952C443.613 350.952 443.495 350.925 443.387 350.872C443.279 350.819 443.185 350.742 443.111 350.648C443.037 350.553 442.987 350.442 442.962 350.325C442.938 350.207 442.941 350.086 442.971 349.97C444.135 345.472 443.474 337.379 443.467 337.298C443.455 337.093 443.524 336.892 443.658 336.737C443.792 336.582 443.982 336.485 444.187 336.468C444.391 336.451 444.595 336.514 444.753 336.645C444.912 336.775 445.013 336.962 445.035 337.166C445.063 337.509 445.725 345.605 444.494 350.363C444.451 350.531 444.352 350.68 444.215 350.787C444.077 350.894 443.908 350.951 443.733 350.952Z" fill="#616759"/>
<path d="M360.703 448.354C359.209 451.878 322.549 495.586 322.549 495.586C322.549 495.586 316.494 517.096 327.412 522.216C338.33 527.336 348.725 529.634 360.518 517.856C372.312 506.078 392.859 484.902 399.882 474.804C401.271 472.808 400.351 456.517 400.351 456.517C400.351 456.517 362.198 444.83 360.703 448.354Z" fill="#7770B1"/>
<path d="M429.526 388.885C429.526 388.885 421.419 391.012 408.623 386.897C391.488 381.387 385.379 374.353 383.019 366.705C380.659 359.057 362.197 434.069 360.703 437.593C359.209 441.117 333.114 478.623 327.697 486.177C322.279 493.732 316.494 506.335 327.412 511.455C338.331 516.575 348.726 518.873 360.519 507.095C372.312 495.318 392.859 474.141 399.882 464.043C401.271 462.047 399.288 450.831 400.037 445.756C400.786 440.682 425.207 397.526 429.526 388.885Z" fill="url(#paint24_linear_940_1451)"/>
<path d="M484.253 252.185C484.253 252.185 476.445 256.75 472.626 265.526C472.626 265.526 430.375 248.128 413.231 249.109C396.088 250.09 378.549 251.675 370.983 276.059C363.417 300.443 354.22 337.821 350.666 349.272C347.113 360.724 345.605 383.213 345.605 383.213L384.43 384.446C384.43 384.446 401.801 361.985 408.639 343.793C419.185 315.732 420.82 296.365 420.82 296.365C420.82 296.365 457.539 288.11 472.872 286.355C495.665 283.748 519.401 280.265 530.92 284.125C542.44 287.985 565.18 300.179 565.18 300.179L556.57 241.303L484.253 252.184V252.185Z" fill="url(#paint25_linear_940_1451)"/>
<path d="M496.231 276.708C496.12 276.709 496.01 276.685 495.909 276.64C495.808 276.595 495.717 276.529 495.644 276.447C495.57 276.364 495.514 276.267 495.48 276.161C495.447 276.056 495.436 275.944 495.448 275.834C495.85 272.307 497.727 268.254 501.027 263.79C503.461 260.497 505.747 258.251 505.843 258.157C505.992 258.012 506.193 257.931 506.401 257.933C506.61 257.935 506.809 258.02 506.955 258.169C507.101 258.318 507.182 258.518 507.18 258.727C507.178 258.935 507.093 259.134 506.944 259.28C506.853 259.368 497.898 268.215 497.011 276.012C496.99 276.204 496.898 276.38 496.754 276.509C496.61 276.637 496.424 276.709 496.231 276.709V276.708ZM401.509 360.026C401.382 360.026 401.257 359.996 401.144 359.937C401.032 359.878 400.935 359.792 400.862 359.688C400.79 359.584 400.744 359.463 400.729 359.337C400.713 359.211 400.728 359.083 400.773 358.964C401.106 358.08 401.951 356.008 403.121 353.139C406.569 344.686 412.34 330.539 414.37 323.849C417.022 315.108 419.106 303.651 420.085 296.495C420.846 290.929 420.598 283.357 420.595 283.281C420.591 283.177 420.608 283.074 420.644 282.977C420.68 282.88 420.735 282.791 420.805 282.715C420.876 282.639 420.96 282.578 421.055 282.535C421.149 282.492 421.251 282.468 421.354 282.464C421.458 282.461 421.561 282.478 421.658 282.514C421.755 282.551 421.844 282.606 421.92 282.677C421.995 282.748 422.056 282.833 422.098 282.927C422.141 283.022 422.164 283.123 422.167 283.227C422.178 283.542 422.423 291.007 421.643 296.708C420.657 303.92 418.554 315.475 415.876 324.304C413.824 331.064 408.036 345.254 404.578 353.732C403.457 356.481 402.571 358.653 402.246 359.517C402.189 359.667 402.089 359.796 401.957 359.887C401.825 359.978 401.669 360.026 401.509 360.026ZM488.661 274.261C488.532 274.261 488.402 274.23 488.282 274.163C488.18 274.107 478.06 268.549 472.292 266.213C472.102 266.133 471.95 265.981 471.871 265.79C471.792 265.6 471.791 265.385 471.869 265.194C471.946 265.003 472.096 264.85 472.286 264.768C472.476 264.686 472.691 264.683 472.883 264.758C478.738 267.128 488.939 272.731 489.041 272.788C489.194 272.872 489.315 273.005 489.384 273.165C489.453 273.325 489.467 273.503 489.423 273.672C489.38 273.841 489.281 273.99 489.143 274.097C489.005 274.204 488.835 274.261 488.661 274.261Z" fill="#616759"/>
<path d="M488.734 274.333C488.609 274.333 488.486 274.304 488.375 274.247C488.265 274.19 488.169 274.108 488.096 274.008C488.023 273.907 487.975 273.79 487.956 273.667C487.937 273.544 487.948 273.418 487.987 273.3C490.996 264.243 498.458 256.749 498.774 256.435C498.923 256.292 499.122 256.213 499.328 256.215C499.534 256.217 499.731 256.3 499.877 256.446C500.022 256.592 500.105 256.789 500.106 256.995C500.108 257.201 500.028 257.399 499.884 257.547C499.81 257.621 492.369 265.099 489.48 273.795C489.428 273.951 489.328 274.087 489.194 274.184C489.06 274.281 488.899 274.333 488.733 274.333L488.734 274.333ZM564.578 304.272C564.557 304.272 564.535 304.271 564.514 304.27C557.709 303.73 552.448 301.059 548.875 296.331C540.72 285.54 544.139 267.973 544.289 267.23C544.33 267.027 544.451 266.848 544.624 266.733C544.798 266.618 545.01 266.576 545.214 266.617C545.418 266.658 545.598 266.778 545.713 266.951C545.829 267.124 545.871 267.336 545.831 267.54C545.795 267.715 542.404 285.167 550.133 295.389C553.423 299.74 558.304 302.201 564.639 302.703C564.841 302.72 565.03 302.813 565.164 302.965C565.299 303.117 565.37 303.314 565.362 303.517C565.354 303.72 565.268 303.911 565.122 304.052C564.976 304.193 564.781 304.272 564.578 304.272Z" fill="#616759"/>
<path d="M343.864 390.264C341.357 406.615 319.749 446.949 319.749 446.949C319.749 446.949 313.841 463.415 327.912 469.876C339.091 475.01 351.339 480.706 364.663 463.637C377.986 446.567 392.035 419.902 392.331 414.085C392.668 407.429 392.598 406.396 391.701 403.085C391.559 402.56 346.372 373.913 343.864 390.264L343.864 390.264Z" fill="#7770B1"/>
<path d="M401.509 359.241C401.509 359.241 399.009 344.628 386.89 335.984C371.873 325.273 357.075 326.371 354.934 331.604C354.934 331.604 346.373 362.914 343.865 379.265C341.357 395.616 328.127 426.655 324.441 435.582C320.755 444.51 314.399 451.321 327.912 458.877C337.979 464.507 351.125 469.11 363.405 454.208C377.176 437.498 392.012 408.902 391.702 403.086C391.391 397.269 387.479 390.918 386.583 387.607C386.441 387.082 399.442 366.631 401.509 359.241Z" fill="#A49ACB"/>
<path d="M420.864 297.387C420.671 297.387 420.485 297.316 420.341 297.188C420.197 297.059 420.105 296.883 420.083 296.692C420.061 296.501 420.11 296.308 420.221 296.15C420.331 295.993 420.496 295.881 420.684 295.837C421.015 295.759 454.031 287.996 467.22 286.341C481.411 284.559 514.12 281.586 524.983 282.073C525.192 282.082 525.388 282.174 525.529 282.327C525.669 282.481 525.743 282.684 525.734 282.892C525.714 283.326 525.341 283.655 524.913 283.642C514.13 283.157 481.56 286.124 467.417 287.899C454.31 289.545 421.376 297.288 421.045 297.366C420.985 297.38 420.925 297.387 420.864 297.387Z" fill="#616759"/>
<path d="M391.511 408.392C391.402 408.392 391.294 408.369 391.194 408.326C391.095 408.282 391.005 408.218 390.931 408.138C390.858 408.058 390.801 407.963 390.766 407.86C390.731 407.757 390.717 407.648 390.727 407.539C391.22 401.758 388.726 395.438 387.076 391.256C386.507 389.812 386.057 388.672 385.824 387.811C385.699 387.35 385.694 387.332 388.815 382.009C392.755 375.289 399.349 364.043 400.752 359.029C400.78 358.93 400.827 358.837 400.891 358.756C400.954 358.675 401.033 358.607 401.123 358.556C401.213 358.506 401.312 358.473 401.415 358.461C401.517 358.448 401.621 358.456 401.721 358.484C401.82 358.512 401.913 358.559 401.995 358.623C402.076 358.686 402.144 358.765 402.194 358.855C402.245 358.945 402.278 359.044 402.29 359.146C402.302 359.249 402.294 359.352 402.267 359.452C400.81 364.662 394.151 376.018 390.172 382.803C388.912 384.951 387.716 386.992 387.408 387.63C387.639 388.397 388.059 389.463 388.539 390.68C390.243 394.999 392.818 401.525 392.294 407.673C392.277 407.869 392.187 408.051 392.042 408.184C391.897 408.317 391.708 408.391 391.511 408.392Z" fill="#7670B0"/>
<path d="M500.799 126.388L478.665 141.784C477.226 142.785 476.885 144.767 477.906 146.191L479.638 148.607C479.638 148.607 463.199 156.219 457.634 159.29C456.006 160.188 462.435 174.924 463.354 182.288C463.862 186.362 462.769 197.777 461.88 204.391C460.265 216.4 464.246 228.869 475.628 232.529C475.628 232.529 476.858 248.416 482.25 252.294C487.642 256.171 507.785 261.681 524.384 260.032C543.788 258.106 553.119 247.135 553.119 247.135C553.119 247.135 570.092 155.527 562.983 148.428C552.385 137.844 530.22 140.13 513.467 137.983L505.095 127.057C504.603 126.414 503.881 125.986 503.081 125.862C502.281 125.737 501.463 125.926 500.799 126.388Z" fill="url(#paint26_linear_940_1451)"/>
<path d="M510.375 235.601C510.202 235.601 510.034 235.544 509.896 235.438C502.159 229.496 488.115 225.014 487.974 224.97C487.778 224.905 487.616 224.765 487.522 224.581C487.428 224.397 487.41 224.184 487.473 223.987C487.535 223.791 487.673 223.626 487.855 223.53C488.038 223.434 488.252 223.413 488.449 223.472C489.036 223.658 502.9 228.083 510.855 234.193C510.985 234.293 511.081 234.431 511.129 234.588C511.176 234.746 511.173 234.914 511.12 235.069C511.067 235.224 510.967 235.359 510.833 235.455C510.7 235.55 510.539 235.601 510.375 235.601V235.601ZM476.81 241.243C476.635 241.243 476.464 241.184 476.326 241.076C476.188 240.968 476.09 240.818 476.048 240.648C475.994 240.434 474.828 235.755 474.821 233.076C472.458 232.174 463.657 228.15 461.729 217.682C459.812 207.276 460.934 197.429 461.538 192.139C461.609 191.519 461.671 190.968 461.72 190.491C462.453 183.359 460.644 171.781 456.882 159.52C456.821 159.321 456.842 159.105 456.94 158.921C457.037 158.737 457.204 158.6 457.404 158.539C457.603 158.478 457.819 158.498 458.003 158.596C458.187 158.694 458.325 158.86 458.386 159.06C462.207 171.511 464.038 183.321 463.285 190.651C463.227 191.207 463.165 191.762 463.101 192.317C462.507 197.526 461.402 207.221 463.276 217.398C465.287 228.311 475.76 231.747 475.865 231.78C476.035 231.834 476.182 231.944 476.282 232.092C476.381 232.24 476.427 232.418 476.412 232.596C476.22 234.832 477.56 240.212 477.574 240.266C477.603 240.382 477.605 240.503 477.58 240.62C477.556 240.737 477.505 240.846 477.431 240.94C477.357 241.035 477.263 241.111 477.156 241.163C477.048 241.215 476.93 241.242 476.81 241.242L476.81 241.243Z" fill="#E3B194"/>
<path d="M585.151 339.499C585.151 339.499 581.686 345.809 580.031 349.865C578.376 353.92 580.929 360.692 583.327 363.873C585.726 367.053 590.453 366.902 591.603 362.682C592.753 358.462 590.32 354.887 590.902 353.647C591.484 352.407 602.754 351.826 602.754 351.826L622.602 346.573L608.716 329.833L585.151 339.499L585.151 339.499Z" fill="#ED998E"/>
<path d="M623.939 357.444C623.939 357.444 627.493 359.213 629.037 354.973C630.581 350.734 630.312 347.524 630.386 345.465C630.461 343.407 627.656 340.66 624.464 338.278C621.272 335.896 612.187 328.83 608.496 327.497C604.806 326.165 600.7 327.423 600.7 327.423L623.939 357.444Z" fill="#ED998E"/>
<path d="M623.723 344.034C621.91 341.413 619.282 338.179 616.173 341.456L623.939 357.444C623.939 357.444 624.769 357.856 625.801 357.805C625.829 357.652 625.854 357.497 625.87 357.339C626.743 348.913 625.855 347.114 623.723 344.034Z" fill="#E58076"/>
<path d="M610.42 345.106C610.42 345.106 612.446 358.895 615.379 361.857C618.313 364.819 624.296 362.517 624.82 357.81C625.345 353.103 622.456 345.512 620.879 342.348C618.646 337.866 612.462 340.157 610.42 345.106Z" fill="#ED998E"/>
<path d="M608.698 341.458C607.411 341.5 607.646 342.348 610.42 345.105C610.42 345.105 612.446 358.895 615.379 361.857C616.067 362.551 616.922 362.952 617.835 363.105C618.794 363.416 619.28 363.059 619.282 362.573C619.303 357.495 616.185 345.877 613.761 343.049C612.399 341.461 609.251 341.44 608.698 341.458Z" fill="#E58076"/>
<path d="M600.7 347.935C600.7 347.935 605.585 361.909 608.708 364.497C611.831 367.085 616.947 366.707 616.954 361.974C616.962 357.242 614.517 347.609 612.908 344.513C611.299 341.416 604.202 340.862 600.7 347.935V347.935Z" fill="#ED998E"/>
<path d="M611.11 364.525C610.374 360.024 605.676 349.397 603.239 346.864C601.606 345.166 597.712 345.446 597.251 345.166C596.77 345.782 597.334 345.027 600.7 347.935C604.182 350.943 605.585 361.909 608.708 364.497C609.116 364.834 609.56 365.124 610.033 365.362C611.332 366.075 611.271 365.505 611.11 364.525Z" fill="#E58076"/>
<path d="M590.729 352.008C590.729 352.008 596.591 360.325 600.925 366.532C603.17 369.748 609.396 367.408 608.721 363.313C608.046 359.217 604.238 351.19 602.199 348.714C600.161 346.237 595.713 346.141 590.729 352.008V352.008Z" fill="#ED998E"/>
<path d="M590.902 353.647C590.902 353.647 592.961 354.211 600.433 366.215C601.644 367.287 602.56 367.259 601.962 366.075C599.024 360.265 596.799 353.854 593.79 351.13C592.525 349.985 590.73 352.008 590.902 353.647Z" fill="#E58076"/>
<path d="M560.443 146.282C560.443 146.282 567.657 148.638 574.47 165.241C581.283 181.844 593.523 233.114 596.267 239.801C599.011 246.487 611.317 286.855 616.954 298.439C622.592 310.022 642.713 339.301 620.785 335.509C598.856 331.717 583.491 342.288 583.491 342.288C583.491 342.288 569.122 337.436 567.136 326.94C565.15 316.443 559.121 274.622 553.186 260.015C547.25 245.409 542.866 224.484 540.408 215.675C537.951 206.867 539.614 181.647 543.575 171.106C547.938 159.494 560.443 146.282 560.443 146.282Z" fill="url(#paint27_linear_940_1451)"/>
<path d="M549.702 251.08C549.531 251.08 549.365 251.025 549.228 250.922C549.092 250.819 548.993 250.675 548.946 250.511C548.551 249.134 539.275 216.721 538.908 211.854C538.556 207.189 538.208 185.783 541.122 176.869C541.153 176.77 541.203 176.678 541.27 176.598C541.337 176.519 541.419 176.453 541.512 176.406C541.604 176.358 541.705 176.329 541.809 176.321C541.913 176.313 542.017 176.325 542.116 176.357C542.215 176.389 542.307 176.441 542.385 176.509C542.464 176.576 542.529 176.659 542.575 176.752C542.622 176.845 542.65 176.946 542.657 177.05C542.664 177.154 542.65 177.258 542.617 177.356C539.775 186.052 540.13 207.133 540.477 211.736C540.832 216.444 550.362 249.743 550.458 250.078C550.492 250.195 550.498 250.318 550.475 250.438C550.453 250.557 550.403 250.67 550.33 250.767C550.257 250.864 550.162 250.943 550.053 250.997C549.944 251.052 549.824 251.08 549.702 251.08L549.702 251.08Z" fill="#E3B194"/>
<path d="M483.392 69.7977C483.392 69.7977 499.084 69.0939 504.378 70.3305C509.673 71.5671 514.579 89.0019 515.616 100.096C524.948 199.874 501.311 199.874 501.311 199.874C501.311 199.874 507.254 177.973 500.594 164.67C493.935 151.367 490.827 128.514 496.23 115.072C501.632 101.63 489.751 80.0163 489.751 80.0163L483.392 69.798L483.392 69.7977Z" fill="url(#paint28_linear_940_1451)"/>
<path d="M453.966 107.596C453.966 107.596 441.355 109.892 440.204 99.2296C439.053 88.5674 450.241 74.263 459.264 74.263C459.264 74.263 473.249 67.8533 482.006 68.7295C490.763 69.6057 498.78 77.8451 502.682 86.0547C506.583 94.2642 510.374 110.761 500.937 118.004C492.043 124.831 487.788 117.693 486.529 112.602C485.27 107.512 453.966 107.596 453.966 107.596H453.966Z" fill="#8E84BE"/>
<path d="M444.607 92.469C444.607 92.469 447.837 104.76 450.271 109.192C452.705 113.624 451.766 114.972 450.996 118.291C450.374 120.972 448.973 125.311 448.414 127.007C448.385 127.094 448.376 127.186 448.387 127.277C448.398 127.369 448.429 127.456 448.478 127.534C448.527 127.612 448.592 127.678 448.669 127.728C448.746 127.778 448.833 127.811 448.925 127.823L455.16 128.699C455.16 128.699 460.68 138.849 465.01 139.438C469.34 140.026 477.172 134.86 483.186 125.177C489.2 115.494 491.674 111.675 485.731 97.879C479.788 84.0826 471.557 73.1489 460.777 77.9591C449.998 82.7694 444.607 92.4687 444.607 92.4687L444.607 92.469Z" fill="#ED998E"/>
<path d="M455.663 115.072C455.663 115.072 453.473 111.963 454.292 110.416C455.016 109.048 456.618 108.084 461.604 107.701C461.604 107.701 462.167 111.599 460.138 113.121C458.11 114.643 455.663 115.072 455.663 115.072Z" fill="white"/>
<mask id="mask3_940_1451" style="mask-type:luminance" maskUnits="userSpaceOnUse" x="454" y="107" width="9" height="9">
<path d="M455.663 115.072C455.663 115.072 453.473 111.963 454.292 110.417C455.016 109.048 457.598 107.68 462.585 107.297C462.585 107.297 461.909 111.817 459.88 113.34C457.852 114.862 455.663 115.072 455.663 115.072L455.663 115.072Z" fill="white"/>
</mask>
<g mask="url(#mask3_940_1451)">
<path d="M459.486 115.302C460.484 114.437 460.22 112.502 458.897 110.979C457.574 109.455 455.692 108.921 454.695 109.785C453.697 110.65 453.961 112.585 455.284 114.109C456.607 115.632 458.488 116.166 459.486 115.302Z" fill="#1E1E1E"/>
</g>
<path d="M455.668 115.139C455.504 115.139 455.346 115.075 455.229 114.96C455.155 114.888 453.42 113.175 453.463 111.263C453.483 110.393 453.852 109.632 454.562 109C456.104 107.626 459.395 106.669 462.569 106.669C462.933 106.672 463.214 106.945 463.214 107.298C463.214 107.38 463.198 107.462 463.166 107.538C463.134 107.614 463.088 107.684 463.03 107.742C462.971 107.8 462.902 107.846 462.826 107.878C462.749 107.909 462.667 107.926 462.585 107.926C462.578 107.927 462.574 107.926 462.569 107.926C459.345 107.926 456.523 108.937 455.399 109.938C454.956 110.333 454.734 110.775 454.722 111.287C454.689 112.651 456.095 114.048 456.109 114.062C456.198 114.149 456.259 114.261 456.284 114.383C456.31 114.506 456.298 114.633 456.251 114.748C456.203 114.864 456.123 114.963 456.019 115.032C455.915 115.102 455.793 115.139 455.668 115.139ZM451.196 105.045C451.065 105.045 450.936 105.012 450.821 104.95C450.706 104.888 450.609 104.798 450.537 104.688C450.466 104.579 450.423 104.453 450.412 104.323C450.402 104.193 450.424 104.062 450.477 103.942C452.769 98.7593 461.153 99.8561 461.51 99.9048C461.715 99.9346 461.9 100.044 462.025 100.21C462.15 100.376 462.204 100.584 462.176 100.789C462.147 100.995 462.039 101.181 461.874 101.306C461.709 101.432 461.501 101.488 461.295 101.461C461.219 101.451 453.729 100.477 451.916 104.577C451.855 104.716 451.754 104.835 451.626 104.918C451.498 105.001 451.349 105.045 451.196 105.045H451.196Z" fill="#1E1E1E"/>
<path d="M460.256 87.2742C460.256 87.2742 446.56 98.5814 447.929 103.347L442.793 91.2638L459.495 74.8626L475.336 73.578L490.568 91.0888L489.418 103.258C489.418 103.258 485.326 106.189 477.164 105.49C467.219 104.638 459.396 95.7615 460.256 87.2742H460.256Z" fill="#8E84BE"/>
<path d="M480.646 108.201C480.646 108.201 480.349 98.6163 486.531 98.6163C492.713 98.6163 495.331 106.067 492.869 111.546C490.406 117.026 484.954 118.502 482.366 115.615C479.779 112.728 480.646 108.201 480.646 108.201Z" fill="#ED998E"/>
<path d="M483.543 111.813C483.446 111.813 483.35 111.79 483.263 111.747C483.176 111.704 483.101 111.641 483.042 111.564C482.983 111.487 482.943 111.397 482.925 111.301C482.907 111.206 482.911 111.108 482.938 111.014C484.038 107.109 487.572 103.646 487.722 103.501C487.842 103.387 488.002 103.324 488.168 103.328C488.334 103.331 488.492 103.399 488.607 103.518C488.723 103.636 488.787 103.796 488.785 103.961C488.784 104.127 488.717 104.285 488.599 104.402C488.565 104.435 485.157 107.779 484.149 111.355C484.111 111.487 484.032 111.603 483.923 111.685C483.814 111.768 483.68 111.813 483.543 111.813Z" fill="#1E1E1E"/>
<path d="M488.423 112.722C488.292 112.722 488.16 112.681 488.047 112.597L484.034 109.601C483.903 109.501 483.817 109.352 483.795 109.189C483.772 109.025 483.815 108.859 483.914 108.727C484.013 108.595 484.16 108.507 484.324 108.482C484.487 108.457 484.654 108.498 484.788 108.595L488.8 111.59C488.906 111.669 488.984 111.78 489.024 111.906C489.063 112.032 489.062 112.167 489.02 112.292C488.979 112.417 488.898 112.526 488.791 112.603C488.684 112.68 488.555 112.722 488.423 112.722Z" fill="#1E1E1E"/>
<path d="M467.082 122.935L464.941 123.31L459.932 126.995L458.274 129.555L459.73 131.075L463.148 129.935L465.434 126.682L467.082 122.935Z" fill="#DE0A23"/>
<path d="M461.817 126.101C461.817 126.101 460.487 129.648 460.784 130.908L459.216 131.297L458.354 129.857L459.033 127.864L461.817 126.101L461.817 126.101Z" fill="#1E1E1E"/>
<path d="M467.821 122.063C467.821 122.063 461.97 123.339 459.169 126.151C456.27 129.061 457.252 131.405 459.216 131.297C459.216 131.297 458.141 129.834 459.871 128.35C461.6 126.865 467.821 122.063 467.821 122.063Z" fill="#E06961"/>
<path d="M467.821 122.063C467.821 122.063 465.828 128.255 463.91 130.633C461.992 133.01 460.415 132.639 459.217 131.297L458.735 130.569C458.735 130.569 460.424 131.557 461.94 130.03C463.456 128.504 466.222 124.02 466.245 123.005L467.821 122.064L467.821 122.063Z" fill="#E06961"/>
</g>
<defs>
<linearGradient id="paint0_linear_940_1451" x1="111.167" y1="531.162" x2="252.468" y2="531.162" gradientUnits="userSpaceOnUse">
<stop stop-color="#EAB2D2"/>
<stop offset="0.816" stop-color="#E499C2"/>
</linearGradient>
<linearGradient id="paint1_linear_940_1451" x1="257.03" y1="376.599" x2="121.2" y2="415.486" gradientUnits="userSpaceOnUse">
<stop stop-color="#EAB2D2"/>
<stop offset="0.816" stop-color="#E499C2"/>
</linearGradient>
<linearGradient id="paint2_linear_940_1451" x1="604.527" y1="401.944" x2="383.782" y2="486.609" gradientUnits="userSpaceOnUse">
<stop offset="0.013" stop-color="#BF78A9" stop-opacity="0.35"/>
<stop offset="1" stop-color="#EAB2D2"/>
</linearGradient>
<linearGradient id="paint3_linear_940_1451" x1="757.658" y1="376.092" x2="533.592" y2="482.282" gradientUnits="userSpaceOnUse">
<stop offset="0.013" stop-color="#BF78A9" stop-opacity="0.35"/>
<stop offset="1" stop-color="#DB9DC6"/>
</linearGradient>
<linearGradient id="paint4_linear_940_1451" x1="359.06" y1="207.646" x2="480.461" y2="207.646" gradientUnits="userSpaceOnUse">
<stop offset="0.013" stop-color="#F6DCC6"/>
<stop offset="1" stop-color="#F3CAAD"/>
</linearGradient>
<linearGradient id="paint5_linear_940_1451" x1="527.909" y1="389.546" x2="349.86" y2="257.524" gradientUnits="userSpaceOnUse">
<stop offset="0.013" stop-color="#61675A"/>
<stop offset="1" stop-color="#868F7A"/>
</linearGradient>
<linearGradient id="paint6_linear_940_1451" x1="340.738" y1="447.903" x2="561.737" y2="383.715" gradientUnits="userSpaceOnUse">
<stop stop-color="#A49ACB"/>
<stop offset="0.94" stop-color="#7770B1"/>
</linearGradient>
<linearGradient id="paint7_linear_940_1451" x1="552.675" y1="362.518" x2="355.796" y2="265.309" gradientUnits="userSpaceOnUse">
<stop offset="0.013" stop-color="#61675A"/>
<stop offset="1" stop-color="#868F7A"/>
</linearGradient>
<linearGradient id="paint8_linear_940_1451" x1="431.523" y1="193.163" x2="538.888" y2="193.163" gradientUnits="userSpaceOnUse">
<stop offset="0.013" stop-color="#F6DCC6"/>
<stop offset="1" stop-color="#F3CAAD"/>
</linearGradient>
<linearGradient id="paint9_linear_940_1451" x1="682.145" y1="382.87" x2="544.015" y2="212.163" gradientUnits="userSpaceOnUse">
<stop offset="0.013" stop-color="#F6DCC6"/>
<stop offset="1" stop-color="#F3CAAD"/>
</linearGradient>
<linearGradient id="paint10_linear_940_1451" x1="564.348" y1="156.367" x2="469.318" y2="123.526" gradientUnits="userSpaceOnUse">
<stop offset="0.013" stop-color="#A49ACB"/>
<stop offset="0.842" stop-color="#7770B1"/>
</linearGradient>
<linearGradient id="paint11_linear_940_1451" x1="301.755" y1="231.704" x2="263.945" y2="174.9" gradientUnits="userSpaceOnUse">
<stop offset="0.013" stop-color="#61675A"/>
<stop offset="1" stop-color="#868F7A"/>
</linearGradient>
<linearGradient id="paint12_linear_940_1451" x1="181.969" y1="183.933" x2="245.734" y2="254.746" gradientUnits="userSpaceOnUse">
<stop stop-color="#7670B0"/>
<stop offset="1" stop-color="#1E1E1E"/>
</linearGradient>
<linearGradient id="paint13_linear_940_1451" x1="169.39" y1="68.6992" x2="225.021" y2="90.5047" gradientUnits="userSpaceOnUse">
<stop stop-color="#7670B0"/>
<stop offset="0.863" stop-color="#1E1E1E"/>
</linearGradient>
<linearGradient id="paint14_linear_940_1451" x1="172.574" y1="419.531" x2="216.192" y2="419.531" gradientUnits="userSpaceOnUse">
<stop offset="0.013" stop-color="#F6DCC6"/>
<stop offset="1" stop-color="#F3CAAD"/>
</linearGradient>
<linearGradient id="paint15_linear_940_1451" x1="138.944" y1="482.361" x2="187.13" y2="482.361" gradientUnits="userSpaceOnUse">
<stop stop-color="#A49ACB"/>
<stop offset="1" stop-color="#7770B1"/>
</linearGradient>
<linearGradient id="paint16_linear_940_1451" x1="-11.8819" y1="311.018" x2="116.541" y2="358.005" gradientUnits="userSpaceOnUse">
<stop stop-color="#7670B0"/>
<stop offset="1" stop-color="#1E1E1E"/>
</linearGradient>
<linearGradient id="paint17_linear_940_1451" x1="54.872" y1="448.021" x2="129.242" y2="448.021" gradientUnits="userSpaceOnUse">
<stop stop-color="#A49ACB"/>
<stop offset="1" stop-color="#7770B1"/>
</linearGradient>
<linearGradient id="paint18_linear_940_1451" x1="170.623" y1="481.562" x2="138.298" y2="556.986" gradientUnits="userSpaceOnUse">
<stop offset="0.013" stop-color="#F6DCC6"/>
<stop offset="1" stop-color="#F3CAAD"/>
</linearGradient>
<linearGradient id="paint19_linear_940_1451" x1="147.431" y1="327.028" x2="160.354" y2="249.1" gradientUnits="userSpaceOnUse">
<stop offset="0.013" stop-color="#61675A"/>
<stop offset="1" stop-color="#868F7A"/>
</linearGradient>
<linearGradient id="paint20_linear_940_1451" x1="187.338" y1="99.3992" x2="198.712" y2="165.241" gradientUnits="userSpaceOnUse">
<stop offset="0.013" stop-color="#61675A"/>
<stop offset="1" stop-color="#868F7A"/>
</linearGradient>
<linearGradient id="paint21_linear_940_1451" x1="323.932" y1="137.871" x2="354.736" y2="286.948" gradientUnits="userSpaceOnUse">
<stop stop-color="#FDEDE6"/>
<stop offset="1" stop-color="#A49ACB"/>
</linearGradient>
<linearGradient id="paint22_linear_940_1451" x1="68.2535" y1="263.709" x2="392.705" y2="263.709" gradientUnits="userSpaceOnUse">
<stop stop-color="#EAB2D2"/>
<stop offset="0.816" stop-color="#E499C2"/>
</linearGradient>
<linearGradient id="paint23_linear_940_1451" x1="527.922" y1="389.327" x2="349.966" y2="257.301" gradientUnits="userSpaceOnUse">
<stop offset="0.013" stop-color="#61675A"/>
<stop offset="1" stop-color="#868F7A"/>
</linearGradient>
<linearGradient id="paint24_linear_940_1451" x1="340.775" y1="447.644" x2="561.727" y2="383.435" gradientUnits="userSpaceOnUse">
<stop stop-color="#A49ACB"/>
<stop offset="0.94" stop-color="#7770B1"/>
</linearGradient>
<linearGradient id="paint25_linear_940_1451" x1="552.686" y1="362.318" x2="355.874" y2="265.089" gradientUnits="userSpaceOnUse">
<stop offset="0.013" stop-color="#61675A"/>
<stop offset="1" stop-color="#868F7A"/>
</linearGradient>
<linearGradient id="paint26_linear_940_1451" x1="431.549" y1="193.078" x2="538.9" y2="193.078" gradientUnits="userSpaceOnUse">
<stop offset="0.013" stop-color="#F6DCC6"/>
<stop offset="1" stop-color="#F3CAAD"/>
</linearGradient>
<linearGradient id="paint27_linear_940_1451" x1="682.138" y1="382.656" x2="544.119" y2="211.991" gradientUnits="userSpaceOnUse">
<stop offset="0.013" stop-color="#F6DCC6"/>
<stop offset="1" stop-color="#F3CAAD"/>
</linearGradient>
<linearGradient id="paint28_linear_940_1451" x1="564.357" y1="156.308" x2="469.35" y2="123.456" gradientUnits="userSpaceOnUse">
<stop offset="0.013" stop-color="#A49ACB"/>
<stop offset="0.842" stop-color="#7770B1"/>
</linearGradient>
<clipPath id="clip0_940_1451">
<rect width="186.115" height="246.193" fill="white" transform="translate(88.9977 335.746)"/>
</clipPath>
<clipPath id="clip1_940_1451">
<rect width="260.748" height="231.839" fill="white" transform="translate(383.159 350.099)"/>
</clipPath>
<clipPath id="clip2_940_1451">
<rect width="319.455" height="458.062" fill="white" transform="translate(311.336 68.6469)"/>
</clipPath>
<clipPath id="clip3_940_1451">
<rect width="264.495" height="520.78" fill="white" transform="translate(43.4059 61.1581)"/>
</clipPath>
<clipPath id="clip4_940_1451">
<rect width="135.526" height="94.5455" fill="white" transform="translate(279.172 162.256)"/>
</clipPath>
<clipPath id="clip5_940_1451">
<rect width="324.451" height="326.073" fill="white" transform="translate(182.055 255.866)"/>
</clipPath>
<clipPath id="clip6_940_1451">
<rect width="312.273" height="457.75" fill="white" transform="translate(318.518 68.6469)"/>
</clipPath>
</defs>
</svg>
