<svg width="75" height="75" viewBox="0 0 75 75" fill="none" xmlns="http://www.w3.org/2000/svg">
<path fill-rule="evenodd" clip-rule="evenodd" d="M37.5 9.375C29.8612 9.375 28.905 9.40688 25.905 9.54375C22.9106 9.68062 20.865 10.1569 19.0763 10.8525C17.2012 11.5575 15.5006 12.6637 14.0944 14.0962C12.6642 15.5009 11.5572 17.2003 10.8506 19.0763C10.1587 20.865 9.68062 22.9125 9.54375 25.9069C9.40875 28.905 9.375 29.8594 9.375 37.5C9.375 45.1406 9.40688 46.095 9.54375 49.095C9.68062 52.0894 10.1569 54.135 10.8525 55.9238C11.5575 57.7988 12.6637 59.4994 14.0962 60.9056C15.5009 62.3358 17.2003 63.4427 19.0763 64.1494C20.865 64.8431 22.9106 65.3194 25.905 65.4562C28.905 65.5931 29.8612 65.625 37.5 65.625C45.1387 65.625 46.095 65.5931 49.095 65.4562C52.0894 65.3194 54.135 64.8431 55.9238 64.1475C57.7988 63.4425 59.4994 62.3363 60.9056 60.9038C62.3358 59.4991 63.4428 57.7997 64.1494 55.9238C64.8431 54.135 65.3194 52.0894 65.4562 49.095C65.5931 46.095 65.625 45.1387 65.625 37.5C65.625 29.8612 65.5931 28.905 65.4562 25.905C65.3194 22.9106 64.8431 20.865 64.1475 19.0763C63.4414 17.1995 62.3344 15.4994 60.9038 14.0944C59.4991 12.6642 57.7997 11.5572 55.9238 10.8506C54.135 10.1587 52.0875 9.68062 49.0931 9.54375C46.095 9.40875 45.1406 9.375 37.5 9.375ZM37.5 14.4431C45.0094 14.4431 45.9 14.4713 48.8662 14.6062C51.6075 14.7319 53.0962 15.1875 54.0881 15.5756C55.4006 16.0837 56.3381 16.695 57.3225 17.6775C58.3069 18.6619 58.9163 19.5994 59.4244 20.9119C59.8106 21.9037 60.2681 23.3925 60.3937 26.1337C60.5287 29.1 60.5569 29.9906 60.5569 37.5C60.5569 45.0094 60.5287 45.9 60.3937 48.8662C60.2681 51.6075 59.8125 53.0962 59.4244 54.0881C58.9743 55.3098 58.256 56.415 57.3225 57.3225C56.4152 58.2562 55.3099 58.9745 54.0881 59.4244C53.0962 59.8106 51.6075 60.2681 48.8662 60.3937C45.9 60.5287 45.0112 60.5569 37.5 60.5569C29.9888 60.5569 29.1 60.5287 26.1337 60.3937C23.3925 60.2681 21.9037 59.8125 20.9119 59.4244C19.6902 58.9743 18.585 58.256 17.6775 57.3225C16.7441 56.4149 16.0259 55.3097 15.5756 54.0881C15.1894 53.0962 14.7319 51.6075 14.6062 48.8662C14.4713 45.9 14.4431 45.0094 14.4431 37.5C14.4431 29.9906 14.4713 29.1 14.6062 26.1337C14.7319 23.3925 15.1875 21.9037 15.5756 20.9119C16.0837 19.5994 16.695 18.6619 17.6775 17.6775C18.5849 16.7438 19.6901 16.0256 20.9119 15.5756C21.9037 15.1894 23.3925 14.7319 26.1337 14.6062C29.1 14.4713 29.9906 14.4431 37.5 14.4431Z" fill="#6967A4"/>
<path fill-rule="evenodd" clip-rule="evenodd" d="M37.4999 46.8843C36.2676 46.8843 35.0473 46.6416 33.9087 46.17C32.7701 45.6984 31.7356 45.0071 30.8642 44.1357C29.9928 43.2643 29.3015 42.2298 28.8299 41.0912C28.3583 39.9526 28.1156 38.7323 28.1156 37.5C28.1156 36.2676 28.3583 35.0473 28.8299 33.9087C29.3015 32.7701 29.9928 31.7356 30.8642 30.8642C31.7356 29.9928 32.7701 29.3015 33.9087 28.8299C35.0473 28.3583 36.2676 28.1156 37.4999 28.1156C39.9888 28.1156 42.3758 29.1043 44.1357 30.8642C45.8956 32.6241 46.8843 35.0111 46.8843 37.5C46.8843 39.9888 45.8956 42.3758 44.1357 44.1357C42.3758 45.8956 39.9888 46.8843 37.4999 46.8843ZM37.4999 23.0437C33.6659 23.0437 29.9889 24.5668 27.2778 27.2778C24.5668 29.9889 23.0437 33.6659 23.0437 37.5C23.0437 41.334 24.5668 45.011 27.2778 47.7221C29.9889 50.4331 33.6659 51.9562 37.4999 51.9562C41.334 51.9562 45.011 50.4331 47.7221 47.7221C50.4331 45.011 51.9562 41.334 51.9562 37.5C51.9562 33.6659 50.4331 29.9889 47.7221 27.2778C45.011 24.5668 41.334 23.0437 37.4999 23.0437ZM56.1618 22.7812C56.1618 23.6875 55.8018 24.5567 55.1609 25.1975C54.5201 25.8384 53.6509 26.1984 52.7446 26.1984C51.8383 26.1984 50.9692 25.8384 50.3283 25.1975C49.6875 24.5567 49.3274 23.6875 49.3274 22.7812C49.3274 21.8749 49.6875 21.0057 50.3283 20.3649C50.9692 19.724 51.8383 19.364 52.7446 19.364C53.6509 19.364 54.5201 19.724 55.1609 20.3649C55.8018 21.0057 56.1618 21.8749 56.1618 22.7812Z" fill="#6967A4"/>
</svg>
