<svg width="61" height="58" viewBox="0 0 61 58" fill="none" xmlns="http://www.w3.org/2000/svg">
<rect x="0.453369" y="0.606506" width="59.8478" height="56.8902" rx="28.4451" fill="#EDEBFF"/>
<path d="M37.9942 25.9486C37.9942 24.9977 37.7972 24.0562 37.4144 23.1777C37.0316 22.2993 36.4706 21.5011 35.7633 20.8287C35.056 20.1564 34.2163 19.623 33.2921 19.2592C32.368 18.8953 31.3775 18.708 30.3772 18.708C29.377 18.708 28.3865 18.8953 27.4623 19.2592C26.5382 19.623 25.6985 20.1564 24.9912 20.8287C24.2839 21.5011 23.7229 22.2993 23.3401 23.1777C22.9573 24.0562 22.7603 24.9977 22.7603 25.9486C22.7603 27.3832 23.2064 28.7176 23.9626 29.843H23.9539C26.522 33.665 30.3772 39.3953 30.3772 39.3953L36.8005 29.843H36.7929C37.5768 28.6807 37.9937 27.3292 37.9942 25.9486ZM30.3772 29.0517C29.5115 29.0517 28.6811 28.7247 28.0689 28.1428C27.4567 27.5609 27.1128 26.7716 27.1128 25.9486C27.1128 25.1256 27.4567 24.3363 28.0689 23.7544C28.6811 23.1724 29.5115 22.8455 30.3772 22.8455C31.243 22.8455 32.0733 23.1724 32.6855 23.7544C33.2977 24.3363 33.6417 25.1256 33.6417 25.9486C33.6417 26.7716 33.2977 27.5609 32.6855 28.1428C32.0733 28.7247 31.243 29.0517 30.3772 29.0517Z" fill="#7670AE"/>
</svg>
