<svg width="61" height="58" viewBox="0 0 61 58" fill="none" xmlns="http://www.w3.org/2000/svg">
<rect x="0.971191" y="0.657532" width="59.8478" height="56.8902" rx="28.4451" fill="#EDEBFF"/>
<path d="M39.6001 19.7933H22.1898C21.6126 19.7933 21.0591 20.0113 20.651 20.3993C20.2428 20.7872 20.0135 21.3134 20.0135 21.8621V25.9995C20.0135 26.5482 20.2428 27.0744 20.651 27.4623C21.0591 27.8503 21.6126 28.0683 22.1898 28.0683H39.6001C40.1773 28.0683 40.7308 27.8503 41.139 27.4623C41.5471 27.0744 41.7764 26.5482 41.7764 25.9995V21.8621C41.7764 21.3134 41.5471 20.7872 41.139 20.3993C40.7308 20.0113 40.1773 19.7933 39.6001 19.7933ZM34.1594 23.9308C34.1594 24.5021 33.6963 24.9652 33.125 24.9652H33.0175C32.4462 24.9652 31.9831 24.5021 31.9831 23.9308C31.9831 23.3595 32.4462 22.8964 33.0175 22.8964H33.125C33.6963 22.8964 34.1594 23.3595 34.1594 23.9308ZM38.5119 23.9308C38.5119 24.5021 38.0488 24.9652 37.4776 24.9652H37.37C36.7988 24.9652 36.3357 24.5021 36.3357 23.9308C36.3357 23.3595 36.7988 22.8964 37.37 22.8964H37.4776C38.0488 22.8964 38.5119 23.3595 38.5119 23.9308ZM39.6001 30.137H22.1898C21.6126 30.137 21.0591 30.355 20.651 30.7429C20.2428 31.1309 20.0135 31.6571 20.0135 32.2057V36.3432C20.0135 36.8919 20.2428 37.4181 20.651 37.806C21.0591 38.194 21.6126 38.4119 22.1898 38.4119H39.6001C40.1773 38.4119 40.7308 38.194 41.139 37.806C41.5471 37.4181 41.7764 36.8919 41.7764 36.3432V32.2057C41.7764 31.6571 41.5471 31.1309 41.139 30.7429C40.7308 30.355 40.1773 30.137 39.6001 30.137ZM34.1594 34.2745C34.1594 34.8457 33.6963 35.3088 33.125 35.3088H33.0175C32.4462 35.3088 31.9831 34.8457 31.9831 34.2745C31.9831 33.7032 32.4462 33.2401 33.0175 33.2401H33.125C33.6963 33.2401 34.1594 33.7032 34.1594 34.2745ZM38.5119 34.2745C38.5119 34.8457 38.0488 35.3088 37.4776 35.3088H37.37C36.7988 35.3088 36.3357 34.8457 36.3357 34.2745C36.3357 33.7032 36.7988 33.2401 37.37 33.2401H37.4776C38.0488 33.2401 38.5119 33.7032 38.5119 34.2745Z" fill="#7670AE"/>
</svg>
