<svg width="63" height="63" viewBox="0 0 63 63" fill="none" xmlns="http://www.w3.org/2000/svg">
<path fill-rule="evenodd" clip-rule="evenodd" d="M63 31.5C63 48.897 48.897 63 31.5 63C14.103 63 0 48.897 0 31.5C0 14.103 14.103 0 31.5 0C48.897 0 63 14.103 63 31.5ZM32.6288 23.2547C29.5649 24.5291 23.4415 27.1667 14.2587 31.1675C12.7675 31.7605 11.9864 32.3406 11.9153 32.9078C11.7951 33.8665 12.9956 34.244 14.6303 34.758C14.8527 34.8279 15.0831 34.9004 15.3193 34.9771C16.9276 35.5 19.0911 36.1116 20.2158 36.1359C21.236 36.1579 22.3747 35.7373 23.6319 34.8741C32.2117 29.0824 36.6407 26.155 36.9188 26.0919C37.1149 26.0474 37.3868 25.9914 37.5709 26.1551C37.7551 26.3188 37.737 26.6289 37.7175 26.712C37.5986 27.219 32.8863 31.6 30.4476 33.8672C29.6874 34.574 29.1481 35.0754 29.0379 35.1898C28.791 35.4463 28.5393 35.689 28.2974 35.9221C26.8032 37.3625 25.6827 38.4427 28.3594 40.2066C29.6457 41.0543 30.675 41.7552 31.7019 42.4545C32.8234 43.2183 33.9419 43.98 35.3892 44.9287C35.7579 45.1704 36.11 45.4214 36.453 45.6659C37.7581 46.5964 38.9307 47.4323 40.3792 47.299C41.221 47.2215 42.0904 46.43 42.532 44.0695C43.5755 38.4908 45.6267 26.4035 46.1008 21.4226C46.1423 20.9862 46.09 20.4277 46.0481 20.1825C46.0061 19.9374 45.9185 19.5881 45.5998 19.3295C45.2224 19.0232 44.6397 18.9587 44.3792 18.9632C43.1944 18.9841 41.3766 19.6162 32.6288 23.2547Z" fill="#6967A4"/>
</svg>
