<svg width="44" height="51" viewBox="0 0 44 51" fill="none" xmlns="http://www.w3.org/2000/svg">
<path d="M37.2888 10.5223C34.5955 8.76627 32.6515 5.95654 32.0451 2.68116C31.9141 1.97349 31.8422 1.24518 31.8422 0.5H23.2461L23.2324 34.9499C23.0879 38.8077 19.9127 41.904 16.0203 41.904C14.8106 41.904 13.6714 41.6015 12.6685 41.0737C10.3685 39.8634 8.79451 37.4526 8.79451 34.6783C8.79451 30.6938 12.0362 27.4521 16.0203 27.4521C16.7641 27.4521 17.4775 27.5748 18.1524 27.7862V19.0106C17.454 18.9155 16.7444 18.8561 16.0203 18.8561C7.29598 18.8561 0.198486 25.9539 0.198486 34.6783C0.198486 40.031 2.87287 44.768 6.95294 47.6324C9.5229 49.4367 12.6489 50.5 16.0203 50.5C24.7447 50.5 31.8422 43.4026 31.8422 34.6783V17.2092C35.2136 19.629 39.3442 21.055 43.8014 21.055V12.459C41.4004 12.459 39.1642 11.7452 37.2888 10.5223Z" fill="#6967A4"/>
</svg>
