<svg width="61" height="58" viewBox="0 0 61 58" fill="none" xmlns="http://www.w3.org/2000/svg">
<rect x="0.810791" y="0.657532" width="59.8478" height="56.8902" rx="28.4451" fill="#EDEBFF"/>
<path fill-rule="evenodd" clip-rule="evenodd" d="M30.7346 27.8614C31.7736 27.8614 32.7699 27.4691 33.5046 26.7707C34.2392 26.0724 34.6519 25.1253 34.6519 24.1377C34.6519 23.1501 34.2392 22.2029 33.5046 21.5046C32.7699 20.8063 31.7736 20.4139 30.7346 20.4139C29.6957 20.4139 28.6993 20.8063 27.9647 21.5046C27.23 22.2029 26.8173 23.1501 26.8173 24.1377C26.8173 25.1253 27.23 26.0724 27.9647 26.7707C28.6993 27.4691 29.6957 27.8614 30.7346 27.8614ZM25.0153 39.0325C23.1259 39.0325 21.5352 37.4396 22.29 35.7075C22.7494 34.6534 23.4226 33.6955 24.2714 32.8887C25.1202 32.0819 26.1278 31.4419 27.2368 31.0052C28.3457 30.5686 29.5343 30.3439 30.7346 30.3439C31.935 30.3439 33.1235 30.5686 34.2325 31.0052C35.3415 31.4419 36.3491 32.0819 37.1979 32.8887C38.0466 33.6955 38.7199 34.6534 39.1792 35.7075C39.934 37.4396 38.3433 39.0325 36.4539 39.0325H25.0153Z" fill="#7670AE"/>
</svg>
